<svg id="Layer_1" data-name="Layer 1" xmlns="http://www.w3.org/2000/svg" viewBox="0 0 114 114"><defs><style>.cls-1{fill:#00a7e3;}.cls-2{fill:#59584e;stroke:#59584e;stroke-miterlimit:10;stroke-width:3px;}</style></defs><title>building-icon</title><circle class="cls-1" cx="57" cy="57" r="57"/><path class="cls-2" d="M281.12,343.31c0,.67-.09,1.13-.09,1.6,0,9.37,0,18.75,0,28.12,0,1.48.45,2,1.91,1.88,1.7-.11,3.42,0,5.13,0,1.31,0,1.94.44,1.9,1.87-.08,2.59-.07,5.19,0,7.78,0,1.26-.37,1.84-1.7,1.83-5.6,0-11.2,0-16.8,0-1.27,0-1.82-.54-1.81-1.81q0-3.89,0-7.78c0-1.38.66-1.89,2-1.88,2.24,0,4.47,0,6.86,0a11.54,11.54,0,0,0,.18-1.41c0-9.37,0-18.75,0-28.12,0-1.68-.45-2.22-2.18-2.21q-16.71.11-33.42,0c-1.64,0-2.08.47-2.07,2.08q.09,22.81,0,45.63c0,1.87.6,2.35,2.32,2.24a35.41,35.41,0,0,1,5.48,0c.57.05,1.08.78,1.62,1.19-.56.4-1.11,1.14-1.67,1.15q-7.34.14-14.68,0c-.55,0-1.09-.78-1.63-1.2.56-.4,1.08-1,1.69-1.14a17.27,17.27,0,0,1,3.35-.07c.9,0,1.29-.37,1.26-1.27,0-1.06,0-2.12,0-3.18,0-14.44,0-28.89,0-43.33,0-1.74-.52-2.2-2.19-2.13-3,.13-6,0-9,0-.93,0-2-.06-1.88-1.23,0-.42,1.18-.77,1.85-1.08a11.45,11.45,0,0,0,2.74-1.18c2.41-2.08,4.62-4.38,7-6.46a3.91,3.91,0,0,0,1.5-3.35c0-.57.64-1.17,1-1.75.41.57,1.22,1.18,1.17,1.7-.2,2,.86,2.38,2.5,2.74,12.12,2.66,24.21,5.42,36.32,8.12.9.2,1.9,0,2.79.22a6.34,6.34,0,0,1,1.7,1.06,11,11,0,0,1-1.61,1.19A4.75,4.75,0,0,1,281.12,343.31Zm6.44,34.05H272V384h15.56Zm-46.54-43c0,1.75.09,3.22,0,4.67s.48,1.9,1.92,1.89c6.72-.06,13.44,0,20.16,0H269l0-.26Zm-2.37.76-6,5.6h6Z" transform="translate(-200 -308)"/></svg>