<svg id="Layer_1" data-name="Layer 1" xmlns="http://www.w3.org/2000/svg" viewBox="0 0 382.68 382.68"><defs><style>.cls-1{fill:#13a7e0;}.cls-2{opacity:0.5;}.cls-3{fill:#59584e;}.cls-4{fill:#fff;}.cls-5{opacity:0.2;}</style></defs><title>NEW ICONS</title><polygon class="cls-1" points="19.39 19.39 363.29 363.29 19.39 363.29 19.39 19.39"/><g class="cls-2"><path class="cls-3" d="M277.9,295.12c0,11.93-39,21.6-87.17,21.6s-87.17-9.67-87.17-21.6,39-21.6,87.17-21.6S277.9,283.19,277.9,295.12Z"/></g><path class="cls-4" d="M226.09,282.89a13.72,13.72,0,0,1-13.72,13.72H170.31a13.72,13.72,0,0,1-13.72-13.72h0a13.71,13.71,0,0,1,13.72-13.71h42.06a13.71,13.71,0,0,1,13.72,13.71Z"/><path class="cls-3" d="M212.37,302.09H170.31a19.2,19.2,0,1,1,0-38.4h42.06a19.2,19.2,0,0,1,0,38.4Zm-42.06-27.43a8.23,8.23,0,0,0,0,16.46h42.06a8.23,8.23,0,1,0,0-16.46Z"/><rect class="cls-4" x="94.41" y="95.44" width="193.85" height="131.67" rx="18.29"/><path class="cls-3" d="M270,232.6H112.7a23.8,23.8,0,0,1-23.77-23.78V113.73A23.8,23.8,0,0,1,112.7,90H270a23.8,23.8,0,0,1,23.77,23.78v95.09A23.8,23.8,0,0,1,270,232.6ZM112.7,100.93a12.81,12.81,0,0,0-12.8,12.8v95.09a12.82,12.82,0,0,0,12.8,12.81H270a12.82,12.82,0,0,0,12.8-12.81V113.73a12.81,12.81,0,0,0-12.8-12.8Z"/><polygon class="cls-4" points="200.48 241.74 205.97 280.15 176.71 280.15 182.19 241.74 200.48 241.74"/><path class="cls-3" d="M206,285.63H176.71a5.47,5.47,0,0,1-5.43-6.26l5.48-38.4a5.48,5.48,0,0,1,5.43-4.71h18.29a5.47,5.47,0,0,1,5.43,4.71l5.4,37.77a5.5,5.5,0,0,1-5.31,6.89Zm-23-11h16.61l-3.92-27.43H187Z"/><g class="cls-5"><polygon class="cls-3" points="197.39 243.66 200.44 261.86 182.27 261.86 185.33 243.66 197.39 243.66"/></g><rect class="cls-4" x="94.41" y="111.9" width="193.85" height="131.67" rx="18.29"/><path class="cls-3" d="M270,247.23H112.7a22,22,0,0,1-22-21.95V130.19a22,22,0,0,1,22-22H270a22,22,0,0,1,21.94,22v95.09A22,22,0,0,1,270,247.23ZM112.7,115.56a14.64,14.64,0,0,0-14.63,14.63v95.09a14.64,14.64,0,0,0,14.63,14.63H270a14.65,14.65,0,0,0,14.63-14.63V130.19A14.65,14.65,0,0,0,270,115.56Z"/><circle class="cls-3" cx="190.42" cy="228.03" r="4.57"/><rect class="cls-4" x="114.53" y="130.19" width="153.62" height="84.12"/><path class="cls-3" d="M268.15,218H114.53a3.66,3.66,0,0,1-3.66-3.66V130.19a3.66,3.66,0,0,1,3.66-3.66H268.15a3.66,3.66,0,0,1,3.66,3.66v84.12A3.66,3.66,0,0,1,268.15,218Zm-150-7.32h146.3V133.84H118.19Z"/><polyline class="cls-4" points="141.96 199.07 165.27 171.59 205.05 186.45 240.26 152.13 228.82 152.13"/><path class="cls-3" d="M142,202.73a3.62,3.62,0,0,1-2.37-.87,3.67,3.67,0,0,1-.42-5.15l23.31-27.48a3.65,3.65,0,0,1,4.07-1.06l37.61,14,27.11-26.42h-2.45a3.66,3.66,0,0,1,0-7.32h11.44a3.66,3.66,0,0,1,2.55,6.28L207.6,189.07a3.66,3.66,0,0,1-3.83.81l-37.37-14-21.65,25.52A3.65,3.65,0,0,1,142,202.73Z"/><circle class="cls-4" cx="165.42" cy="171.55" r="8.23"/><path class="cls-3" d="M165.42,183.43a11.89,11.89,0,1,1,11.88-11.88A11.9,11.9,0,0,1,165.42,183.43Zm0-16.46a4.58,4.58,0,1,0,4.57,4.58A4.58,4.58,0,0,0,165.42,167Z"/><circle class="cls-4" cx="205.04" cy="185.84" r="8.23"/><path class="cls-3" d="M205,197.73a11.89,11.89,0,1,1,11.89-11.89A11.9,11.9,0,0,1,205,197.73Zm0-16.46a4.57,4.57,0,1,0,4.57,4.57A4.58,4.58,0,0,0,205,181.27Z"/><path class="cls-3" d="M240.72,166.42a3.66,3.66,0,0,1-3.66-3.66V152.13a3.66,3.66,0,1,1,7.31,0v10.63A3.65,3.65,0,0,1,240.72,166.42Z"/><path class="cls-3" d="M270,249.06H112.7a23.8,23.8,0,0,1-23.77-23.78V111.9a5.49,5.49,0,1,1,11,0V225.28a12.82,12.82,0,0,0,12.8,12.81H270a12.82,12.82,0,0,0,12.8-12.81V111.9a5.49,5.49,0,1,1,11,0V225.28A23.8,23.8,0,0,1,270,249.06Z"/></svg>