<svg id="Layer_1" data-name="Layer 1" xmlns="http://www.w3.org/2000/svg" viewBox="0 0 254 254"><defs><style>.cls-1{fill:#ffde00;}.cls-2{fill:#5b5848;}.cls-3{fill:#585648;}.cls-4{fill:#676145;}.cls-5{fill:#414033;}.cls-6{fill:#49483b;}</style></defs><title>business-services-yellow</title><path class="cls-1" d="M1000,1125c-69.51.27-126.74-56.61-127-126.24-.27-70.34,56.41-127.59,126.49-127.76,70.31-.17,127.38,56.56,127.51,126.74A127,127,0,0,1,1000,1125ZM1082,945c0-.91-.26-1.79-1.22-1.8-8.45-.06-16.9,0-26.16,0a35.29,35.29,0,0,0,7.45,7.64c3.74,4.48,3.6,5.45-1.22,9.34a8.4,8.4,0,0,0-2.09,2.1c-4.3,7.4-11,12.76-16.27,19.4-5.7,7.21-12.1,13.93-18,21.07-1.56,1.9-3.68,3.63-6.14.88s-5.91-4.4-8.73-6.88c-5.72-5-11.86-9.64-17.62-14.72-4.64-4.09-6.17-3.6-10,1.64-1.73,2.36-3.28,4.86-5,7.19-9.81,12.9-19.72,25.72-29.47,38.66-4.77,6.32-11.33,12.08-7.82,21.33,5.33-6.46,11-12.93,16.21-19.71,9.72-12.59,19.2-25.37,28.83-38,1-1.36,2.33-2.18,4.18-.65,9.61,7.9,19.4,15.56,28.9,23.59,2.82,2.38,4.72,2.14,6.09-.84s4.24-4.36,5.44-6.68c2.28-4.4,6.5-6.75,9.24-10.63,2.57-3.62,5.28-7.54,8.78-10.33,3.79-3,6.15-7.17,9.42-10.56,4.42-4.58,8.3-9.78,12.81-14.4,1.67-1.71,2.58-1.49,3.92.07,2.33,2.7,4.74,5.34,7.12,8l1.39-.95ZM919.11,998H919c0,25.82.09,51.65-.09,77.47,0,3.82,1.07,4.89,4.76,4.64,4.64-.32,9.32-.07,14-.07q70,0,139.94-.06c1.58,0,4,.88,4.62-.77,1.24-3.27,1-7,.23-10.31-.61-2.75-3.68-1.5-5.64-1.51-46.31-.06-92.63-.14-138.94.08-5.18,0-6.25-1.46-6.23-6.39.19-46,.11-92,.11-137.94,0-7,0-6.74-7.25-7.13-4.47-.24-5.53,1.11-5.49,5.51C919.22,947,919.11,972.49,919.11,998Z" transform="translate(-873 -871)"/><path class="cls-2" d="M919.11,998c0-25.49.12-51-.11-76.47,0-4.4,1-5.76,5.49-5.51,7.23.39,7.25.09,7.25,7.13,0,46,.08,92-.11,137.94,0,4.93,1.05,6.41,6.23,6.39,46.31-.22,92.63-.14,138.94-.08,2,0,5-1.24,5.64,1.51.73,3.32,1,7-.23,10.31-.62,1.64-3,.76-4.62.77q-70,.07-139.94.06c-4.66,0-9.35-.25-14,.07-3.69.25-4.78-.82-4.76-4.64.18-25.82.09-51.64.09-77.47Zm11,67.7.45.19V918.34h-.45Zm-9.35-114.61h-.46v30.74h.46Zm0-33h-.38v17.69h.38Z" transform="translate(-873 -871)"/><path class="cls-3" d="M1082,945v24.71l-1.39.95c-2.38-2.66-4.79-5.3-7.12-8-1.34-1.56-2.25-1.78-3.92-.07-4.51,4.61-8.39,9.81-12.81,14.4-3.27,3.39-5.62,7.54-9.42,10.56-3.5,2.79-6.22,6.71-8.78,10.33-2.75,3.88-7,6.23-9.24,10.63-1.2,2.32-4.14,3.85-5.44,6.68s-3.27,3.22-6.09.84c-9.5-8-19.29-15.69-28.9-23.59-1.86-1.52-3.15-.71-4.18.65-9.64,12.66-19.11,25.44-28.83,38-5.24,6.78-10.88,13.26-16.21,19.71-3.5-9.25,3.06-15,7.82-21.33,9.76-12.94,19.67-25.76,29.47-38.66,1.77-2.33,3.32-4.83,5-7.19,3.85-5.24,5.38-5.73,10-1.64,5.76,5.07,11.9,9.67,17.62,14.72,2.81,2.48,6.23,4.09,8.73,6.88s4.58,1,6.14-.88c5.86-7.14,12.27-13.85,18-21.07,5.24-6.64,12-12,16.27-19.4a8.4,8.4,0,0,1,2.09-2.1c4.82-3.89,5-4.86,1.22-9.34a14.59,14.59,0,0,0-.41-1.41c-.52-1.31-2.84-2-2-3.59s3-.77,4.55-.8C1070.1,944.93,1076,945,1082,945Z" transform="translate(-873 -871)"/><path class="cls-4" d="M1082,945c-5.92,0-11.85-.08-17.77,0-1.55,0-3.64-.89-4.55.8s1.46,2.28,2,3.59a14.59,14.59,0,0,1,.41,1.41,35.3,35.3,0,0,1-7.45-7.64c9.26,0,17.71,0,26.16,0C1081.69,943.21,1082,944.1,1082,945Z" transform="translate(-873 -871)"/><path class="cls-5" d="M930.13,1065.68V918.34h.45v147.53Z" transform="translate(-873 -871)"/><path class="cls-6" d="M920.78,951.07v30.74h-.46V951.07Z" transform="translate(-873 -871)"/><path class="cls-6" d="M920.73,918v17.68h-.38V918.06Z" transform="translate(-873 -871)"/></svg>