<svg id="Layer_1" data-name="Layer 1" xmlns="http://www.w3.org/2000/svg" viewBox="0 0 382.68 382.68"><defs><style>.cls-1{fill:#fdc408;}.cls-2{opacity:0.5;}.cls-3{fill:#59584e;}.cls-4{fill:#fff;}.cls-5{fill:#59594f;stroke:#59584e;stroke-miterlimit:10;stroke-width:4px;}.cls-6{fill:#203a20;opacity:0.2;}.cls-7{fill:#d6d0cc;}</style></defs><title>NEW ICONS</title><polygon class="cls-1" points="19.39 19.39 363.29 363.29 19.39 363.29 19.39 19.39"/><g class="cls-2"><path class="cls-3" d="M279.17,301.61c0,12.55-41.07,22.73-91.72,22.73s-91.71-10.18-91.71-22.73,41.06-22.73,91.71-22.73S279.17,289.06,279.17,301.61Z"/></g><path class="cls-4" d="M265.45,188.37s6.36,19.35-30.93,50l-50.2,45-.07.05-.34.29a7.12,7.12,0,0,1-9.07-11h0l37.67-31.57.29-.44c-.11-3.82-2.91-6.16-6.65-5.41l-.22.05-66.52,53.6a7.06,7.06,0,0,1-9.92-1,7.07,7.07,0,0,1-.59-8.08,6.26,6.26,0,0,0-9.35-8.05l-13.07,10.75A7,7,0,0,1,97,272.2a6.26,6.26,0,0,0-6.41-10.33,7,7,0,0,1-6.68-12.13l58-47.69c1.76-41.07,41.81-60.64,62.31-68,7.11-2.55,67.9,46.13,67.9,46.13Z"/><path class="cls-3" d="M288.26,178.44l-9-7.22c-.14-.11-14-11.23-29.19-22.48-28.48-21.15-37.13-25-42.24-26h0a14.2,14.2,0,0,0-7.53.48c-11.29,4-27.7,11.4-41.77,23.43a84.88,84.88,0,0,0-19.08,22.85,71,71,0,0,0-8.64,26.75L76.57,240.87A18.51,18.51,0,0,0,74,267a18.58,18.58,0,0,0,9.84,6.22,18.55,18.55,0,0,0,14.61,22.14c.55.11,1.11.19,1.67.25h0a18.44,18.44,0,0,0,13.55-4.11l3.4-2.8a18.37,18.37,0,0,0,3.46,6.58,18.61,18.61,0,0,0,10.81,6.44c.55.11,1.11.19,1.67.25h0a18.44,18.44,0,0,0,13.5-4.07l15.72-12.67A18.59,18.59,0,0,0,191,292.67l.1-.08.1-.08.18-.15c.25-.2.49-.41.72-.62L242,247.08c17-14,28-27.92,32.79-41.37a41,41,0,0,0,2.56-13.79l.14-6.53Zm-53.74,59.93-50.2,45-.07.05-.34.29a7.12,7.12,0,0,1-9.07-11h0l32.78-27.48,4.52-3.65a4.39,4.39,0,0,0-5.52-6.82l-8.1,6.55-59.11,47.63a7,7,0,0,1-5.15,1.56c-.22,0-.44-.05-.65-.09a7,7,0,0,1-4.12-2.45,7.07,7.07,0,0,1-.59-8.08,6.11,6.11,0,0,0,.38-.77l60.3-48.8a5.74,5.74,0,1,0-7.23-8.92l-61.09,49.45a6.14,6.14,0,0,0-1.71,1l-13.07,10.75a7,7,0,0,1-5.15,1.57c-.22,0-.44-.06-.65-.1A7,7,0,0,1,97,272.2a6.31,6.31,0,0,0,1.27-1.91L159,221.14a5.74,5.74,0,0,0-7.23-8.93L90.31,261.93a7.12,7.12,0,0,1-3.33.17,7,7,0,0,1-3.12-12.36l58-47.69c1.76-41.07,41.81-60.64,62.31-68a2.88,2.88,0,0,1,1.47,0c11.62,2.23,66.43,46.13,66.43,46.13l-5.62,8.14a3.87,3.87,0,0,0-.59,2.49C266.25,196.91,264.05,214.1,234.52,238.37Z"/><path class="cls-4" d="M285.59,100c-22.22-25.86-48.62-39.62-59-30.73-.54.46-18.91,6.35-31.1,16.63,5.39,1.37,10.75,2.79,16.18,4,10.45,2.37,20.2,4,29.31,10,14.85,9.81,24,26.27,30.8,42.29,4.65,10.93,8.44,23.6,6.8,35.55,11.21-9.63,28-14.36,28.49-14.8C317.45,154,307.81,125.86,285.59,100Z"/><path class="cls-4" d="M185.35,179.86l-4.76,5.56L175,180.66a30.1,30.1,0,0,0-39.2,45.7l5.56,4.77,45.71,39.19,39.19-45.7,4.77-5.56a30.11,30.11,0,0,0-45.71-39.2Z"/><path class="cls-5" d="M187.36,273.85a3.53,3.53,0,0,1-2.58-.84l-51.26-44A33.65,33.65,0,1,1,177.33,178l2.87,2.45,2.45-2.86a33.65,33.65,0,1,1,51.09,43.8l-44,51.27A3.54,3.54,0,0,1,187.36,273.85Zm-34-96.82a26.56,26.56,0,0,0-15.26,46.64l48.58,41.65,41.65-48.57A26.56,26.56,0,0,0,188,182.17l-4.77,5.56a3.54,3.54,0,0,1-5,.38l-5.56-4.76A26.33,26.33,0,0,0,153.39,177Z"/><path class="cls-4" d="M268.05,186.81c13.17-11.32,38.38-23.3,39.06-23.89,10.34-8.89.7-37.06-21.52-62.92s-48.62-39.62-59-30.73c-1,.88-52.46,34.64-52.46,34.64a69.66,69.66,0,0,0-15.5,3.24c-12.72,4-29,11-36,24.07s-10,37-6.76,53.39,24.26,14.91,28.56,4.7S153.65,157,153.65,157a247.17,247.17,0,0,0,32-1.81,145.88,145.88,0,0,0,29.24-7.24l6.16,6.71,12.22,1.12.78-3.84"/><path class="cls-6" d="M128.82,203a41.47,41.47,0,0,0,32.39-11.39c9.39-9.11,10-16.94,10-16.94s10.87,1.38,28.61-4.14a44.71,44.71,0,0,0,22.92-16.26l-19-7.66-48.9,6.8-9.49,33.41Z"/><path class="cls-7" d="M261.32,111c-18.73-22.53-53.1-28.79-53.1-28.79L181.7,105.16l-.49.52.38.34c21.77-1,44.29,4.69,61.23,20.8,15.36,14.62,24.46,32.22,26.42,51.37A107,107,0,0,1,285,168S284.3,138.67,261.32,111Z"/><path class="cls-3" d="M268.83,192.59c-2-.38-3-.23-3-2.3.68-21.76-8.54-43.92-25.91-60.45-15-14.31-40.23-21.56-64.38-19.84-2.31.17-.71-1.24-.87-3.54a4.18,4.18,0,0,1,3.87-4.46c26.52-1.89,50.36,5.86,67.12,21.8,19.15,18.22,28.86,40.63,28.1,64.83-.07,2.3-1.85,3-4.16,2.91C269.41,191.53,269,192.64,268.83,192.59Z"/><path class="cls-3" d="M285.73,99c-21.39-24.9-52.28-44.35-67.59-31.56-7.48,12.1-24.67,25.85-46.14,30.37a75,75,0,0,0-15.21,3.33c-20.37,6.44-33.34,15.3-39.65,27.09-7.65,14.3-10.89,39.58-7.38,57.54,1.76,9,8.06,15.34,16.67,17q1,.19,2,.3c9.43,1,18.58-3.81,21.75-11.37s6.68-21.26,8.41-28.54a236.24,236.24,0,0,0,27.93-1.87,151.65,151.65,0,0,0,30.64-7.59,6.26,6.26,0,0,0-4.51-11.67,140.94,140.94,0,0,1-27.86,6.87,243.21,243.21,0,0,1-31.09,1.76,6.26,6.26,0,0,0-6.2,4.91c0,.21-4.81,21.7-8.85,31.27-1,2.49-5.05,4.18-8.94,3.79-2.93-.3-6.65-1.81-7.71-7.26a67.59,67.59,0,0,1-1.12-10.51c2.11.89,4.88,2.54,5.39,5.14a4.16,4.16,0,0,0,3.3,3.29,4.1,4.1,0,0,0,1.6,0,4.17,4.17,0,0,0,3.29-4.89c-1.65-8.4-10.71-11.56-13.44-12.33.67-11.22,3.23-22.67,7.11-29.94,4.63-8.64,15.53-15.73,32.39-21.06a63.72,63.72,0,0,1,14.25-3,13.28,13.28,0,0,0,2.79-1C209,98.42,218,86.72,226.1,77.13c4.85-5.74,28.07,4.37,50.15,30.06,21.56,25.1,27.6,48.11,22.55,53.74l-1.3.63c-6.07,2.94-18.08,7.32-29.42,17.06a6.25,6.25,0,0,0,8.15,9.49c10.11-8.68,21.06-12.55,26.73-15.3a14.46,14.46,0,0,0,3.62-2C321.83,157.68,307.22,124,285.73,99Z"/></svg>