<svg id="Layer_1" data-name="Layer 1" xmlns="http://www.w3.org/2000/svg" viewBox="0 0 114 114"><defs><style>.cls-1{fill:#00a7e3;}.cls-2{fill:#58584e;stroke:#58584e;stroke-miterlimit:10;}</style></defs><title>cogs-icon</title><circle class="cls-1" cx="57" cy="57" r="57"/><path class="cls-2" d="M246.81,362.6c-3.29,0-5.42,1.45-6,3.89a2.19,2.19,0,0,1-.51,1c-1.21,1.28-5.23,1.39-6.53.2-.33-.3-.71-.52-.81-1-.17-.83.51-2-.61-2.45a40.06,40.06,0,0,0-4.88-1.85c-.9-.26-1.54.68-2.06,1.2-1,1-1.85.77-2.73,0s-1.4-1.4-2.11-2.08c-1.15-1.09-1.63-2.09-.14-3.39a2.14,2.14,0,0,0,.34-3.2,12,12,0,0,1-1.24-2.92c-.46-1.22-1.07-2-2.63-1.92s-2.42-.93-2.44-2.54c0-.91,0-1.82,0-2.74,0-1.65.75-2.68,2.48-2.5,2.9.29,2.34-2.53,3.4-3.83a2.11,2.11,0,0,0-.45-3.14c-1.61-1.14-1.37-2.5.06-3.76a26.09,26.09,0,0,1,2.65-2.39c1-.69,1.78-.53,2.37.2,1.11,1.36,2.25,1.18,3.59.47a28.93,28.93,0,0,1,3.13-1.36,1.75,1.75,0,0,0,1.31-1.84c0-2.27,1.45-2.9,3.46-2.89,3.24,0,4.17.52,4.37,2.85a1.82,1.82,0,0,0,1.38,1.8,23.12,23.12,0,0,1,3,1.18,2,2,0,0,0,2.79-.53c1.13-1.31,2.35-1.16,3.5.09.62.67,1.26,1.33,1.94,1.93,1.37,1.22,1.46,2.46,0,3.64A1.64,1.64,0,0,0,253,337a19.82,19.82,0,0,1,1.29,2.91c.5,1.48,1.13,2.66,3,2.31a1,1,0,0,1,.67.1c2.36,1.41,1,3.71,1.25,5.6a1.78,1.78,0,0,1-2.08,2.11c-1.67-.17-2.3.68-2.73,2a16.05,16.05,0,0,1-1,2.53,1.62,1.62,0,0,0,.43,2.36,2,2,0,0,1,.59,3c2.64-.89,3.34-2,2.67-4.42-.61-2.21.6-3.38,2.3-4.25a25.69,25.69,0,0,1,3-1.13c3.46-1.25,4.16-1,5.79,2.39a2.81,2.81,0,0,0,.43.8c1,1,7.16.27,8-.91,2.2-3,2.43-3.11,5.7-1.56.89.42,1.81.79,2.67,1.27,2.12,1.19,2.63,2.6,1.81,4.84a7.52,7.52,0,0,0-.36.83c-.3,1.3,4.91,6.41,6.25,6.16,3.91-.74,4.34-.51,5.75,3.1.25.63.48,1.27.71,1.91,1.17,3.25,1,4-2.09,5.57a2.13,2.13,0,0,0-1.35,2.27,12.7,12.7,0,0,1-.08,2c-.32,2.26.17,4,2.43,5.12,1.53.78,1.85,2.24.93,3.88-.74,1.32-1.27,2.75-2,4.08-1.2,2.25-2.32,2.69-4.58,1.53a2,2,0,0,0-2.92.53,19.32,19.32,0,0,1-2.44,2.39c-1.44,1.18-2.24,2.25-1.34,4.37s-1.06,3.17-2.61,4a18.79,18.79,0,0,1-3,1.12c-3.21,1.15-4,.83-5.38-2.4a1.92,1.92,0,0,0-2.07-1.37,14.6,14.6,0,0,1-3.18,0c-1.79-.31-2.72.35-3.48,2-.95,2.08-2.41,2.46-4.53,1.56-1.33-.56-2.64-1.16-3.93-1.81-2.34-1.19-2.91-2.54-1.69-4.78a2.09,2.09,0,0,0-.53-3.08,9.75,9.75,0,0,1-1.91-1.95c-1.42-2.1-3.13-2.75-5.52-1.63-2.11,1-2.15-1.44-3.18-2.21-.56-.42-.63-1.5-.92-2.28-1.67-4.48-1.69-4.51,2.42-6.86a1.41,1.41,0,0,0,.83-1.41,22.51,22.51,0,0,1,.07-3.19c.28-1.89-.22-3.12-2.12-3.9s-2.21-2.38-1.49-4.18c.42-1.05,1-2.05,1.44-3.09A6.54,6.54,0,0,1,246.81,362.6Zm23.08,36.1c4.78.11,4.72.17,8.22,3.65.92.92,2-.32,3-.53.74-.15,1.18-.59.78-1.5-.5-1.13-1-2.53-.05-3.44,2.38-2.28,4.24-5.11,7.21-6.78,1-.58,1.74-1.2,3-.25.56.42,2.19.86,2.45-.81.17-1.09,2.39-2.18-.12-3.39a3.91,3.91,0,0,1-2.34-4.21c.23-2,0-3.95.13-5.92.07-1.68.77-3.19,2.44-3.68s1.45-1.55,1-2.7-.8-2.38-2.54-1.6-2.93.11-4.08-1.1c-1.72-1.82-3.49-3.6-5.19-5.44-1-1.11-1.73-2.43-.81-3.91.58-.92.76-2.13-.17-2.25-1.2-.16-2.56-2.45-3.77-.09-1.13,2.21-3,2.76-5.27,2.49a30.12,30.12,0,0,0-4.32-.13,4,4,0,0,1-4.12-2.56c-.91-2.3-2.3-.86-3.49-.62-1.41.28-1.14,1.2-.76,2.25a3,3,0,0,1-.37,2.78c-1.51,2.43-3.88,4-5.74,6-1.45,1.59-3.11,2.16-5.09,1.18s-1.77.82-2.24,1.63-1.27,1.61.32,2.34a4.43,4.43,0,0,1,2.71,4.94,48.24,48.24,0,0,0-.17,5c0,2-.72,3.54-2.82,4.13-2.25.63-.7,2.13-.59,3.15s.93,1.58,2.16,1,2.65-.8,3.55.38c1.58,2.07,3.8,3.43,5.48,5.39,1.48,1.73,2.42,3.27,1.13,5.45-.41.7-.43,1.33.54,1.52s2.4,2,3.09.75C264.82,398.61,267.42,398.31,269.89,398.7ZM228,360.62a25.83,25.83,0,0,0,4.53,1.72,2.71,2.71,0,0,1,2.21,3c-.14,2.3,1.91,1.09,2.87,1.56.69.34,1.75-.25,1.59-1.53-.22-1.79.88-2.57,2.35-3.13s2.66-1.1,4-1.69,2.41-.87,3.35.59c.47.73,1.27,1,1.86.16s2.94-1.63,1.92-2.81c-2.64-3-.47-5.43.47-8a3,3,0,0,1,3.08-2.23c1.86,0,1.12-1.42,1.22-2.32s.29-1.88-1.31-2c-2.11-.17-5.86-6.78-5.18-8.81a2.22,2.22,0,0,1,.57-1c2-1.72-.25-2.33-.86-3.34-.85-1.39-1.57-.48-2.3.18a2.13,2.13,0,0,1-2.28.7c-2.05-.91-4.37-1.27-6.09-2.91-.4-.38-.85-.65-.77-1.25.28-2.12-1.06-1.94-2.54-2.05-1.72-.13-2.06.55-2,2,.06,1.12-.71,1.77-1.69,2.18-1.47.62-3,1.19-4.38,1.9-1.58.78-3,1-4.29-.49-1-1.17-1.75-.1-2.4.49s-1.65,1.14-.87,2.4c2.35,3.78.48,8.52-3.87,10-1.61.55-.6,1.93-.88,2.91-.21.76.07,1.17,1,1.39,4,1,6.55,6.86,4.53,10.28-1.22,2.06,1.08,2.18,1.66,3.22s1.41.49,2.07-.18C226.07,361.06,226.38,360.23,228,360.62Z" transform="translate(-200 -308)"/><path class="cls-2" d="M260.61,377.87c-.16-5.13,5.45-11,11-10.65,5.28.33,10.67,5.41,10.52,10.88s-5.26,10.84-11,10.67A10.87,10.87,0,0,1,260.61,377.87Zm18-.09a7.19,7.19,0,0,0-7.19-7.75c-3.92-.08-7.63,2.59-7.6,7.26s2.92,7.77,7.44,7.86C275.42,385.23,278.48,382.17,278.56,377.78Z" transform="translate(-200 -308)"/><path class="cls-2" d="M244.75,346.1A8,8,0,0,1,237,354a8.2,8.2,0,0,1-8.15-7.88c-.08-4.15,3.82-8,8.09-7.94A8,8,0,0,1,244.75,346.1Zm-7.92-6.19A6.19,6.19,0,1,0,237,352.3a6.15,6.15,0,0,0,6-6.2A6.06,6.06,0,0,0,236.82,339.92Z" transform="translate(-200 -308)"/></svg>