<svg id="Layer_1" data-name="Layer 1" xmlns="http://www.w3.org/2000/svg" viewBox="0 0 114 114"><defs><style>.cls-1{fill:#fdc408;}.cls-2{fill:#59584e;}</style></defs><title>drink-icon</title><circle class="cls-1" cx="57" cy="57" r="57"/><path class="cls-2" d="M291.88,343.53c-7,7.2-14,14.36-21,21.48-4.15,4.21-8.37,8.36-12.57,12.51a2.21,2.21,0,0,0-.69,1.73c0,5.43,0,10.86,0,16.29,0,1.26.46,1.61,1.6,1.53a23.21,23.21,0,0,0,2.74,0c4.51-.86,7.89,1.44,11.11,4,.78.63,2,.67,2.49,1.93H233.2a63.42,63.42,0,0,0,8-5.66c.67-.53,1.52-.25,2.29-.26,2.09,0,4.19,0,6.28,0,1.12,0,1.64-.25,1.62-1.52-.06-5.43,0-10.86,0-16.29a2.49,2.49,0,0,0-.73-1.93c-5.33-5.34-10.5-10.86-16-16-5.91-5.55-11.52-11.4-17.36-17a2.82,2.82,0,0,1-.33-.48c.41-.57,1-.26,1.44-.26,13.68,0,27.35-.1,41,.06,2.29,0,2.78-1.18,3.13-2.75a12.83,12.83,0,0,1,1-3.55c.6-1.08-.32-1.6-.8-2.14A6.14,6.14,0,0,1,265.42,325a2.4,2.4,0,0,0,1.83-1.75c.14-.51.44-1.13,1-1s1.88.72,1.77,1.17c-.51,2,1.16,2.72,2,3.85,2.83,3.79,1,9-3.66,9.74a2.33,2.33,0,0,0-2.28,2c-1.26,4.44-1.31,4.42,3.24,4.42ZM273,356.07c-3.17,0-6.49.07-9.79,0a1.77,1.77,0,0,0-2.11,1.66c-.88,4.1-2.55,8-3.25,12.14-.1.57,0,1.8-1.37,1.3-.93-.34-1.68-.43-1.42-1.94.66-3.87,1.88-7.58,2.9-11.34.41-1.53.08-1.9-1.45-1.82-2.35.12-4.71,0-7.06,0H235.94c0,.81.55,1,.9,1.37,4.12,4.12,8.42,8.07,12.29,12.4a5.92,5.92,0,0,0,5.41,2.16,12.06,12.06,0,0,1,2,0,2,2,0,0,0,1.75-.65C263.13,366.29,268,361.22,273,356.07Z" transform="translate(-200 -308)"/></svg>