<svg id="Layer_1" data-name="Layer 1" xmlns="http://www.w3.org/2000/svg" viewBox="0 0 1596 1596"><defs><style>.cls-1{fill:#469ec8;}.cls-2{opacity:0.5;}.cls-3,.cls-7{fill:#3e3a31;}.cls-3{opacity:0.61;}.cls-4{fill:#ffb912;}.cls-5{fill:#79280c;}.cls-6{fill:#fff;}</style></defs><polygon class="cls-1" points="81.86 72.04 1521.35 1511.49 81.86 1511.49 81.86 72.04"/><g class="cls-2"><path class="cls-3" d="M1232.54,1240.37c0,56.47-181.89,105.51-409.81,105.51s-415.59-49-415.59-105.51,184.77-102.29,412.7-102.29S1232.54,1183.88,1232.54,1240.37Z"/></g><path class="cls-4" d="M1264.28,1068.82c14.11-14.37,22.06-30.53,22.06-47.62,0-59.77-96.9-108.22-216.45-108.22S853.44,961.43,853.44,1021.2c0,17.09,7.95,33.25,22.06,47.62-14.11,14.37-22.06,30.53-22.06,47.62,0,59.77,96.91,108.22,216.45,108.22s216.45-48.45,216.45-108.22C1286.34,1099.35,1278.39,1083.19,1264.28,1068.82Z"/><path class="cls-5" d="M1065.15,1233.32c-131.09,0-233.77-55.14-233.77-125.54a17.32,17.32,0,0,1,34.64,0c0,43,81.77,90.91,199.13,90.91s199.13-47.91,199.13-90.91a17.32,17.32,0,0,1,34.63,0C1298.91,1178.18,1196.24,1233.32,1065.15,1233.32Z"/><path class="cls-6" d="M1246.53,1013.34c-30,30.25-96.26,55.48-181.38,55.48-82.71,0-147.58-23.82-178.77-52.92q-22.36-.28-44.72-.38c29.1,51.47,116.9,87.93,223.49,87.93,104.52,0,190.91-35.07,221.66-85C1273.4,1016.57,1260,1014.56,1246.53,1013.34Z"/><path class="cls-6" d="M1065.15,1198.69c-131.09,0-216.45-55.14-216.45-125.54a17.32,17.32,0,1,1,34.63,0c0,43,64.46,90.91,181.82,90.91s199.13-47.91,199.13-90.91a17.32,17.32,0,0,1,17.32-17.32c9.56,0,8.66,7.76,8.66,17.32C1290.26,1143.55,1196.24,1198.69,1065.15,1198.69Z"/><path class="cls-4" d="M792.84,822.07c0-59.77-96.91-108.23-216.45-108.23S359.94,762.3,359.94,822.07c0,17.09,7.95,33.24,22.06,47.62-14.11,14.37-22.06,30.53-22.06,47.62,0,18.83,9.63,36.52,26.54,51.94-16.91,15.43-26.54,33.12-26.54,52,0,17.09,7.95,33.25,22.06,47.62-14.11,14.37-22.06,30.53-22.06,47.62,0,59.77,96.91,108.22,216.45,108.22s216.45-48.45,216.45-108.22c0-17.09-8-33.25-22.06-47.62,14.11-14.37,22.06-30.53,22.06-47.62,0-18.83-9.63-36.52-26.54-52,16.91-15.42,26.54-33.11,26.54-51.94,0-17.09-8-33.25-22.06-47.62C784.89,855.31,792.84,839.16,792.84,822.07Z"/><path class="cls-6" d="M571.64,1103.45c-131.08,0-216.44-55.14-216.44-125.54a17.32,17.32,0,0,1,34.63,0c0,43,64.46,90.91,181.81,90.91s199.14-47.91,199.14-90.91a17.31,17.31,0,0,1,17.31-17.31c9.57,0,8.66,7.75,8.66,17.31C796.75,1048.31,702.73,1103.45,571.64,1103.45Z"/><path class="cls-6" d="M571.64,999.56C440.56,999.56,355.2,944.41,355.2,874a17.32,17.32,0,1,1,34.63,0c0,43,64.46,90.91,181.81,90.91S770.78,917,770.78,874a17.31,17.31,0,0,1,17.31-17.32c9.57,0,8.66,7.75,8.66,17.32C796.75,944.41,702.73,999.56,571.64,999.56Z"/><path class="cls-6" d="M571.64,1198.69c-131.08,0-216.44-55.14-216.44-125.54a17.32,17.32,0,1,1,34.63,0c0,43,64.46,90.91,181.81,90.91s199.14-47.91,199.14-90.91a17.32,17.32,0,0,1,17.31-17.32c9.57,0,8.66,7.76,8.66,17.32C796.75,1143.55,702.73,1198.69,571.64,1198.69Z"/><path class="cls-6" d="M571.64,904.32c-131.08,0-216.44-55.14-216.44-125.54a17.32,17.32,0,1,1,34.63,0c0,43,64.46,90.91,181.81,90.91s190.48-47.91,190.48-90.91a17.32,17.32,0,1,1,34.63,0C796.75,849.18,702.73,904.32,571.64,904.32Z"/><path class="cls-5" d="M571.64,1233.32c-131.08,0-233.76-55.14-233.76-125.54a17.32,17.32,0,0,1,34.63,0c0,43,81.78,90.91,199.13,90.91s199.14-47.91,199.14-90.91a17.32,17.32,0,0,1,34.63,0C805.41,1178.18,702.73,1233.32,571.64,1233.32Z"/><path class="cls-7" d="M575.7,1138.08c-128.81,0-229.7-55.14-229.7-125.54a17,17,0,1,1,34,0c0,43,80.35,90.91,195.67,90.91s195.68-47.9,195.68-90.91a17,17,0,1,1,34,0C805.41,1082.94,704.52,1138.08,575.7,1138.08Z"/><path class="cls-7" d="M1068.76,1138.08c-129.07,0-230.16-55.14-230.16-125.54S939.69,887,1068.76,887s230.15,55.15,230.15,125.54S1197.82,1138.08,1068.76,1138.08Zm0-216.44c-115.55,0-196.06,47.9-196.06,90.9s80.51,90.91,196.06,90.91,196-47.9,196-90.91S1184.31,921.64,1068.76,921.64Z"/><path class="cls-7" d="M576.24,1034.19c-128.5,0-229.16-55.14-229.16-125.54a17,17,0,1,1,33.95,0c0,43,80.17,90.91,195.21,90.91s195.22-47.91,195.22-90.91a17,17,0,1,1,33.95,0C805.41,979.05,704.75,1034.19,576.24,1034.19Z"/><path class="cls-7" d="M1069.89,1250.64c-138.2,0-242.42-57.69-242.42-134.2,0-16.48,5-32.64,14.79-47.62-9.74-15-14.79-31.14-14.79-47.62,0-76.51,104.22-134.2,242.42-134.2s242.43,57.69,242.43,134.2c0,16.48-5.06,32.64-14.79,47.62,9.73,15,14.79,31.14,14.79,47.62C1312.32,1193,1208.1,1250.64,1069.89,1250.64Zm0-311.69c-109,0-190.47,43.43-190.47,82.25,0,9.64,4.92,19.54,14.61,29.43a26,26,0,0,1,0,36.39c-9.69,9.88-14.61,19.78-14.61,29.42,0,38.83,81.45,82.25,190.47,82.25s190.48-43.42,190.48-82.25c0-9.64-4.92-19.54-14.62-29.42a26,26,0,0,1,0-36.39c9.7-9.89,14.62-19.79,14.62-29.43C1260.37,982.38,1178.91,939,1069.89,939Z"/><path class="cls-7" d="M576,939c-128.66,0-229.43-55.14-229.43-125.54S447.31,687.87,576,687.87,805.41,743,805.41,813.41,704.63,939,576,939Zm0-216.45c-115.18,0-195.44,47.91-195.44,90.91S460.79,904.32,576,904.32s195.45-47.91,195.45-90.91S691.16,722.5,576,722.5Z"/><path class="cls-7" d="M576.39,1250.64C438.18,1250.64,334,1193,334,1116.44c0-16.48,5.06-32.64,14.79-47.62-9.73-15-14.79-31.14-14.79-47.62,0-18.16,6.07-35.79,17.74-52C340,953.1,334,935.47,334,917.31c0-16.48,5.06-32.64,14.79-47.62C339,854.7,334,838.55,334,822.07c0-76.51,104.22-134.2,242.43-134.2s242.42,57.69,242.42,134.2c0,16.48-5.06,32.63-14.79,47.62,9.73,15,14.79,31.14,14.79,47.62,0,18.16-6.06,35.79-17.74,51.94,11.68,16.16,17.74,33.79,17.74,52,0,16.48-5.06,32.64-14.79,47.62,9.73,15,14.79,31.14,14.79,47.62C818.81,1193,714.59,1250.64,576.39,1250.64Zm0-510.82c-109,0-190.48,43.42-190.48,82.25,0,9.64,4.92,19.54,14.62,29.42a26,26,0,0,1,0,36.39c-9.7,9.89-14.62,19.79-14.62,29.43,0,10.79,6.08,21.82,18.07,32.75a26,26,0,0,1,0,38.39c-12,10.93-18.07,21.95-18.07,32.75,0,9.64,4.92,19.54,14.62,29.43a26,26,0,0,1,0,36.39c-9.7,9.88-14.62,19.78-14.62,29.42,0,38.83,81.46,82.25,190.48,82.25s190.47-43.42,190.47-82.25c0-9.64-4.92-19.54-14.62-29.42a26,26,0,0,1,0-36.39c9.7-9.89,14.62-19.79,14.62-29.43,0-10.8-6.08-21.82-18.07-32.75a26,26,0,0,1,0-38.39c12-10.93,18.07-22,18.07-32.75,0-9.64-4.92-19.54-14.62-29.43a26,26,0,0,1,0-36.39c9.7-9.88,14.62-19.78,14.62-29.42C766.86,783.24,685.41,739.82,576.39,739.82Z"/><path class="cls-7" d="M580.3,809.08a26,26,0,0,1-26-26V506.05a26,26,0,0,1,51.95,0V783.11A26,26,0,0,1,580.3,809.08Z"/><path class="cls-6" d="M793.61,572.18c-72.69,72.7-195.91,67.34-195.91,67.34s-5.34-123.21,67.35-195.91S861,376.27,861,376.27,866.31,499.48,793.61,572.18Z"/><path class="cls-7" d="M603.43,665.58c-4.42,0-6.85-.11-6.85-.11a26,26,0,0,1-24.83-24.82c-.23-5.5-4.92-135.54,74.93-215.4,69.64-69.63,177.25-75,208.57-75,4.42,0,6.83.11,6.83.11a26.05,26.05,0,0,1,24.83,24.82c.23,5.5,4.93,135.55-74.93,215.4C742.35,660.17,634.74,665.58,603.43,665.58ZM834.2,403c-36.45,2.75-105.84,14-150.79,59s-56.32,113.84-59,150.8c36.42-2.74,105.87-14,150.85-59S831.43,440.06,834.2,403Z"/><path class="cls-6" d="M384.31,459.63C311.62,386.93,317,263.71,317,263.71s123.22-5.34,195.91,67.35S580.22,527,580.22,527,457,532.32,384.31,459.63Z"/><path class="cls-7" d="M574.49,553c-31.31,0-138.92-5.41-208.55-75-79.85-79.86-75.16-209.91-74.93-215.4a26,26,0,0,1,24.83-24.82s2.42-.11,6.83-.11c31.32,0,138.93,5.41,208.57,75C611.1,392.55,606.4,522.6,606.17,528.1a26.05,26.05,0,0,1-24.83,24.82S578.91,553,574.49,553ZM343.72,290.47c2.78,37,14.11,106,58.95,150.79s114.35,56.21,150.79,59c-2.78-37-14.11-106-59-150.8S380.17,293.21,343.72,290.47Z"/></svg>