<?xml version="1.0" encoding="utf-8"?>
<!-- Generator: Adobe Illustrator 25.2.2, SVG Export Plug-In . SVG Version: 6.00 Build 0)  -->
<svg version="1.1" id="Layer_1" xmlns="http://www.w3.org/2000/svg" xmlns:xlink="http://www.w3.org/1999/xlink" x="0px" y="0px"
	 viewBox="0 0 1596 1596" style="enable-background:new 0 0 1596 1596;" xml:space="preserve">
<style type="text/css">
	.st0{fill:#13A7E0;}
	.st1{opacity:0.5;}
	.st2{opacity:0.61;fill:#3E3A31;enable-background:new    ;}
	.st3{fill:#FFB912;}
	.st4{fill:#79280C;}
	.st5{fill:#FFFFFF;}
	.st6{fill:#3E3A31;}
</style>
<polygon class="st0" points="86.6,86.7 1510.2,1510.3 86.6,1510.3 "/>
<g class="st1">
	<path class="st2" d="M1216.8,1265.5c0,55.8-179.9,104.3-405.3,104.3s-411-48.5-411-104.3s182.7-101.2,408.2-101.2
		S1216.8,1209.7,1216.8,1265.5z"/>
</g>
<path class="st3" d="M1248.2,1095.9c14-14.2,21.8-30.2,21.8-47.1c0-59.1-95.8-107-214.1-107s-214.1,47.9-214.1,107
	c0,16.9,7.9,32.9,21.8,47.1c-14,14.2-21.8,30.2-21.8,47.1c0,59.1,95.8,107,214.1,107s214-47.9,214-107
	C1270,1126.1,1262.2,1110.1,1248.2,1095.9z"/>
<path class="st4" d="M1051.3,1258.6c-129.7,0-231.2-54.5-231.2-124.2c0.2-9.5,8.1-16.9,17.5-16.7c9.1,0.2,16.5,7.6,16.7,16.7
	c0,42.5,80.9,89.9,196.9,89.9s196.9-47.4,196.9-89.9c0.2-9.5,8.1-16.9,17.5-16.7c9.1,0.2,16.5,7.6,16.7,16.7
	C1282.5,1204,1180.9,1258.6,1051.3,1258.6z"/>
<path class="st5" d="M1230.7,1041c-29.7,29.9-95.2,54.9-179.4,54.9c-81.8,0-146-23.6-176.8-52.3c-14.7-0.2-29.5-0.3-44.2-0.4
	c28.8,50.9,115.6,87,221,87c103.4,0,188.8-34.7,219.2-84C1257.2,1044.2,1244,1042.2,1230.7,1041z"/>
<path class="st5" d="M1051.3,1224.3c-129.7,0-214.1-54.5-214.1-124.2c0.2-9.5,8.1-16.9,17.5-16.7c9.1,0.2,16.5,7.6,16.7,16.7
	c0,42.5,63.8,89.9,179.8,89.9s196.9-47.4,196.9-89.9c0-9.5,7.7-17.1,17.1-17.1c0,0,0,0,0,0c9.4,0,8.6,7.7,8.6,17.1
	C1273.9,1169.8,1180.9,1224.3,1051.3,1224.3z"/>
<path class="st3" d="M782,851.8c0-59.1-95.8-107-214.1-107s-214.1,47.9-214.1,107c0,16.9,7.9,32.9,21.8,47.1
	c-14,14.2-21.8,30.2-21.8,47.1c0,18.6,9.5,36.1,26.2,51.4c-16.7,15.2-26.2,32.8-26.2,51.4c0,16.9,7.9,32.9,21.8,47.1
	c-14,14.2-21.8,30.2-21.8,47.1c0,59.1,95.8,107,214.1,107S782,1202.1,782,1143c0-16.9-7.9-32.9-21.8-47.1
	c14-14.2,21.8-30.2,21.8-47.1c0-18.6-9.5-36.1-26.2-51.4c16.7-15.3,26.2-32.8,26.2-51.4c0-16.9-7.9-32.9-21.8-47.1
	C774.1,884.7,782,868.7,782,851.8z"/>
<path class="st5" d="M563.2,1130.1c-129.6,0-214.1-54.5-214.1-124.2c0.2-9.5,8.1-16.9,17.5-16.7c9.1,0.2,16.5,7.6,16.7,16.7
	c0,42.5,63.8,89.9,179.8,89.9s196.9-47.4,196.9-89.9c0-9.5,7.7-17.1,17.1-17.1c9.5,0,8.6,7.7,8.6,17.1
	C785.8,1075.6,692.8,1130.1,563.2,1130.1z"/>
<path class="st5" d="M563.2,1027.4c-129.6,0-214.1-54.5-214.1-124.2c-0.2-9.5,7.3-17.3,16.7-17.5c9.5-0.2,17.3,7.3,17.5,16.7
	c0,0.3,0,0.6,0,0.8c0,42.5,63.8,89.9,179.8,89.9s196.9-47.4,196.9-89.9c0-9.5,7.7-17.1,17.1-17.1c9.5,0,8.6,7.7,8.6,17.1
	C785.8,972.8,692.8,1027.4,563.2,1027.4z"/>
<path class="st5" d="M563.2,1224.3c-129.6,0-214.1-54.5-214.1-124.2c0.2-9.5,8.1-16.9,17.5-16.7c9.1,0.2,16.5,7.6,16.7,16.7
	c0,42.5,63.8,89.9,179.8,89.9s196.9-47.4,196.9-89.9c0-9.5,7.6-17.1,17.1-17.2c0,0,0,0,0,0c9.5,0,8.6,7.7,8.6,17.1
	C785.8,1169.8,692.8,1224.3,563.2,1224.3z"/>
<path class="st5" d="M563.2,933.2c-129.6,0-214.1-54.5-214.1-124.2c-0.2-9.5,7.3-17.3,16.7-17.5c9.5-0.2,17.3,7.3,17.5,16.7
	c0,0.3,0,0.6,0,0.8c0,42.5,63.8,89.9,179.8,89.9s188.4-47.4,188.4-89.9c0-9.5,7.7-17.1,17.1-17.1s17.1,7.7,17.1,17.1
	C785.8,878.7,692.8,933.2,563.2,933.2z"/>
<path class="st4" d="M563.2,1258.6c-129.6,0-231.2-54.5-231.2-124.2c0.2-9.5,8.1-16.9,17.5-16.7c9.1,0.2,16.5,7.6,16.7,16.7
	c0,42.5,80.9,89.9,197,89.9s196.9-47.4,196.9-89.9c0.2-9.5,8.1-16.9,17.5-16.7c9.1,0.2,16.5,7.6,16.7,16.7
	C794.4,1204,692.8,1258.6,563.2,1258.6z"/>
<path class="st6" d="M567.2,1164.4c-127.4,0-227.2-54.5-227.2-124.2c0-9.3,7.5-16.8,16.8-16.8c9.3,0,16.8,7.5,16.8,16.8
	c0,42.5,79.5,89.9,193.5,89.9s193.5-47.4,193.5-89.9c0-9.3,7.5-16.8,16.8-16.9c9.3,0,16.8,7.5,16.9,16.8c0,0,0,0,0,0
	C794.4,1109.8,694.6,1164.4,567.2,1164.4z"/>
<path class="st6" d="M1054.8,1164.4c-127.7,0-227.6-54.5-227.6-124.2s100-124.2,227.6-124.2s227.6,54.5,227.6,124.2
	S1182.5,1164.4,1054.8,1164.4z M1054.8,950.3c-114.3,0-193.9,47.4-193.9,89.9c0,42.5,79.6,89.9,193.9,89.9s193.9-47.4,193.9-89.9
	S1169.1,950.3,1054.8,950.3z"/>
<path class="st6" d="M567.8,1061.6c-127.1,0-226.6-54.5-226.6-124.2c-0.2-9.3,7.1-17,16.4-17.2c9.3-0.2,17,7.1,17.2,16.4
	c0,0.3,0,0.5,0,0.8c0,42.5,79.3,89.9,193.1,89.9s193.1-47.4,193.1-89.9c0-9.3,7.5-16.8,16.8-16.8c9.3,0,16.8,7.5,16.8,16.8
	C794.4,1007.1,694.8,1061.6,567.8,1061.6z"/>
<path class="st6" d="M1056,1275.7c-136.7,0-239.8-57.1-239.8-132.7c0-16.3,5-32.3,14.6-47.1c-9.6-14.8-14.6-30.8-14.6-47.1
	c0-75.7,103.1-132.7,239.8-132.7s239.8,57.1,239.8,132.7c0,16.3-5,32.3-14.6,47.1c9.6,14.8,14.6,30.8,14.6,47.1
	C1295.7,1218.6,1192.7,1275.7,1056,1275.7z M1056,967.4c-107.8,0-188.4,43-188.4,81.3c0,9.5,4.9,19.3,14.5,29.1c9.8,10,9.8,26,0,36
	c-9.6,9.8-14.5,19.6-14.5,29.1c0,38.4,80.6,81.3,188.4,81.3s188.4-43,188.4-81.3c0-9.5-4.9-19.3-14.5-29.1c-9.8-10-9.8-26,0-36
	c9.6-9.8,14.5-19.6,14.5-29.1C1244.3,1010.4,1163.8,967.4,1056,967.4L1056,967.4z"/>
<path class="st6" d="M567.5,967.4c-127.2,0-226.9-54.5-226.9-124.2s99.7-124.2,226.9-124.2s226.9,54.5,226.9,124.2
	S694.7,967.4,567.5,967.4z M567.5,753.4c-113.9,0-193.3,47.4-193.3,89.9s79.4,89.9,193.3,89.9s193.3-47.4,193.3-89.9
	S681.4,753.4,567.5,753.4z"/>
<path class="st6" d="M567.9,1275.7c-136.7,0-239.8-57.1-239.8-132.7c0-16.3,5-32.3,14.6-47.1c-9.6-14.8-14.6-30.8-14.6-47.1
	c0-18,6-35.4,17.5-51.4c-11.5-16-17.5-33.4-17.5-51.4c0-16.3,5-32.3,14.6-47.1c-9.6-14.8-14.6-30.8-14.6-47.1
	c0-75.7,103.1-132.7,239.8-132.7s239.8,57,239.8,132.7c0,16.3-5,32.3-14.6,47.1c9.6,14.8,14.6,30.8,14.6,47.1c0,18-6,35.4-17.5,51.4
	c11.5,16,17.5,33.4,17.5,51.4c0,16.3-5,32.3-14.6,47.1c9.6,14.8,14.6,30.8,14.6,47.1C807.7,1218.6,704.6,1275.7,567.9,1275.7z
	 M567.9,770.5c-107.8,0-188.4,42.9-188.4,81.3c0,9.5,4.9,19.3,14.5,29.1c9.8,10,9.8,26,0,36c-9.6,9.8-14.5,19.6-14.5,29.1
	c0,10.7,6,21.6,17.9,32.4c10.5,9.5,11.3,25.8,1.7,36.3c-0.5,0.6-1.1,1.2-1.7,1.7c-11.9,10.8-17.9,21.7-17.9,32.4
	c0,9.5,4.9,19.3,14.5,29.1c9.8,10,9.8,26,0,36c-9.6,9.8-14.5,19.6-14.5,29.1c0,38.4,80.6,81.3,188.4,81.3s188.4-43,188.4-81.3
	c0-9.5-4.9-19.3-14.5-29.1c-9.8-10-9.8-26,0-36c9.6-9.8,14.5-19.6,14.5-29.1c0-10.7-6-21.6-17.9-32.4c-10.5-9.5-11.3-25.8-1.7-36.3
	c0.5-0.6,1.1-1.2,1.7-1.7c11.8-10.8,17.9-21.7,17.9-32.4c0-9.5-4.9-19.3-14.5-29.1c-9.8-10-9.8-26,0-36c9.6-9.8,14.5-19.6,14.5-29.1
	C756.3,813.4,675.7,770.5,567.9,770.5L567.9,770.5z"/>
<path class="st6" d="M571.8,839c-14.2,0-25.7-11.5-25.7-25.7l0,0v-274c0-14.2,11.5-25.7,25.7-25.7s25.7,11.5,25.7,25.7v274
	C597.5,827.5,586,839,571.8,839L571.8,839z"/>
<path class="st5" d="M782.7,604.7C710.8,676.6,589,671.3,589,671.3s-5.3-121.9,66.6-193.8S849.3,411,849.3,411
	S854.6,532.8,782.7,604.7z"/>
<path class="st6" d="M594.6,697.1c-4.4,0-6.8-0.1-6.8-0.1c-13.3-0.6-23.9-11.3-24.5-24.5c-0.2-5.4-4.9-134,74.1-213
	c68.9-68.9,175.3-74.2,206.3-74.2c4.4,0,6.8,0.1,6.8,0.1c13.3,0.6,23.9,11.2,24.5,24.5c0.2,5.4,4.9,134.1-74.1,213
	C732,691.7,625.6,697.1,594.6,697.1z M822.9,437.4c-36,2.7-104.7,13.9-149.1,58.3S618,608.3,615.4,644.9
	c36-2.7,104.7-13.8,149.2-58.3C808.9,542.2,820.1,474,822.9,437.4z"/>
<path class="st5" d="M377.9,493.4c-71.9-71.9-66.6-193.8-66.6-193.8s121.9-5.3,193.8,66.6S571.7,560,571.7,560
	S449.8,565.3,377.9,493.4z"/>
<path class="st6" d="M566,585.8c-31,0-137.4-5.3-206.2-74.2c-79-79-74.3-207.6-74.1-213c0.6-13.3,11.3-24,24.6-24.6
	c0,0,2.4-0.1,6.8-0.1c31,0,137.4,5.4,206.3,74.2c79,79,74.3,207.6,74.1,213c-0.6,13.3-11.3,23.9-24.5,24.5
	C572.8,585.6,570.4,585.8,566,585.8z M337.8,326.1c2.8,36.6,14,104.8,58.3,149.1s113.1,55.6,149.1,58.3
	c-2.7-36.6-14-104.8-58.3-149.1S373.8,328.8,337.8,326.1z"/>
</svg>
