<svg id="Layer_1" data-name="Layer 1" xmlns="http://www.w3.org/2000/svg" viewBox="0 0 1596 1596"><defs><style>.cls-1{fill:#ffc012;}.cls-2{opacity:0.5;}.cls-3,.cls-7{fill:#3e3a31;}.cls-3{opacity:0.61;}.cls-4{fill:#ffb912;}.cls-5{fill:#79280c;}.cls-6{fill:#fff;}</style></defs><polygon class="cls-1" points="86.55 86.71 1510.2 1510.33 86.55 1510.33 86.55 86.71"/><g class="cls-2"><path class="cls-3" d="M1216.83,1265.54c0,55.85-179.89,104.35-405.31,104.35s-411-48.5-411-104.35,182.74-101.16,408.16-101.16S1216.83,1209.67,1216.83,1265.54Z"/></g><path class="cls-4" d="M1248.22,1095.88c14-14.22,21.82-30.2,21.82-47.1,0-59.11-95.84-107-214.07-107s-214.07,47.92-214.07,107c0,16.9,7.86,32.88,21.82,47.1-14,14.21-21.82,30.19-21.82,47.09,0,59.11,95.85,107,214.07,107S1270,1202.08,1270,1143C1270,1126.07,1262.18,1110.09,1248.22,1095.88Z"/><path class="cls-5" d="M1051.28,1258.57c-129.65,0-231.19-54.54-231.19-124.16a17.13,17.13,0,0,1,34.25,0c0,42.53,80.87,89.91,196.94,89.91s196.94-47.38,196.94-89.91a17.13,17.13,0,0,1,34.25,0C1282.47,1204,1180.92,1258.57,1051.28,1258.57Z"/><path class="cls-6" d="M1230.67,1041c-29.73,29.92-95.21,54.87-179.39,54.87-81.8,0-146-23.56-176.81-52.34q-22.11-.27-44.22-.37c28.78,50.9,115.61,87,221,87,103.37,0,188.81-34.69,219.23-84C1257.24,1044.2,1244,1042.22,1230.67,1041Z"/><path class="cls-6" d="M1051.28,1224.32c-129.65,0-214.07-54.54-214.07-124.16a17.13,17.13,0,0,1,34.25,0c0,42.53,63.75,89.91,179.82,89.91s196.94-47.38,196.94-89.91a17.12,17.12,0,0,1,17.13-17.12c9.45,0,8.56,7.66,8.56,17.12C1273.91,1169.78,1180.92,1224.32,1051.28,1224.32Z"/><path class="cls-4" d="M782,851.84c0-59.11-95.83-107-214.06-107s-214.07,47.92-214.07,107c0,16.9,7.86,32.88,21.82,47.1-14,14.21-21.82,30.19-21.82,47.09,0,18.62,9.52,36.13,26.25,51.38-16.73,15.25-26.25,32.75-26.25,51.37,0,16.9,7.86,32.88,21.82,47.1-14,14.21-21.82,30.19-21.82,47.09,0,59.11,95.84,107,214.07,107S782,1202.08,782,1143c0-16.9-7.86-32.88-21.81-47.09,14-14.22,21.81-30.2,21.81-47.1,0-18.62-9.52-36.12-26.24-51.37C772.44,982.16,782,964.65,782,946c0-16.9-7.86-32.88-21.81-47.09C774.1,884.72,782,868.74,782,851.84Z"/><path class="cls-6" d="M563.21,1130.13c-129.65,0-214.07-54.54-214.07-124.16a17.13,17.13,0,0,1,34.25,0c0,42.53,63.75,89.91,179.82,89.91S760.15,1048.5,760.15,1006a17.12,17.12,0,0,1,17.12-17.12c9.46,0,8.57,7.66,8.57,17.12C785.84,1075.59,692.85,1130.13,563.21,1130.13Z"/><path class="cls-6" d="M563.21,1027.38c-129.65,0-214.07-54.54-214.07-124.16a17.13,17.13,0,1,1,34.25,0c0,42.53,63.75,89.91,179.82,89.91s196.94-47.38,196.94-89.91a17.13,17.13,0,0,1,17.12-17.13c9.46,0,8.57,7.67,8.57,17.13C785.84,972.84,692.85,1027.38,563.21,1027.38Z"/><path class="cls-6" d="M563.21,1224.32c-129.65,0-214.07-54.54-214.07-124.16a17.13,17.13,0,0,1,34.25,0c0,42.53,63.75,89.91,179.82,89.91s196.94-47.38,196.94-89.91A17.12,17.12,0,0,1,777.27,1083c9.46,0,8.57,7.66,8.57,17.12C785.84,1169.78,692.85,1224.32,563.21,1224.32Z"/><path class="cls-6" d="M563.21,933.19c-129.65,0-214.07-54.54-214.07-124.16a17.13,17.13,0,1,1,34.25,0c0,42.53,63.75,89.91,179.82,89.91S751.58,851.56,751.58,809a17.13,17.13,0,0,1,34.26,0C785.84,878.65,692.85,933.19,563.21,933.19Z"/><path class="cls-5" d="M563.21,1258.57c-129.65,0-231.2-54.54-231.2-124.16a17.13,17.13,0,0,1,34.25,0c0,42.53,80.88,89.91,197,89.91s196.94-47.38,196.94-89.91a17.13,17.13,0,0,1,34.25,0C794.4,1204,692.85,1258.57,563.21,1258.57Z"/><path class="cls-7" d="M567.22,1164.38c-127.4,0-227.18-54.54-227.18-124.16a16.83,16.83,0,1,1,33.66,0c0,42.53,79.47,89.91,193.52,89.91s193.52-47.38,193.52-89.91a16.83,16.83,0,1,1,33.66,0C794.4,1109.84,694.61,1164.38,567.22,1164.38Z"/><path class="cls-7" d="M1054.85,1164.38c-127.65,0-227.62-54.54-227.62-124.16s100-124.16,227.62-124.16,227.62,54.54,227.62,124.16S1182.5,1164.38,1054.85,1164.38Zm0-214.07c-114.28,0-193.9,47.38-193.9,89.91s79.62,89.91,193.9,89.91,193.9-47.38,193.9-89.91S1169.13,950.31,1054.85,950.31Z"/><path class="cls-7" d="M567.75,1061.63c-127.09,0-226.64-54.54-226.64-124.16a16.79,16.79,0,1,1,33.57,0c0,42.53,79.29,89.91,193.07,89.91S760.82,980,760.82,937.47a16.79,16.79,0,1,1,33.58,0C794.4,1007.09,694.85,1061.63,567.75,1061.63Z"/><path class="cls-7" d="M1056,1275.7c-136.68,0-239.75-57.06-239.75-132.73,0-16.29,5-32.27,14.62-47.09-9.63-14.82-14.62-30.8-14.62-47.1,0-75.66,103.07-132.72,239.75-132.72s239.76,57.06,239.76,132.72c0,16.3-5,32.28-14.63,47.1,9.63,14.82,14.63,30.8,14.63,47.09C1295.73,1218.64,1192.66,1275.7,1056,1275.7Zm0-308.26c-107.82,0-188.38,42.95-188.38,81.34,0,9.54,4.87,19.33,14.46,29.1a25.68,25.68,0,0,1,0,36c-9.59,9.78-14.46,19.57-14.46,29.1,0,38.4,80.56,81.35,188.38,81.35s188.38-43,188.38-81.35c0-9.53-4.87-19.32-14.46-29.1a25.68,25.68,0,0,1,0-36c9.59-9.77,14.46-19.56,14.46-29.1C1244.35,1010.39,1163.79,967.44,1056,967.44Z"/><path class="cls-7" d="M567.49,967.44c-127.25,0-226.92-54.54-226.92-124.16s99.67-124.16,226.92-124.16S794.4,773.66,794.4,843.28,694.73,967.44,567.49,967.44Zm0-214.07c-113.92,0-193.3,47.38-193.3,89.91s79.38,89.91,193.3,89.91,193.29-47.38,193.29-89.91S681.4,753.37,567.49,753.37Z"/><path class="cls-7" d="M567.9,1275.7c-136.69,0-239.76-57.06-239.76-132.73,0-16.29,5-32.27,14.63-47.09-9.63-14.82-14.63-30.8-14.63-47.1,0-18,6-35.39,17.54-51.37-11.54-16-17.54-33.42-17.54-51.38,0-16.3,5-32.28,14.63-47.09-9.63-14.82-14.63-30.8-14.63-47.1,0-75.67,103.07-132.72,239.76-132.72s239.75,57,239.75,132.72c0,16.3-5,32.28-14.62,47.1,9.62,14.81,14.62,30.79,14.62,47.09,0,18-6,35.4-17.54,51.38,11.55,16,17.54,33.41,17.54,51.37,0,16.3-5,32.28-14.62,47.1,9.62,14.82,14.62,30.8,14.62,47.09C807.65,1218.64,704.58,1275.7,567.9,1275.7Zm0-505.2c-107.82,0-188.38,42.94-188.38,81.34,0,9.53,4.86,19.33,14.45,29.1a25.68,25.68,0,0,1,0,36c-9.59,9.78-14.45,19.57-14.45,29.1,0,10.68,6,21.58,17.87,32.4a25.68,25.68,0,0,1,0,38c-11.86,10.81-17.87,21.72-17.87,32.39,0,9.54,4.86,19.33,14.45,29.1a25.68,25.68,0,0,1,0,36c-9.59,9.78-14.45,19.57-14.45,29.1,0,38.4,80.56,81.35,188.38,81.35s188.38-43,188.38-81.35c0-9.53-4.87-19.32-14.46-29.1a25.68,25.68,0,0,1,0-36c9.59-9.77,14.46-19.56,14.46-29.1,0-10.67-6-21.58-17.87-32.39a25.68,25.68,0,0,1,0-38c11.85-10.82,17.87-21.72,17.87-32.4,0-9.53-4.87-19.32-14.46-29.1a25.68,25.68,0,0,1,0-36c9.59-9.77,14.46-19.57,14.46-29.1C756.28,813.44,675.72,770.5,567.9,770.5Z"/><path class="cls-7" d="M571.77,839a25.69,25.69,0,0,1-25.69-25.69v-274a25.69,25.69,0,0,1,51.38,0v274A25.69,25.69,0,0,1,571.77,839Z"/><path class="cls-6" d="M782.73,604.7C710.84,676.6,589,671.31,589,671.31s-5.29-121.86,66.6-193.76S849.34,411,849.34,411,854.63,532.81,782.73,604.7Z"/><path class="cls-7" d="M594.64,697.08c-4.38,0-6.78-.11-6.78-.11a25.76,25.76,0,0,1-24.55-24.55c-.23-5.44-4.86-134,74.11-213,68.87-68.86,175.29-74.22,206.27-74.22,4.37,0,6.76.11,6.76.11A25.76,25.76,0,0,1,875,409.83c.23,5.44,4.87,134.06-74.1,213C732,691.73,625.61,697.08,594.64,697.08ZM822.87,437.4c-36,2.72-104.67,13.87-149.13,58.31S618,608.31,615.38,644.86c36-2.71,104.7-13.84,149.19-58.32C808.91,542.2,820.13,474,822.87,437.4Z"/><path class="cls-6" d="M377.93,493.39c-71.89-71.9-66.61-193.76-66.61-193.76s121.86-5.28,193.76,66.6S571.68,560,571.68,560,449.82,565.28,377.93,493.39Z"/><path class="cls-7" d="M566,585.76c-31,0-137.39-5.35-206.25-74.21-79-79-74.34-207.6-74.11-213A25.75,25.75,0,0,1,310.21,274s2.4-.11,6.76-.11c31,0,137.4,5.35,206.27,74.21,79,79,74.34,207.6,74.11,213a25.75,25.75,0,0,1-24.55,24.55S570.39,585.76,566,585.76ZM337.79,326.09c2.75,36.62,14,104.78,58.3,149.14s113.09,55.59,149.13,58.3c-2.74-36.61-14-104.78-58.3-149.13S373.84,328.81,337.79,326.09Z"/></svg>