<svg id="Layer_1" data-name="Layer 1" xmlns="http://www.w3.org/2000/svg" viewBox="0 0 114 114"><defs><style>.cls-1{fill:#fdc408;}.cls-2{fill:#59584e;}</style></defs><title>graph-icon</title><circle class="cls-1" cx="57" cy="57" r="57"/><path class="cls-2" d="M224.1,362.24c0-10.92.1-21.84-.07-32.76,0-2.68,1.47-2.06,2.94-2.17,1.64-.13,2.49.06,2.48,2.18-.1,20,0,40-.11,60,0,2,.59,2.31,2.37,2.3q29.67-.08,59.35,0c.85,0,2.22-.52,2.47.51a10.75,10.75,0,0,1,0,4.4c-.14.74-1.25.39-1.91.39q-15.32,0-30.63,0c-11.63,0-23.26,0-34.89,0-1.72,0-2.09-.51-2.08-2.14.07-10.92,0-21.84,0-32.76Z" transform="translate(-200 -307)"/><path class="cls-2" d="M293.45,350.54a15.33,15.33,0,0,1-3-2.85c-.81-.93-1.5-1.73-2.75-.21-2.32,2.82-4.86,5.47-7.36,8.14s-4.27,5.71-6.94,8.15a43.1,43.1,0,0,0-4.65,5.54c-.71.91-1.44,1.46-2.46.63Q260.26,365,254.26,360c-1-.8-1.78-.79-2.41.29-1.93,3.34-4.83,5.95-7,9.1-1.68,2.48-3.69,4.69-5.38,7.15a48.27,48.27,0,0,1-4.94,6c-.67.7-.56,1.93-1.67,2.27-1.35-3.52.66-5.93,2.57-8.41,4.51-5.88,9-11.81,13.45-17.72a13.75,13.75,0,0,0,1.79-2.27c1.28-2.6,2.62-2.65,4.76-.75a88.37,88.37,0,0,0,6.9,5.74,19.73,19.73,0,0,1,3.17,2.83c1.28,1.45,2.27,1.42,3.44,0,3.46-4.23,7-8.43,10.69-12.43,2-2.18,3.81-4.6,5.93-6.72a1.43,1.43,0,0,0-.1-2.36,18.6,18.6,0,0,1-3.36-3.88h10.45c.61,0,.87.37.87,1C293.45,343.26,293.45,346.7,293.45,350.54Z" transform="translate(-200 -307)"/></svg>