<svg id="Layer_1" data-name="Layer 1" xmlns="http://www.w3.org/2000/svg" viewBox="0 0 382.68 382.68"><defs><style>.cls-1{fill:#fdc408;}.cls-2,.cls-4,.cls-5{fill:#59594f;}.cls-2{opacity:0.5;}.cls-3{fill:#fff;}.cls-5{opacity:0.2;}.cls-6{fill:#59584e;stroke:#59584e;stroke-miterlimit:10;stroke-width:4.83px;}</style></defs><title>NEW ICONS</title><polygon class="cls-1" points="19.39 19.39 363.29 363.29 19.39 363.29 19.39 19.39"/><path class="cls-2" d="M267.26,294c0,10.34-33.8,18.71-75.49,18.71s-75.5-8.37-75.5-18.71,33.8-18.7,75.5-18.7S267.26,283.68,267.26,294Z"/><path class="cls-3" d="M203.49,111.22,192.91,121.8l-10.58-10.58a61.53,61.53,0,0,0-87,87l10.58,10.58,87,87,87-87,10.58-10.58a61.53,61.53,0,0,0-87-87Z"/><path class="cls-4" d="M192.91,303.06a7.19,7.19,0,0,1-5.12-2.12L90.2,203.35a68.77,68.77,0,1,1,97.25-97.25l5.46,5.45,5.46-5.45a68.77,68.77,0,1,1,97.25,97.25L198,300.94A7.17,7.17,0,0,1,192.91,303.06ZM138.82,100.44a54.28,54.28,0,0,0-38.38,92.66l92.47,92.48,92.47-92.48a54.28,54.28,0,1,0-76.76-76.76L198,126.92a7.24,7.24,0,0,1-10.24,0l-10.58-10.58A54,54,0,0,0,138.82,100.44Z"/><path class="cls-5" d="M192.91,286.39a7.19,7.19,0,0,1-5.12-2.12L101.72,198.2,92.35,194a7.25,7.25,0,0,1,5.94-13.22l10.58,4.76A7.09,7.09,0,0,1,111,187l81.89,81.88L274.8,187a6.8,6.8,0,0,1,1.05-.88L286.44,179a7.24,7.24,0,0,1,8.13,12l-10,6.79L198,284.27A7.17,7.17,0,0,1,192.91,286.39Z"/><path class="cls-6" d="M195,235.45a4.72,4.72,0,0,1-4.54-3.08L163,156.45l-14.36,30.43a4.75,4.75,0,0,1-4.37,2.68H50.06a4.83,4.83,0,0,1,0-9.66h91.12l18-38.16a4.64,4.64,0,0,1,4.59-2.71,4.86,4.86,0,0,1,4.32,3.21l26.81,74.26L217,154.36a4.83,4.83,0,0,1,4.35-3.2,4.73,4.73,0,0,1,4.6,2.71l10.79,23.62h95.9a4.83,4.83,0,0,1,0,9.66h-99a4.74,4.74,0,0,1-4.4-2.72l-7.12-15.62-22.57,63.51a4.74,4.74,0,0,1-4.53,3.13Z"/></svg>