<svg id="Layer_1" data-name="Layer 1" xmlns="http://www.w3.org/2000/svg" viewBox="0 0 1917.33 510.52"><defs><style>.cls-1{fill:#ffffff;}</style></defs><title>hlb-2018-logo</title><path class="cls-1" d="M450.23,499.55l-2.11-.27c8.47-5.56,15.36-14.14,15.36-29v-.39c0-9.48-2.9-17.18-8.71-23.5-7.25-7.9-18.68-12.25-33.19-12.25H392.89L362.64,457.8v114.8H428.5c31.25,0,51.82-12.66,51.82-38v-.4C480.32,515.65,468.07,501.82,450.23,499.55Zm-60.39-38.73h27.57c11.79,0,18.32,5.14,18.32,14.22v.4c0,10.27-7.8,14.62-20.13,14.62H389.84Zm60.21,70c0,10.28-8.11,15-21.56,15H392.31V515.45h35.2c15.62,0,22.55,5.74,22.55,15Z" transform="translate(-47.67 -247.91)"/><path class="cls-1" d="M129.55,434.16H160v54.78h56.17V434.16h30.46V548.43l-30.46,24.17V517H160v55.58H129.55Z" transform="translate(-47.67 -247.91)"/><path class="cls-1" d="M264.7,434.16h30.46V544.92h53v27.69H264.7Z" transform="translate(-47.67 -247.91)"/><path class="cls-1" d="M504.63,346.51h0c-46.79-60-119.71-98.6-201.49-98.6-140.87,0-255.47,114.6-255.47,255.47a254.84,254.84,0,0,0,9.47,69h36.8a219.39,219.39,0,0,1-11.07-69c0-121.46,98.82-220.28,220.28-220.28a220,220,0,0,1,173.78,85.07h0A219.16,219.16,0,0,1,523.09,503c0,121.46-98.82,220.28-220.28,220.28a220,220,0,0,1-172.9-84l-27.72,21.66c46.82,59.33,119.35,97.49,200.63,97.49,140.87,0,255.47-114.6,255.47-255.47A254.18,254.18,0,0,0,504.63,346.51Z" transform="translate(-47.67 -247.91)"/><path class="cls-1" d="M93.93,572.35H57.13l.14.52H94.1Z" transform="translate(-47.67 -247.91)"/><path class="cls-1" d="M129.91,639.3,102.19,661l.32.41,27.72-21.66Z" transform="translate(-47.67 -247.91)"/><path class="cls-1" d="M613.39,447.86H594.87V435.51h50.44v12.35H626.79v48.53H613.39Z" transform="translate(-47.67 -247.91)"/><path class="cls-1" d="M656.43,435.51h13.39V459.6h24.7V435.51h13.39v60.88H694.52V472h-24.7v24.44H656.43Z" transform="translate(-47.67 -247.91)"/><path class="cls-1" d="M723.39,435.51h45.92v11.91H736.69v12.35h28.7v11.92h-28.7v12.78h33v11.91H723.39Z" transform="translate(-47.67 -247.91)"/><path class="cls-1" d="M806.77,466.13V466c0-17.31,13.48-31.48,31.92-31.48,11,0,17.57,3,23.92,8.35L854.17,453c-4.69-3.91-8.87-6.17-15.92-6.17-9.74,0-17.48,8.61-17.48,19V466c0,11.13,7.65,19.31,18.44,19.31a21.36,21.36,0,0,0,12.61-3.65v-8.7H838.34V461.34h26.44v26.44a39.51,39.51,0,0,1-26,9.65C819.82,497.44,806.77,484.13,806.77,466.13Z" transform="translate(-47.67 -247.91)"/><path class="cls-1" d="M878.51,435.51H891.9v48.7h30.35v12.18H878.51Z" transform="translate(-47.67 -247.91)"/><path class="cls-1" d="M927,466.13V466c0-17.31,13.65-31.48,32.44-31.48s32.26,14,32.26,31.31V466c0,17.31-13.65,31.48-32.44,31.48S927,483.43,927,466.13Zm50.7,0V466c0-10.44-7.65-19.13-18.44-19.13s-18.26,8.52-18.26,19V466c0,10.43,7.65,19.13,18.44,19.13S977.73,476.56,977.73,466.13Z" transform="translate(-47.67 -247.91)"/><path class="cls-1" d="M1004.5,435.51h28.26c7,0,12.44,1.91,15.92,5.39a14,14,0,0,1,4.18,10.35v.17c0,6.87-3.65,10.7-8,13.13,7,2.7,11.39,6.79,11.39,15v.17c0,11.13-9,16.7-22.79,16.7h-29Zm35,18c0-4-3.13-6.26-8.78-6.26h-13.22v12.87h12.35c5.91,0,9.65-1.91,9.65-6.44ZM1033,471.26h-15.48v13.39h15.92c5.91,0,9.48-2.09,9.48-6.61v-.17C1042.94,473.78,1039.9,471.26,1033,471.26Z" transform="translate(-47.67 -247.91)"/><path class="cls-1" d="M1089,435.08h12.35l26.09,61.31h-14l-5.57-13.65h-25.74l-5.57,13.65h-13.66Zm14.09,35.83L1095,451.17l-8.09,19.74Z" transform="translate(-47.67 -247.91)"/><path class="cls-1" d="M1137.71,435.51h13.39v48.7h30.35v12.18h-43.75Z" transform="translate(-47.67 -247.91)"/><path class="cls-1" d="M1240.23,435.08h12.35l26.09,61.31h-14l-5.57-13.65h-25.74l-5.57,13.65h-13.66Zm14.09,35.83-8.09-19.74-8.09,19.74Z" transform="translate(-47.67 -247.91)"/><path class="cls-1" d="M1288.92,435.51h23.74c19.13,0,32.35,13.13,32.35,30.26V466c0,17.13-13.22,30.44-32.35,30.44h-23.74Zm13.39,12.09v36.7h10.35c11,0,18.35-7.39,18.35-18.18V466c0-10.78-7.39-18.35-18.35-18.35Z" transform="translate(-47.67 -247.91)"/><path class="cls-1" d="M1348.66,435.51h14.79l15.92,42.88,15.92-42.88h14.44l-24.61,61.31h-11.83Z" transform="translate(-47.67 -247.91)"/><path class="cls-1" d="M1420.57,435.51H1434v60.88h-13.39Z" transform="translate(-47.67 -247.91)"/><path class="cls-1" d="M1445.88,487.52l7.91-9.48c5.48,4.52,11.22,7.39,18.18,7.39,5.48,0,8.78-2.17,8.78-5.74v-.17c0-3.39-2.09-5.13-12.26-7.74-12.26-3.13-20.18-6.52-20.18-18.61V453c0-11,8.87-18.35,21.31-18.35a35.24,35.24,0,0,1,22.61,7.74l-7,10.09c-5.39-3.74-10.7-6-15.83-6s-7.83,2.35-7.83,5.31V452c0,4,2.61,5.31,13.13,8,12.35,3.22,19.31,7.65,19.31,18.26v.17c0,12.09-9.22,18.87-22.35,18.87A38.73,38.73,0,0,1,1445.88,487.52Z" transform="translate(-47.67 -247.91)"/><path class="cls-1" d="M1503.87,466.13V466c0-17.31,13.65-31.48,32.44-31.48s32.26,14,32.26,31.31V466c0,17.31-13.65,31.48-32.44,31.48S1503.87,483.43,1503.87,466.13Zm50.7,0V466c0-10.44-7.65-19.13-18.44-19.13s-18.26,8.52-18.26,19V466c0,10.43,7.65,19.13,18.44,19.13S1554.58,476.56,1554.58,466.13Z" transform="translate(-47.67 -247.91)"/><path class="cls-1" d="M1581.35,435.51h27.83c7.74,0,13.74,2.17,17.74,6.17,3.39,3.39,5.22,8.18,5.22,13.92v.17c0,9.83-5.31,16-13,18.87L1634,496.39h-15.65l-13-19.48h-10.52v19.48h-13.39Zm27,29.57c6.52,0,10.26-3.48,10.26-8.61v-.17c0-5.74-4-8.7-10.52-8.7h-13.31v17.48Z" transform="translate(-47.67 -247.91)"/><path class="cls-1" d="M1660,472.39l-23.39-36.88h15.65L1666.83,460l14.78-24.44h15.22l-23.39,36.61v24.26H1660Z" transform="translate(-47.67 -247.91)"/><path class="cls-1" d="M620.09,511.68h12.35L658.53,573h-14L639,559.34H613.22L607.65,573H594Zm14.09,35.83-8.09-19.74L618,547.51Z" transform="translate(-47.67 -247.91)"/><path class="cls-1" d="M668.78,512.12h12.35l28.53,37.48V512.12h13.22V573H711.48L682,534.29V573H668.78Z" transform="translate(-47.67 -247.91)"/><path class="cls-1" d="M738.34,512.12h23.74c19.13,0,32.35,13.13,32.35,30.26v.18c0,17.13-13.22,30.44-32.35,30.44H738.34Zm13.39,12.09v36.7h10.35c11,0,18.35-7.39,18.35-18.18v-.17c0-10.78-7.39-18.35-18.35-18.35Z" transform="translate(-47.67 -247.91)"/><path class="cls-1" d="M855,511.68h12.35L893.48,573h-14l-5.57-13.65H848.17L842.6,573H828.95Zm14.09,35.83L861,527.77l-8.09,19.74Z" transform="translate(-47.67 -247.91)"/><path class="cls-1" d="M897.12,542.73v-.17c0-17.31,13-31.48,31.74-31.48,11.48,0,18.35,3.83,24,9.39l-8.52,9.83c-4.7-4.26-9.48-6.87-15.57-6.87-10.26,0-17.66,8.52-17.66,19v.18c0,10.43,7.22,19.13,17.66,19.13,7,0,11.22-2.78,16-7.13l8.52,8.61c-6.26,6.7-13.22,10.87-25,10.87C910.42,574,897.12,560.21,897.12,542.73Z" transform="translate(-47.67 -247.91)"/><path class="cls-1" d="M960.42,542.73v-.17c0-17.31,13-31.48,31.74-31.48,11.48,0,18.35,3.83,24,9.39l-8.52,9.83c-4.7-4.26-9.48-6.87-15.57-6.87-10.26,0-17.66,8.52-17.66,19v.18c0,10.43,7.22,19.13,17.66,19.13,7,0,11.22-2.78,16-7.13l8.52,8.61c-6.26,6.7-13.22,10.87-25,10.87C973.73,574,960.42,560.21,960.42,542.73Z" transform="translate(-47.67 -247.91)"/><path class="cls-1" d="M1023.73,542.73v-.17c0-17.31,13.65-31.48,32.44-31.48s32.26,14,32.26,31.31v.18c0,17.31-13.65,31.48-32.44,31.48S1023.73,560,1023.73,542.73Zm50.7,0v-.17c0-10.44-7.65-19.13-18.44-19.13s-18.26,8.52-18.26,19v.18c0,10.43,7.65,19.13,18.44,19.13S1074.43,553.16,1074.43,542.73Z" transform="translate(-47.67 -247.91)"/><path class="cls-1" d="M1100.24,546.9V512.12h13.39v34.44c0,9.91,5,15,13.13,15s13.13-5,13.13-14.61V512.12h13.39v34.35c0,18.44-10.35,27.48-26.7,27.48S1100.24,564.82,1100.24,546.9Z" transform="translate(-47.67 -247.91)"/><path class="cls-1" d="M1167.81,512.12h12.35l28.53,37.48V512.12h13.22V573h-11.39L1181,534.29V573h-13.22Z" transform="translate(-47.67 -247.91)"/><path class="cls-1" d="M1251.54,524.46H1233V512.12h50.44v12.35h-18.53V573h-13.39Z" transform="translate(-47.67 -247.91)"/><path class="cls-1" d="M1295.19,512.12h13.39V573h-13.39Z" transform="translate(-47.67 -247.91)"/><path class="cls-1" d="M1324.67,512.12H1337l28.53,37.48V512.12h13.22V573h-11.39l-29.48-38.7V573h-13.22Z" transform="translate(-47.67 -247.91)"/><path class="cls-1" d="M1391.54,542.73v-.17c0-17.31,13.48-31.48,31.92-31.48,11,0,17.57,3,23.92,8.35l-8.44,10.18c-4.69-3.91-8.87-6.17-15.92-6.17-9.74,0-17.48,8.61-17.48,19v.18c0,11.13,7.65,19.31,18.44,19.31a21.36,21.36,0,0,0,12.61-3.65v-8.7h-13.48V537.95h26.44v26.44a39.51,39.51,0,0,1-26,9.65C1404.58,574,1391.54,560.73,1391.54,542.73Z" transform="translate(-47.67 -247.91)"/><path class="cls-1" d="M1490.23,512.12h12.35l28.53,37.48V512.12h13.22V573h-11.39l-29.48-38.7V573h-13.22Z" transform="translate(-47.67 -247.91)"/><path class="cls-1" d="M1559.79,512.12h45.92V524H1573.1v12.35h28.7V548.3h-28.7v12.78h33V573h-46.36Z" transform="translate(-47.67 -247.91)"/><path class="cls-1" d="M1633.09,524.46h-18.52V512.12H1665v12.35h-18.53V573h-13.39Z" transform="translate(-47.67 -247.91)"/><path class="cls-1" d="M1671.43,512.12h14.35l12.61,41.22,13.66-41.4h11.48l13.65,41.4,12.61-41.22h14L1743,573.43h-11.65l-13.74-39.83-13.74,39.83h-11.65Z" transform="translate(-47.67 -247.91)"/><path class="cls-1" d="M1768.39,542.73v-.17c0-17.31,13.65-31.48,32.44-31.48s32.26,14,32.26,31.31v.18c0,17.31-13.65,31.48-32.44,31.48S1768.39,560,1768.39,542.73Zm50.7,0v-.17c0-10.44-7.65-19.13-18.44-19.13s-18.27,8.52-18.27,19v.18c0,10.43,7.65,19.13,18.44,19.13S1819.09,553.16,1819.09,542.73Z" transform="translate(-47.67 -247.91)"/><path class="cls-1" d="M1845.87,512.12h27.83c7.74,0,13.74,2.17,17.74,6.17,3.39,3.39,5.22,8.18,5.22,13.92v.17c0,9.83-5.31,16-13,18.87L1898.48,573h-15.65l-13-19.48h-10.52V573h-13.39Zm27,29.57c6.52,0,10.26-3.48,10.26-8.61v-.17c0-5.74-4-8.7-10.52-8.7h-13.31v17.48Z" transform="translate(-47.67 -247.91)"/><path class="cls-1" d="M1909.6,512.12H1923v26.61l24.7-26.61h16.18l-24.79,25.83L1965,573h-16.09L1930,547.08l-7,7.31V573H1909.6Z" transform="translate(-47.67 -247.91)"/></svg>