<svg id="Layer_1" data-name="Layer 1" xmlns="http://www.w3.org/2000/svg" viewBox="0 0 1925 512.56"><defs><style>.cls-1{fill:#58584e;}</style></defs><title>hlb-logo-w-strapline</title><path class="cls-1" d="M439,996.13l-2.12-.27c8.51-5.58,15.42-14.2,15.42-29.09v-.4c0-9.52-2.91-17.25-8.74-23.6-7.28-7.93-18.76-12.29-33.32-12.29H381.39L351,954.21v115.26h66.12c31.37,0,52-12.71,52-38.13v-.4C469.16,1012.28,456.86,998.4,439,996.13Zm-60.63-38.88H406c11.84,0,18.39,5.16,18.39,14.28v.4c0,10.31-7.83,14.67-20.21,14.67H378.32Zm60.45,70.33c0,10.33-8.14,15.09-21.64,15.09H380.79v-30.58h35.34c15.69,0,22.64,5.76,22.64,15.09Z" transform="translate(-34.78 -743.48)"/><path class="cls-1" d="M117,930.47h30.58v55H204v-55h30.58V1045.2L204,1069.47v-55.8H147.57v55.8H117Z" transform="translate(-34.78 -743.48)"/><path class="cls-1" d="M252.68,930.47h30.58v111.2h53.25v27.8H252.68Z" transform="translate(-34.78 -743.48)"/><path class="cls-1" d="M493.57,842.47h0c-47-60.21-120.19-99-202.3-99C149.84,743.48,34.78,858.54,34.78,1000a255.86,255.86,0,0,0,9.5,69.24H81.23A220.26,220.26,0,0,1,70.11,1000c0-121.95,99.21-221.16,221.16-221.16a220.89,220.89,0,0,1,174.47,85.41h0A220,220,0,0,1,512.1,999.55c0,121.95-99.21,221.16-221.16,221.16a220.87,220.87,0,0,1-173.59-84.29l-27.83,21.75c47,59.57,119.83,97.88,201.43,97.88,141.43,0,256.49-115.06,256.49-256.49A255.2,255.2,0,0,0,493.57,842.47Z" transform="translate(-34.78 -743.48)"/><path class="cls-1" d="M81.23,1069.21H44.28l.14.52h37Z" transform="translate(-34.78 -743.48)"/><path class="cls-1" d="M117.35,1136.44l-27.83,21.75.33.41,27.83-21.75Z" transform="translate(-34.78 -743.48)"/><path class="cls-1" d="M602.77,944.23h-18.6v-12.4h50.64v12.4h-18.6V993H602.77Z" transform="translate(-34.78 -743.48)"/><path class="cls-1" d="M646,931.83h13.45V956h24.8V931.83h13.45V993H684.22V968.42h-24.8V993H646Z" transform="translate(-34.78 -743.48)"/><path class="cls-1" d="M713.2,931.83h46.1v12H726.56v12.4h28.81v12H726.56V981h33.18v12H713.2Z" transform="translate(-34.78 -743.48)"/><path class="cls-1" d="M796.92,962.57v-.17c0-17.38,13.53-31.61,32-31.61,11,0,17.64,3,24,8.38l-8.47,10.22c-4.71-3.93-8.91-6.2-16-6.2-9.78,0-17.55,8.65-17.55,19v.18c0,11.18,7.69,19.38,18.51,19.38a21.45,21.45,0,0,0,12.66-3.67v-8.73H828.62V957.77h26.54v26.54A39.67,39.67,0,0,1,829.05,994C810,994,796.92,980.64,796.92,962.57Z" transform="translate(-34.78 -743.48)"/><path class="cls-1" d="M868.94,931.83h13.45v48.9h30.47V993H868.94Z" transform="translate(-34.78 -743.48)"/><path class="cls-1" d="M917.66,962.57v-.17c0-17.38,13.71-31.61,32.57-31.61s32.39,14.06,32.39,31.43v.18c0,17.38-13.71,31.61-32.57,31.61S917.66,979.94,917.66,962.57Zm50.91,0v-.17c0-10.48-7.68-19.21-18.51-19.21s-18.34,8.56-18.34,19v.18c0,10.48,7.69,19.21,18.51,19.21S968.56,973,968.56,962.57Z" transform="translate(-34.78 -743.48)"/><path class="cls-1" d="M995.44,931.83h28.38c7,0,12.49,1.92,16,5.41a14,14,0,0,1,4.19,10.39v.17c0,6.9-3.67,10.74-8,13.18,7.07,2.71,11.44,6.81,11.44,15v.17c0,11.18-9.08,16.76-22.88,16.76H995.44Zm35.19,18.07c0-4-3.14-6.29-8.82-6.29h-13.27v12.92h12.4c5.94,0,9.69-1.92,9.69-6.46Zm-6.55,17.81h-15.54v13.45h16c5.94,0,9.52-2.09,9.52-6.64v-.17C1034,970.25,1031,967.72,1024.08,967.72Z" transform="translate(-34.78 -743.48)"/><path class="cls-1" d="M1080.3,931.4h12.4L1118.9,993h-14.06l-5.59-13.71H1073.4L1067.81,993h-13.71Zm14.15,36-8.12-19.82-8.12,19.82Z" transform="translate(-34.78 -743.48)"/><path class="cls-1" d="M1129.18,931.83h13.45v48.9h30.47V993h-43.92Z" transform="translate(-34.78 -743.48)"/><path class="cls-1" d="M1232.11,931.4h12.4l26.2,61.56h-14.06l-5.59-13.71h-25.84L1219.63,993h-13.71Zm14.15,36-8.12-19.82L1230,967.37Z" transform="translate(-34.78 -743.48)"/><path class="cls-1" d="M1281,931.83h23.84c19.21,0,32.48,13.18,32.48,30.39v.18c0,17.2-13.27,30.56-32.48,30.56H1281ZM1294.45,944v36.85h10.39c11,0,18.42-7.42,18.42-18.25v-.17c0-10.83-7.42-18.43-18.42-18.43Z" transform="translate(-34.78 -743.48)"/><path class="cls-1" d="M1341,931.83h14.84l16,43,16-43h14.49l-24.71,61.56h-11.87Z" transform="translate(-34.78 -743.48)"/><path class="cls-1" d="M1413.17,931.83h13.45V993h-13.45Z" transform="translate(-34.78 -743.48)"/><path class="cls-1" d="M1438.58,984l7.94-9.52c5.5,4.54,11.26,7.42,18.25,7.42,5.5,0,8.82-2.18,8.82-5.76V976c0-3.41-2.1-5.15-12.31-7.77C1449,965.1,1441,961.69,1441,949.56v-.17c0-11.09,8.91-18.42,21.39-18.42a35.38,35.38,0,0,1,22.7,7.77l-7,10.13c-5.41-3.76-10.74-6-15.89-6s-7.86,2.36-7.86,5.33v.17c0,4,2.62,5.33,13.19,8,12.4,3.23,19.38,7.69,19.38,18.34v.17c0,12.14-9.25,18.95-22.44,18.95A38.88,38.88,0,0,1,1438.58,984Z" transform="translate(-34.78 -743.48)"/><path class="cls-1" d="M1496.81,962.57v-.17c0-17.38,13.71-31.61,32.57-31.61s32.39,14.06,32.39,31.43v.18c0,17.38-13.71,31.61-32.57,31.61S1496.81,979.94,1496.81,962.57Zm50.91,0v-.17c0-10.48-7.68-19.21-18.51-19.21s-18.34,8.56-18.34,19v.18c0,10.48,7.69,19.21,18.51,19.21S1547.71,973,1547.71,962.57Z" transform="translate(-34.78 -743.48)"/><path class="cls-1" d="M1574.59,931.83h27.94c7.77,0,13.8,2.18,17.81,6.2,3.4,3.41,5.24,8.21,5.24,14v.17c0,9.87-5.33,16.07-13.1,18.95L1627.42,993H1611.7l-13.1-19.56H1588V993h-13.45Zm27.07,29.69c6.55,0,10.3-3.49,10.3-8.64v-.17c0-5.76-4-8.73-10.57-8.73H1588v17.55Z" transform="translate(-34.78 -743.48)"/><path class="cls-1" d="M1653.6,968.85l-23.49-37h15.72l14.58,24.54,14.84-24.54h15.28L1667,968.59V993H1653.6Z" transform="translate(-34.78 -743.48)"/><path class="cls-1" d="M609.49,1008.3h12.4l26.19,61.56H634l-5.59-13.71H602.59L597,1069.86H583.3Zm14.15,36-8.12-19.82-8.12,19.82Z" transform="translate(-34.78 -743.48)"/><path class="cls-1" d="M658.37,1008.74h12.4l28.64,37.63v-37.63h13.27v61.12H701.25L671.65,1031v38.86H658.37Z" transform="translate(-34.78 -743.48)"/><path class="cls-1" d="M728.21,1008.74h23.84c19.21,0,32.48,13.18,32.48,30.39v.18c0,17.2-13.27,30.56-32.48,30.56H728.21Zm13.45,12.14v36.85h10.39c11,0,18.42-7.42,18.42-18.25v-.17c0-10.83-7.42-18.43-18.42-18.43Z" transform="translate(-34.78 -743.48)"/><path class="cls-1" d="M845.38,1008.3h12.4l26.2,61.56H869.91l-5.59-13.71H838.48l-5.59,13.71H819.18Zm14.15,36-8.12-19.82-8.12,19.82Z" transform="translate(-34.78 -743.48)"/><path class="cls-1" d="M887.63,1039.48v-.17c0-17.38,13.1-31.61,31.87-31.61,11.53,0,18.42,3.84,24.1,9.43L935,1027c-4.72-4.28-9.52-6.9-15.63-6.9-10.3,0-17.73,8.56-17.73,19v.18c0,10.48,7.25,19.21,17.73,19.21,7,0,11.26-2.8,16.06-7.16L944,1060c-6.29,6.72-13.27,10.91-25.06,10.91C901,1070.91,887.63,1057,887.63,1039.48Z" transform="translate(-34.78 -743.48)"/><path class="cls-1" d="M951.18,1039.48v-.17c0-17.38,13.1-31.61,31.87-31.61,11.53,0,18.42,3.84,24.1,9.43l-8.56,9.87c-4.72-4.28-9.52-6.9-15.63-6.9-10.3,0-17.73,8.56-17.73,19v.18c0,10.48,7.25,19.21,17.73,19.21,7,0,11.26-2.8,16.06-7.16l8.56,8.64c-6.29,6.72-13.27,10.91-25.06,10.91C964.54,1070.91,951.18,1057,951.18,1039.48Z" transform="translate(-34.78 -743.48)"/><path class="cls-1" d="M1014.74,1039.48v-.17c0-17.38,13.71-31.61,32.57-31.61s32.39,14.06,32.39,31.43v.18c0,17.38-13.71,31.61-32.57,31.61S1014.74,1056.85,1014.74,1039.48Zm50.91,0v-.17c0-10.48-7.68-19.21-18.51-19.21s-18.34,8.56-18.34,19v.18c0,10.48,7.69,19.21,18.51,19.21S1065.65,1050,1065.65,1039.48Z" transform="translate(-34.78 -743.48)"/><path class="cls-1" d="M1091.56,1043.67v-34.93H1105v34.58c0,10,5,15.11,13.18,15.11s13.18-5,13.18-14.67v-35h13.45v34.49c0,18.51-10.39,27.59-26.81,27.59S1091.56,1061.66,1091.56,1043.67Z" transform="translate(-34.78 -743.48)"/><path class="cls-1" d="M1159.4,1008.74h12.4l28.64,37.63v-37.63h13.27v61.12h-11.44l-29.6-38.86v38.86H1159.4Z" transform="translate(-34.78 -743.48)"/><path class="cls-1" d="M1243.47,1021.14h-18.6v-12.4h50.64v12.4h-18.6v48.72h-13.45Z" transform="translate(-34.78 -743.48)"/><path class="cls-1" d="M1287.29,1008.74h13.45v61.12h-13.45Z" transform="translate(-34.78 -743.48)"/><path class="cls-1" d="M1316.89,1008.74h12.4l28.64,37.63v-37.63h13.27v61.12h-11.44l-29.6-38.86v38.86h-13.27Z" transform="translate(-34.78 -743.48)"/><path class="cls-1" d="M1384,1039.48v-.17c0-17.38,13.53-31.61,32-31.61,11,0,17.64,3,24,8.38l-8.47,10.22c-4.71-3.93-8.91-6.2-16-6.2-9.78,0-17.55,8.65-17.55,19v.18c0,11.18,7.69,19.38,18.51,19.38a21.45,21.45,0,0,0,12.66-3.67v-8.73h-13.53v-11.61h26.54v26.54a39.67,39.67,0,0,1-26.11,9.69C1397.12,1070.91,1384,1057.55,1384,1039.48Z" transform="translate(-34.78 -743.48)"/><path class="cls-1" d="M1483.11,1008.74h12.4l28.64,37.63v-37.63h13.27v61.12H1526l-29.6-38.86v38.86h-13.27Z" transform="translate(-34.78 -743.48)"/><path class="cls-1" d="M1552.95,1008.74h46.1v12h-32.74v12.4h28.81v12h-28.81v12.83h33.18v12h-46.54Z" transform="translate(-34.78 -743.48)"/><path class="cls-1" d="M1626.54,1021.14h-18.6v-12.4h50.64v12.4H1640v48.72h-13.45Z" transform="translate(-34.78 -743.48)"/><path class="cls-1" d="M1665,1008.74h14.41l12.66,41.39,13.71-41.56h11.53l13.71,41.56,12.66-41.39h14.06l-20.87,61.56h-11.7l-13.8-40-13.8,40h-11.7Z" transform="translate(-34.78 -743.48)"/><path class="cls-1" d="M1762.38,1039.48v-.17c0-17.38,13.71-31.61,32.57-31.61s32.39,14.06,32.39,31.43v.18c0,17.38-13.71,31.61-32.57,31.61S1762.38,1056.85,1762.38,1039.48Zm50.91,0v-.17c0-10.48-7.68-19.21-18.51-19.21s-18.34,8.56-18.34,19v.18c0,10.48,7.69,19.21,18.51,19.21S1813.29,1050,1813.29,1039.48Z" transform="translate(-34.78 -743.48)"/><path class="cls-1" d="M1840.17,1008.74h27.94c7.77,0,13.8,2.18,17.81,6.2,3.41,3.41,5.24,8.21,5.24,14v.17c0,9.87-5.33,16.07-13.1,18.95l14.93,21.83h-15.72l-13.1-19.56h-10.57v19.56h-13.45Zm27.07,29.69c6.55,0,10.3-3.49,10.3-8.64v-.17c0-5.76-4-8.73-10.57-8.73h-13.36v17.55Z" transform="translate(-34.78 -743.48)"/><path class="cls-1" d="M1904.16,1008.74h13.45v26.72l24.8-26.72h16.24l-24.88,25.93,26,35.19h-16.15l-18.95-26-7.07,7.34v18.69h-13.45Z" transform="translate(-34.78 -743.48)"/></svg>