<svg id="Layer_1" data-name="Layer 1" xmlns="http://www.w3.org/2000/svg" viewBox="0 0 382.68 382.68"><defs><style>.cls-1{fill:#fdc408;}.cls-2,.cls-5,.cls-6{fill:#59584e;}.cls-2,.cls-8{opacity:0.5;}.cls-3,.cls-4,.cls-8{fill:#fff;}.cls-3{opacity:0.4;}.cls-5{opacity:0.2;}.cls-7{fill:#f7e99a;}.cls-9{fill:#f7b9b1;}.cls-10{fill:none;stroke:#59584e;stroke-linecap:round;stroke-linejoin:round;stroke-width:10px;}</style></defs><title>NEW ICONS</title><polygon class="cls-1" points="19.39 19.39 363.29 363.29 19.39 363.29 19.39 19.39"/><path class="cls-2" d="M289.5,305.31c0,13.43-43.26,25.09-97.48,25.09s-98.85-11.66-98.85-25.09,44-24.33,98.17-24.33S289.5,291.87,289.5,305.31Z"/><path class="cls-3" d="M130.24,160.51c0-7.39,23.57-13.39,62.81-13.39s62.81,6,62.81,13.39L239.39,306.72c0,7.4-7.1,13.39-46.34,13.39s-48.39-6-48.39-13.39Z"/><path class="cls-4" d="M247.63,227.44l-8.24,79.28c0,7.4-7.1,13.39-46.34,13.39s-48.39-6-48.39-13.39l-6.18-79.28S146.72,213,194.08,213c43.25,0,53.55,14.42,53.55,14.42"/><path class="cls-5" d="M229.1,316a5.58,5.58,0,0,1-.7,0,6.18,6.18,0,0,1-5.45-6.83l16.48-146.21a6.18,6.18,0,0,1,12.28,1.38L235.23,310.5A6.17,6.17,0,0,1,229.1,316Z"/><path class="cls-6" d="M247.63,230.53a4.13,4.13,0,0,1-4.1-3.65c-2.15-2.52-17.59-7.68-51.9-7.68-32.68,0-46.17,5-47.77,7.45a4.12,4.12,0,0,1-8.23-.24c0-13.44,35.08-15.45,56-15.45,14.1,0,60.11,1.12,60.11,15.45A4.12,4.12,0,0,1,247.63,230.53Z"/><path class="cls-6" d="M195.75,246c-14.11,0-60.12-1.11-60.12-15.44a4.12,4.12,0,0,1,8.21-.47c2.15,2.52,17.59,7.67,51.91,7.67,32.68,0,46.16-4.95,47.76-7.44a4.12,4.12,0,0,1,8.23.24C251.74,244,216.66,246,195.75,246Z"/><circle class="cls-2" cx="173.49" cy="293.34" r="6.18"/><circle class="cls-2" cx="217.77" cy="277.89" r="5.15"/><circle class="cls-2" cx="187.9" cy="272.74" r="4.12"/><line class="cls-7" x1="157.01" y1="306.72" x2="142.6" y2="160.51"/><path class="cls-8" d="M157,312.9a6.17,6.17,0,0,1-6.14-5.57L136.45,161.11a6.18,6.18,0,0,1,12.3-1.21l14.41,146.22a6.17,6.17,0,0,1-5.54,6.75Z"/><path class="cls-6" d="M193.05,326.29c-28.15,0-54.22-2.34-54.57-19.23L124.09,161.11q0-.3,0-.6c0-16.17,37.52-19.57,69-19.57s69,3.4,69,19.57a5.32,5.32,0,0,1,0,.69L245.56,307.1C245.23,323,224.33,326.29,193.05,326.29Zm-56.52-165,14.28,144.81q0,.3,0,.6c0,.07.48,7.21,42.21,7.21,37.26,0,40.16-5.52,40.16-7.21a5.32,5.32,0,0,1,0-.69l16.31-144.74c-3.51-2.88-20.43-8-56.51-8S140,158.43,136.53,161.31Z"/><path class="cls-6" d="M193.05,178c-20.12,0-66.93-1.7-66.93-17.5a4.12,4.12,0,0,1,8.24,0c1.18,2.78,17.64,9.27,58.69,9.27s57.52-6.49,58.72-9.45a4,4,0,0,1,4.11-4,4.18,4.18,0,0,1,4.1,4.21C260,176.31,213.18,178,193.05,178Z"/><line class="cls-9" x1="204.38" y1="233.62" x2="249.39" y2="98.3"/><path class="cls-6" d="M204.38,237.74a3.94,3.94,0,0,1-1.3-.22,4.11,4.11,0,0,1-2.61-5.2L245.48,97c.72-2.16,3.17-.16,5.32.57s3.21-.13,2.5,2l-45,135.31A4.14,4.14,0,0,1,204.38,237.74Z"/><path class="cls-4" d="M200.81,119.24c-3.55,9.73,10.46,23.77,31.3,31.38s40.6,5.88,44.15-3.84l-24.83-46.11Z"/><path class="cls-6" d="M256.69,161.54h0A79.25,79.25,0,0,1,230,156.42c-24.81-9.06-39.86-25.95-35-39.29a6.17,6.17,0,0,1,3.67-3.69L249.3,94.87a6.19,6.19,0,0,1,7.57,2.87l24.83,46.11a6.17,6.17,0,0,1,.36,5C279.13,156.93,269.88,161.54,256.69,161.54Zm-50.11-37.83c1.32,5.54,11.13,15.08,27.65,21.1a67.74,67.74,0,0,0,22.45,4.37h0c6.13,0,10.26-1.27,12.33-2.81l-20.49-38.06Z"/><polyline class="cls-10" points="98.21 95.21 139.62 95.21 182.12 230.53"/></svg>