<?xml version="1.0" encoding="utf-8"?>
<!-- Generator: Adobe Illustrator 25.2.2, SVG Export Plug-In . SVG Version: 6.00 Build 0)  -->
<svg version="1.1" id="Layer_1" xmlns="http://www.w3.org/2000/svg" xmlns:xlink="http://www.w3.org/1999/xlink" x="0px" y="0px"
	 viewBox="0 0 1596 1596" style="enable-background:new 0 0 1596 1596;" xml:space="preserve">
<style type="text/css">
	.st0{fill:#13A7E0;}
	.st1{fill:#FFB912;}
	.st2{fill:#3E3A31;}
	.st3{opacity:0.5;}
	.st4{opacity:0.63;fill:#3E3A31;enable-background:new    ;}
	.st5{fill:#FFFFFF;}
</style>
<polygon class="st0" points="86.6,74.4 1525.6,1513.4 86.6,1513.4 "/>
<path class="st1" d="M1134.9,973.7c71.1,0,131.8-53.5,131.8-124.6l-257.3-1C1009.3,919.2,1063.8,973.7,1134.9,973.7z"/>
<path class="st2" d="M1134.9,1000.6c-85.5,0-152.5-67-152.5-152.5c0-14.9,12.1-26.9,26.9-26.9h0.1l257.3,1
	c14.8,0.1,26.8,12.1,26.8,26.9C1293.5,932.6,1222.4,1000.6,1134.9,1000.6z M1039.7,875.1c11.2,42.3,48.4,71.7,95.2,71.7
	c47.8,0,88.3-30,100.8-70.9L1039.7,875.1z"/>
<g class="st3">
	<path class="st4" d="M1206.6,1220.1c0,58.5-191.5,106-427.6,106s-427.6-47.4-427.6-106s191.4-106,427.6-106
		S1206.6,1161.5,1206.6,1220.1z"/>
</g>
<ellipse class="st5" cx="789.5" cy="1178" rx="174.9" ry="67.3"/>
<path class="st2" d="M789.5,1272.2c-97.2,0-201.8-29.5-201.8-94.2s104.6-94.2,201.8-94.2s201.8,29.5,201.8,94.2
	S886.7,1272.2,789.5,1272.2z M789.5,1137.6c-92.2,0-146.2,28.7-148,40.4c1.8,11.6,55.8,40.3,148,40.3s146.2-28.7,148-40.4
	C935.8,1166.3,881.7,1137.6,789.5,1137.6L789.5,1137.6z"/>
<path class="st2" d="M335.4,635.4c-14.9,0-26.9-12.1-26.9-26.9c0-13.4,9.9-24.8,23.2-26.6l873.1-122.6c14.7-2.1,28.3,8.2,30.4,22.9
	s-8.2,28.3-22.9,30.4L339.2,635.2C338,635.3,336.7,635.4,335.4,635.4z"/>
<rect x="739.1" y="267.5" class="st5" width="98.7" height="897.1"/>
<path class="st2" d="M837.8,1191.5h-98.7c-14.9,0-25.9-12-25.9-26.9V267.5c0-14.9,11-26.9,25.9-26.9h98.7c14.9,0,26.9,12,26.9,26.9
	c0,0,0,0,0,0v897.1C864.7,1179.4,852.7,1191.5,837.8,1191.5z M766,1137.6h45.9V294.4H766V1137.6z"/>
<circle class="st5" cx="786.6" cy="528.2" r="107.1"/>
<path class="st2" d="M786.6,662.3c-73.9,0-134-60.1-134-134s60.1-134,134-134s134,60.1,134,134S860.5,662.3,786.6,662.3z M786.6,448
	c-44.3,0-80.2,35.9-80.2,80.2s35.9,80.2,80.2,80.2s80.2-35.9,80.2-80.2c0,0,0,0,0,0C866.8,484,830.9,448.1,786.6,448L786.6,448z"/>
<path class="st2" d="M818.8,528.2c0,17.8-14.4,32.3-32.2,32.3c-17.8,0-32.3-14.4-32.3-32.2c0-17.8,14.4-32.3,32.2-32.3c0,0,0,0,0,0
	C804.4,496,818.8,510.4,818.8,528.2L818.8,528.2z"/>
<path class="st1" d="M435.1,1065.9c71.1,0,131.7-53.6,131.7-124.6l-257.3-1C309.6,1011.3,364.1,1065.9,435.1,1065.9z"/>
<path class="st2" d="M435.1,1092.8c-85.5,0-152.5-67-152.5-152.5c0-14.9,12-26.9,26.9-26.9c0,0,0,0,0,0h0.1l257.4,1
	c14.8,0.1,26.8,12.1,26.8,26.9C593.8,1024.8,522.6,1092.8,435.1,1092.8z M339.9,967.3c11.2,42.3,48.4,71.6,95.2,71.6
	c47.8,0,88.3-30,100.8-70.9L339.9,967.3z"/>
<path class="st2" d="M311.3,961.2c-14.9,0-26.9-12-26.9-26.9c0-3.3,0.6-6.6,1.8-9.7l128.7-334.8c4.9-14,20.3-21.4,34.3-16.5
	c14,4.9,21.4,20.3,16.5,34.3c-0.2,0.5-0.4,1-0.5,1.4L336.4,943.9C332.4,954.3,322.4,961.1,311.3,961.2z"/>
<path class="st2" d="M568.7,961.2c-11.1,0-21.1-6.9-25.1-17.3L414.9,609c-5.6-13.8,1.1-29.5,14.9-35c13.8-5.6,29.5,1.1,35,14.9
	c0.1,0.3,0.2,0.6,0.3,0.8l128.7,334.9c5.3,13.9-1.6,29.5-15.5,34.8C575.2,960.5,572,961.1,568.7,961.2z"/>
<ellipse class="st5" cx="439.6" cy="922.3" rx="130.1" ry="35.9"/>
<path class="st2" d="M439.6,976.2c-15.1,0-148-1.5-148-53.8s132.9-53.8,148-53.8s148,1.5,148,53.8S454.8,976.2,439.6,976.2z
	 M331,922.3c13,7.5,50.5,17.9,108.6,17.9s95.7-10.4,108.6-17.9c-13-7.5-50.5-17.9-108.6-17.9S344,914.8,331,922.3z"/>
<path class="st2" d="M1011,869c-14.9,0-26.9-12-26.9-26.9c0-3.3,0.6-6.6,1.8-9.7L1114.6,500c5.4-13.9,21-20.8,34.8-15.4
	s20.8,21,15.4,34.8l-128.7,332.3C1032.1,862.2,1022.1,869,1011,869z"/>
<path class="st2" d="M1268.4,869c-11.1,0-21.1-6.8-25.1-17.2l-128.7-332.4c-5.4-13.9,1.5-29.4,15.4-34.8s29.4,1.5,34.8,15.4
	l128.7,332.4c5.4,13.9-1.5,29.5-15.3,34.8C1275,868.4,1271.7,869,1268.4,869z"/>
<ellipse class="st5" cx="1139.4" cy="830.2" rx="130.1" ry="35.9"/>
<path class="st2" d="M1139.4,884c-15.2,0-148-1.5-148-53.8s132.9-53.8,148-53.8s148,1.5,148,53.8S1154.5,884,1139.4,884z
	 M1030.7,830.2c13,7.5,50.5,17.9,108.6,17.9s95.6-10.4,108.6-18c-13-7.5-50.5-17.9-108.6-17.9S1043.7,822.6,1030.7,830.2
	L1030.7,830.2z"/>
</svg>
