<svg id="Layer_1" data-name="Layer 1" xmlns="http://www.w3.org/2000/svg" viewBox="0 0 1596 1596"><defs><style>.cls-1{fill:#ffc012;}.cls-2{fill:#ffb912;}.cls-3,.cls-5{fill:#3e3a31;}.cls-4{opacity:0.5;}.cls-5{opacity:0.63;}.cls-6{fill:#fff;}</style></defs><polygon class="cls-1" points="86.55 74.42 1525.61 1513.44 86.55 1513.44 86.55 74.42"/><path class="cls-2" d="M1134.87,973.69c71.08,0,131.75-53.55,131.75-124.62l-257.34-1C1009.28,919.17,1063.8,973.69,1134.87,973.69Z"/><path class="cls-3" d="M1134.87,1000.6c-85.52,0-152.5-67-152.5-152.51a26.92,26.92,0,0,1,26.91-26.91h.11l257.33,1a26.92,26.92,0,0,1,26.81,26.92C1293.53,932.63,1222.36,1000.6,1134.87,1000.6Zm-95.22-125.48c11.18,42.28,48.41,71.65,95.22,71.65,47.84,0,88.29-30,100.83-70.9Z"/><g class="cls-4"><path class="cls-5" d="M1206.64,1220.05c0,58.52-191.45,106-427.62,106s-427.61-47.45-427.61-106,191.44-106,427.61-106S1206.64,1161.52,1206.64,1220.05Z"/></g><ellipse class="cls-6" cx="789.5" cy="1178" rx="174.93" ry="67.28"/><path class="cls-3" d="M789.5,1272.19c-97.22,0-201.85-29.47-201.85-94.19s104.63-94.19,201.85-94.19,201.84,29.48,201.84,94.19S886.71,1272.19,789.5,1272.19Zm0-134.56c-92.18,0-146.25,28.69-148,40.42,1.77,11.63,55.84,40.32,148,40.32s146.25-28.69,148-40.42C935.75,1166.32,881.68,1137.63,789.5,1137.63Z"/><path class="cls-3" d="M335.43,635.41a26.91,26.91,0,0,1-3.71-53.56l873.12-122.56a26.91,26.91,0,1,1,7.48,53.3L339.2,635.15A26.85,26.85,0,0,1,335.43,635.41Z"/><rect class="cls-6" x="739.12" y="267.46" width="98.68" height="897.08"/><path class="cls-3" d="M837.8,1191.46H739.12c-14.86,0-25.87-12-25.87-26.92V267.46c0-14.86,11-26.91,25.87-26.91H837.8a26.91,26.91,0,0,1,26.92,26.91v897.08A26.92,26.92,0,0,1,837.8,1191.46ZM766,1137.63h45.88V294.37H766Z"/><circle class="cls-6" cx="786.6" cy="528.25" r="107.13"/><path class="cls-3" d="M786.6,662.29c-73.92,0-134.05-60.13-134.05-134s60.13-134,134.05-134,134,60.13,134,134.05S860.51,662.29,786.6,662.29Zm0-214.27a80.23,80.23,0,1,0,80.22,80.23A80.32,80.32,0,0,0,786.6,448Z"/><path class="cls-3" d="M818.85,528.25A32.26,32.26,0,1,1,786.6,496,32.25,32.25,0,0,1,818.85,528.25Z"/><path class="cls-2" d="M435.15,1065.87c71.07,0,131.74-53.56,131.74-124.63l-257.33-1C309.56,1011.35,364.07,1065.87,435.15,1065.87Z"/><path class="cls-3" d="M435.15,1092.78c-85.52,0-152.5-67-152.5-152.51a26.9,26.9,0,0,1,26.91-26.91h.09l257.35,1a26.91,26.91,0,0,1,26.8,26.92C593.8,1024.8,522.63,1092.78,435.15,1092.78ZM339.92,967.3c11.18,42.28,48.41,71.65,95.23,71.65,47.84,0,88.3-30,100.82-70.91Z"/><path class="cls-3" d="M311.28,961.15a26.9,26.9,0,0,1-25.11-36.58L414.86,589.73A26.92,26.92,0,1,1,465.11,609L336.42,943.88A27,27,0,0,1,311.28,961.15Z"/><path class="cls-3" d="M568.69,961.15a27,27,0,0,1-25.14-17.27L414.86,609a26.92,26.92,0,1,1,50.25-19.31L593.8,924.57a26.94,26.94,0,0,1-25.11,36.58Z"/><ellipse class="cls-6" cx="439.63" cy="922.33" rx="130.08" ry="35.88"/><path class="cls-3" d="M439.63,976.16c-15.14,0-148-1.51-148-53.83s132.87-53.82,148-53.82,148,1.5,148,53.82S454.78,976.16,439.63,976.16ZM331,922.33c12.95,7.53,50.54,17.94,108.63,17.94s95.69-10.41,108.64-17.94c-12.95-7.52-50.54-17.94-108.64-17.94S344,914.81,331,922.33Z"/><path class="cls-3" d="M1011,869a26.91,26.91,0,0,1-25.09-36.64L1114.61,500a26.91,26.91,0,1,1,50.2,19.43L1036.12,851.77A26.93,26.93,0,0,1,1011,869Z"/><path class="cls-3" d="M1268.41,869a26.93,26.93,0,0,1-25.11-17.2L1114.61,519.39a26.91,26.91,0,1,1,50.2-19.43L1293.5,832.33A26.92,26.92,0,0,1,1268.41,869Z"/><ellipse class="cls-6" cx="1139.36" cy="830.15" rx="130.08" ry="35.88"/><path class="cls-3" d="M1139.36,884c-15.15,0-148-1.51-148-53.83s132.87-53.82,148-53.82,148,1.5,148,53.82S1154.51,884,1139.36,884Zm-108.63-53.83c13,7.53,50.54,17.94,108.63,17.94S1235,837.68,1248,830.15c-13-7.52-50.54-17.94-108.63-17.94S1043.68,822.63,1030.73,830.15Z"/></svg>