<svg id="Layer_1" data-name="Layer 1" xmlns="http://www.w3.org/2000/svg" viewBox="0 0 1596 1596"><defs><style>.cls-1{fill:#469ec8;}.cls-2{fill:#ffb912;}.cls-3,.cls-5{fill:#3e3a31;}.cls-4{opacity:0.5;}.cls-5{opacity:0.63;}.cls-6{fill:#fff;}</style></defs><polygon class="cls-1" points="83.9 87.31 1506.54 1509.91 83.9 1509.91 83.9 87.31"/><path class="cls-2" d="M1120.26,976.32c70.26,0,130.24-52.94,130.24-123.2l-254.4-1C996.1,922.42,1050,976.32,1120.26,976.32Z"/><path class="cls-3" d="M1120.26,1002.92c-84.55,0-150.76-66.23-150.76-150.76a26.6,26.6,0,0,1,26.6-26.61h.1l254.4,1a26.6,26.6,0,0,1,26.5,26.61C1277.1,935.72,1206.74,1002.92,1120.26,1002.92Zm-94.14-124c11.05,41.8,47.86,70.84,94.14,70.84,47.29,0,87.28-29.68,99.67-70.1Z"/><g class="cls-4"><path class="cls-5" d="M1191.21,1219.87c0,57.85-189.27,104.76-422.75,104.76s-422.73-46.91-422.73-104.76S535,1115.1,768.46,1115.1,1191.21,1162,1191.21,1219.87Z"/></g><ellipse class="cls-6" cx="778.82" cy="1178.3" rx="172.94" ry="66.51"/><path class="cls-3" d="M778.82,1271.42c-96.1,0-199.54-29.14-199.54-93.12s103.44-93.12,199.54-93.12,199.54,29.14,199.54,93.12S874.93,1271.42,778.82,1271.42Zm0-133c-91.12,0-144.58,28.36-146.33,40,1.75,11.49,55.21,39.86,146.33,39.86s144.58-28.37,146.33-40C923.4,1166.75,870,1138.39,778.82,1138.39Z"/><path class="cls-3" d="M329.93,641.9A26.6,26.6,0,0,1,326.27,589l863.15-121.16a26.6,26.6,0,1,1,7.4,52.69L333.67,641.64A26.43,26.43,0,0,1,329.93,641.9Z"/><rect class="cls-6" x="729.02" y="278.15" width="97.55" height="886.85"/><path class="cls-3" d="M826.58,1191.6H729c-14.69,0-25.58-11.91-25.58-26.6V278.15c0-14.69,10.89-26.61,25.58-26.61h97.56a26.61,26.61,0,0,1,26.6,26.61V1165A26.6,26.6,0,0,1,826.58,1191.6Zm-71-53.21H801V304.75H755.63Z"/><circle class="cls-6" cx="775.96" cy="535.96" r="105.91"/><path class="cls-3" d="M776,668.47C702.89,668.47,643.44,609,643.44,536S702.89,403.44,776,403.44,908.47,462.89,908.47,536,849,668.47,776,668.47Zm0-211.82A79.31,79.31,0,1,0,855.26,536,79.4,79.4,0,0,0,776,456.65Z"/><path class="cls-3" d="M807.84,536A31.89,31.89,0,1,1,776,504.07,31.9,31.9,0,0,1,807.84,536Z"/><path class="cls-2" d="M428.52,1067.44c70.26,0,130.24-52.94,130.24-123.2l-254.4-1C304.36,1013.55,358.25,1067.44,428.52,1067.44Z"/><path class="cls-3" d="M428.52,1094.05c-84.55,0-150.77-66.23-150.77-150.77a26.61,26.61,0,0,1,26.61-26.6h.09l254.41,1a26.6,26.6,0,0,1,26.5,26.61C585.36,1026.84,515,1094.05,428.52,1094.05ZM334.38,970c11.05,41.8,47.86,70.84,94.14,70.84,47.29,0,87.29-29.68,99.67-70.11Z"/><path class="cls-3" d="M306.07,963.92a26.59,26.59,0,0,1-24.83-36.16l127.22-331a26.61,26.61,0,0,1,49.68,19.09l-127.23,331A26.62,26.62,0,0,1,306.07,963.92Z"/><path class="cls-3" d="M560.53,963.92a26.64,26.64,0,0,1-24.85-17.07l-127.22-331a26.61,26.61,0,1,1,49.68-19.09l127.22,331a26.61,26.61,0,0,1-24.83,36.16Z"/><ellipse class="cls-6" cx="432.95" cy="925.55" rx="128.59" ry="35.47"/><path class="cls-3" d="M433,978.76c-15,0-146.33-1.49-146.33-53.21S418,872.34,433,872.34s146.33,1.49,146.33,53.21S447.93,978.76,433,978.76ZM325.56,925.55c12.8,7.44,50,17.73,107.39,17.73S527.54,933,540.34,925.55c-12.8-7.44-50-17.74-107.39-17.74S338.36,918.11,325.56,925.55Z"/><path class="cls-3" d="M997.81,872.8A26.6,26.6,0,0,1,973,836.58L1100.23,508a26.6,26.6,0,1,1,49.62,19.21L1022.63,855.79A26.63,26.63,0,0,1,997.81,872.8Z"/><path class="cls-3" d="M1252.27,872.8a26.63,26.63,0,0,1-24.82-17L1100.23,527.2A26.6,26.6,0,1,1,1149.85,508l127.23,328.59a26.64,26.64,0,0,1-24.81,36.22Z"/><ellipse class="cls-6" cx="1124.69" cy="834.42" rx="128.59" ry="35.47"/><path class="cls-3" d="M1124.69,887.63c-15,0-146.33-1.49-146.33-53.21s131.36-53.21,146.33-53.21S1271,782.7,1271,834.42,1139.67,887.63,1124.69,887.63ZM1017.3,834.42c12.8,7.44,50,17.74,107.39,17.74s94.59-10.3,107.4-17.74c-12.81-7.44-50-17.74-107.4-17.74S1030.1,827,1017.3,834.42Z"/></svg>