<svg id="Layer_1" data-name="Layer 1" xmlns="http://www.w3.org/2000/svg" viewBox="0 0 382.68 382.68"><defs><style>.cls-1{fill:#13a7e0;}.cls-2{opacity:0.5;}.cls-3{fill:#59584e;}.cls-4{fill:#fff;}.cls-5{fill:#334754;}</style></defs><title>NEW ICONS</title><polygon class="cls-1" points="19.39 19.39 363.29 363.29 19.39 363.29 19.39 19.39"/><g class="cls-2"><path class="cls-3" d="M280.05,301.88c0,12.23-41.25,22.84-90.59,22.84s-88.08-10.61-88.08-22.84,40-22.14,89.33-22.14S280.05,289.66,280.05,301.88Z"/></g><path class="cls-4" d="M290.67,274.12a7.52,7.52,0,0,1-7.5,7.5H185.72a7.52,7.52,0,0,1-7.5-7.5V219.77A16.17,16.17,0,0,1,184.36,208l25.2-17.64c3.38-2.37,6.14-.93,6.14,3.19v11.25c0,4.12,2.77,5.56,6.14,3.2L247,190.34c3.38-2.37,6.15-.93,6.15,3.19v11.25c0,4.12,2.76,5.56,6.14,3.2l25.2-17.64c3.37-2.37,6.14-.93,6.14,3.19Z"/><path class="cls-3" d="M283.17,285.37H185.72a11.27,11.27,0,0,1-11.25-11.25V219.77a19.75,19.75,0,0,1,7.74-14.86l25.2-17.64a9,9,0,0,1,5.19-1.82c3.3,0,6.85,2.53,6.85,8.08v11.25a2.44,2.44,0,0,0,0,.28l.24-.15,25.19-17.64a9,9,0,0,1,5.19-1.82c3.3,0,6.85,2.53,6.85,8.08v11.25c0,.1,0,.2,0,.28l.24-.15,25.2-17.64a9,9,0,0,1,5.18-1.82c3.3,0,6.86,2.53,6.86,8.08v80.59A11.27,11.27,0,0,1,283.17,285.37ZM212,193.25l-.24.16-25.6,19.12a9.15,9.15,0,0,0-4.14,7.24v54.35a3.75,3.75,0,0,0,3.75,3.75h97.45a3.75,3.75,0,0,0,3.75-3.75V193.53a2.53,2.53,0,0,0,0-.28l-.24.16-25.19,17.64a9.08,9.08,0,0,1-5.19,1.81c-3.3,0-6.85-2.53-6.85-8.08V193.53c0-.1,0-.19,0-.28l-.24.16L224,211.05a9,9,0,0,1-5.18,1.81c-3.3,0-6.86-2.53-6.86-8.08V193.25Z"/><rect class="cls-4" x="202.58" y="227.27" width="24.36" height="54.35"/><path class="cls-3" d="M227,285.37H202.58a3.74,3.74,0,0,1-3.74-3.75V227.27a3.74,3.74,0,0,1,3.74-3.75H227a3.75,3.75,0,0,1,3.75,3.75v54.35A3.75,3.75,0,0,1,227,285.37Zm-20.62-7.5H223.2V231H206.33Z"/><rect class="cls-4" x="241.94" y="227.27" width="24.36" height="54.35"/><path class="cls-3" d="M266.3,285.37H241.94a3.75,3.75,0,0,1-3.75-3.75V227.27a3.75,3.75,0,0,1,3.75-3.75H266.3a3.75,3.75,0,0,1,3.75,3.75v54.35A3.75,3.75,0,0,1,266.3,285.37Zm-20.61-7.5h16.87V231H245.69Z"/><rect class="cls-4" x="92.01" y="247.88" width="86.21" height="33.73"/><path class="cls-3" d="M178.22,285.37H92a3.75,3.75,0,0,1-3.75-3.75V247.88A3.74,3.74,0,0,1,92,244.14h86.21a3.74,3.74,0,0,1,3.75,3.74v33.74A3.75,3.75,0,0,1,178.22,285.37Zm-82.46-7.5h78.71V251.63H95.76Z"/><polygon class="cls-4" points="135.11 244.14 92.01 244.14 99.5 127.94 127.62 127.94 135.11 244.14"/><path class="cls-5" d="M135.15,247.88H92a3.73,3.73,0,0,1-3.74-4L95.76,127.7a3.76,3.76,0,0,1,3.75-3.51h28.11a3.76,3.76,0,0,1,3.74,3.51l7.46,115.67a3.79,3.79,0,0,1,.08.77A3.74,3.74,0,0,1,135.15,247.88ZM96,240.39h35.11l-7-108.7H103Z"/><polygon class="cls-4" points="178.22 244.14 135.11 244.14 142.61 171.04 170.72 171.04 178.22 244.14"/><path class="cls-5" d="M178.26,247.88H135.11a3.73,3.73,0,0,1-3.72-4.13l7.49-73.09a3.75,3.75,0,0,1,3.73-3.36h28.11a3.74,3.74,0,0,1,3.73,3.36l7.44,72.57a3.39,3.39,0,0,1,.11.91A3.73,3.73,0,0,1,178.26,247.88Zm-39-7.49h34.8l-6.73-65.6H146Z"/><rect class="cls-4" x="92.01" y="244.14" width="86.21" height="14.99"/><path class="cls-3" d="M178.22,262.88H92a3.75,3.75,0,0,1-3.75-3.75v-15A3.75,3.75,0,0,1,92,240.39h86.21a3.75,3.75,0,0,1,3.75,3.75v15A3.75,3.75,0,0,1,178.22,262.88Zm-82.46-7.5h78.71v-7.5H95.76Z"/><rect class="cls-4" x="84.51" y="279.74" width="213.65" height="22.49"/><path class="cls-3" d="M298.16,306H84.51a3.75,3.75,0,0,1-3.75-3.75V279.74A3.74,3.74,0,0,1,84.51,276H298.16a3.74,3.74,0,0,1,3.75,3.74v22.49A3.75,3.75,0,0,1,298.16,306Zm-209.9-7.49H294.42v-15H88.26Z"/><path class="cls-3" d="M298.16,306H84.51a5.62,5.62,0,0,1-5.62-5.62V277.87a5.62,5.62,0,0,1,5.62-5.62h1.88V244.14c0-.13,0-.25,0-.37l7.49-116.19a5.63,5.63,0,0,1,5.62-5.26h28.11a5.62,5.62,0,0,1,5.61,5.25l3.21,48.22.58-5.35a5.63,5.63,0,0,1,5.59-5h28.11a5.63,5.63,0,0,1,5.61,5.17L179,203.74l33.57-22.38a5.62,5.62,0,0,1,8.74,4.68v15.44l28.64-20a5.63,5.63,0,0,1,8.85,4.61v15.44l28.63-20a5.62,5.62,0,0,1,8.85,4.61v86.21h1.87a5.62,5.62,0,0,1,5.63,5.62v22.49A5.62,5.62,0,0,1,298.16,306Zm-208-11.24H292.54V283.49h-1.87a5.61,5.61,0,0,1-5.62-5.62v-81l-28.64,20a5.63,5.63,0,0,1-8.85-4.6V196.84l-28.63,20a5.63,5.63,0,0,1-8.85-4.6V196.54L182,215.28v25.11a5.62,5.62,0,0,1-11.23.45l-5.2-64.17H147.66l-7,64.32a5.55,5.55,0,0,1-5.7,5,5.63,5.63,0,0,1-5.5-5.25l-7.14-107.2H104.78L97.63,244.32v33.55A5.62,5.62,0,0,1,92,283.49H90.13Z"/><path class="cls-3" d="M127.62,148.55H99.51a3.75,3.75,0,1,1,0-7.49h28.11a3.75,3.75,0,1,1,0,7.49Z"/><path class="cls-3" d="M170.72,191.66H142.61a3.75,3.75,0,0,1,0-7.5h28.11a3.75,3.75,0,0,1,0,7.5Z"/><path class="cls-3" d="M153.86,159.8a3.75,3.75,0,0,1-3.75-3.75c0-8.83,6.16-15,15-15h20.62a3.75,3.75,0,0,1,0,7.49H165.1c-4.62,0-7.5,2.88-7.5,7.5A3.74,3.74,0,0,1,153.86,159.8Z"/><path class="cls-3" d="M112.62,116.69a3.73,3.73,0,0,1-3.74-3.74c0-8.83,6.16-15,15-15h20.61a3.75,3.75,0,0,1,0,7.5H123.87c-4.63,0-7.5,2.87-7.5,7.5A3.74,3.74,0,0,1,112.62,116.69Z"/><path class="cls-3" d="M170.72,105.45h-15a3.75,3.75,0,0,1,0-7.5h15a3.75,3.75,0,0,1,0,7.5Z"/><path class="cls-3" d="M202.58,148.55H197a3.75,3.75,0,1,1,0-7.49h5.62a3.75,3.75,0,1,1,0,7.49Z"/><path class="cls-3" d="M219.45,148.55h-5.62a3.75,3.75,0,1,1,0-7.49h5.62a3.75,3.75,0,1,1,0,7.49Z"/></svg>