<svg id="Layer_1" data-name="Layer 1" xmlns="http://www.w3.org/2000/svg" viewBox="0 0 696 174.88"><defs><style>.cls-1{fill:none;}.cls-2{fill:#ffce00;}.cls-3{fill:#57554b;}</style></defs><title>Menzies_Logo_Small_GreyOrange</title><path class="cls-1" d="M335.7,208.63c0-5.44-4.88-6-7-6h-9.63v12h9.63C330.82,214.59,335.7,214,335.7,208.63Z" transform="translate(-11.5 -61.98)"/><path class="cls-1" d="M33.75,208.2c0-5.06-4.8-5.6-6.87-5.6H17.47v11.25h9.41C28.95,213.85,33.75,213.3,33.75,208.2Z" transform="translate(-11.5 -61.98)"/><path class="cls-1" d="M74.74,202.6H65.11v12h9.63c2.1,0,7-.58,7-6S76.84,202.6,74.74,202.6Z" transform="translate(-11.5 -61.98)"/><path class="cls-1" d="M27.32,219.2H17.47v12h9.85c4.34,0,7-2.31,7-6S31.73,219.2,27.32,219.2Z" transform="translate(-11.5 -61.98)"/><path class="cls-2" d="M35.14,216.35a9.46,9.46,0,0,0,4.58-8.2c0-6.62-4.91-10.89-12.5-10.89H11.5v39.29H27.71c7.78,0,12.61-4.32,12.61-11.27A9.89,9.89,0,0,0,35.14,216.35Zm-.78,8.82c0,3.71-2.69,6-7,6H17.47v-12h9.85C31.73,219.2,34.35,221.44,34.35,225.17ZM17.47,213.85V202.6h9.41c2.06,0,6.87.54,6.87,5.6s-4.8,5.65-6.87,5.65Z" transform="translate(-11.5 -61.98)"/><path class="cls-2" d="M87.69,208.57c0-6.77-5-11.32-12.56-11.32h-16v39.29h6V219.89h8.05l9,16.65h6.94l-9.51-17.32A10.67,10.67,0,0,0,87.69,208.57Zm-6,.05c0,5.38-4.88,6-7,6H65.11v-12h9.63C76.84,202.6,81.72,203.19,81.72,208.63Z" transform="translate(-11.5 -61.98)"/><rect class="cls-2" x="94.62" y="135.27" width="5.97" height="39.29"/><path class="cls-2" d="M145.57,202.29a8.52,8.52,0,0,1,8.71,7l.16.68h6l-.18-1c-1.28-7.26-7-12-14.65-12a15.16,15.16,0,0,0-10.68,4.14c-4,3.79-4,7.81-4,15.82s0,12,4,15.82a15.83,15.83,0,0,0,21.83-.44c2.54-2.59,3.63-5.67,3.63-10.32v-6.84H144.69v5.3h9.68v2c0,2.79-.58,4.59-2,6.22a9.33,9.33,0,0,1-13,.53c-2.21-2.15-2.5-4.4-2.5-12.22s.29-10,2.5-12.18A8.85,8.85,0,0,1,145.57,202.29Z" transform="translate(-11.5 -61.98)"/><polygon class="cls-2" points="190.46 152.08 173.52 152.08 173.52 135.27 167.55 135.27 167.55 174.56 173.52 174.56 173.52 157.43 190.46 157.43 190.46 174.56 196.43 174.56 196.43 135.27 190.46 135.27 190.46 152.08"/><polygon class="cls-2" points="212.7 140.62 224.1 140.62 224.1 174.56 230.07 174.56 230.07 140.62 241.47 140.62 241.47 135.27 212.7 135.27 212.7 140.62"/><polygon class="cls-2" points="257.74 174.56 283.96 174.56 283.96 169.21 263.71 169.21 263.71 157.43 280.98 157.43 280.98 152.08 263.71 152.08 263.71 140.62 283.96 140.62 283.96 135.27 257.74 135.27 257.74 174.56"/><path class="cls-2" d="M341.67,208.57c0-6.77-5-11.32-12.56-11.32h-16v39.29h6V219.89h8.05l9,16.65h6.94l-9.51-17.32A10.67,10.67,0,0,0,341.67,208.57Zm-22.58-6h9.63c2.1,0,7,.59,7,6s-4.88,6-7,6h-9.63Z" transform="translate(-11.5 -61.98)"/><polygon class="cls-2" points="369.01 140.62 380.41 140.62 380.41 174.56 386.39 174.56 386.39 140.62 397.78 140.62 397.78 135.27 369.01 135.27 369.01 140.62"/><polygon class="cls-2" points="436.96 152.08 420.03 152.08 420.03 135.27 414.06 135.27 414.06 174.56 420.03 174.56 420.03 157.43 436.96 157.43 436.96 174.56 442.94 174.56 442.94 135.27 436.96 135.27 436.96 152.08"/><rect class="cls-2" x="463.25" y="135.27" width="5.97" height="39.29"/><polygon class="cls-2" points="514.43 163.33 495.12 135.65 494.86 135.27 489.53 135.27 489.53 174.56 495.5 174.56 495.5 146.4 515.08 174.56 520.4 174.56 520.4 135.27 514.43 135.27 514.43 163.33"/><polygon class="cls-2" points="571.24 135.27 563.76 135.27 546.68 155.31 546.68 135.27 540.71 135.27 540.71 174.56 546.68 174.56 546.68 163.52 553.97 155.19 565.61 174.56 572.67 174.56 558.01 150.73 571.24 135.27"/><rect class="cls-2" x="587.36" y="135.27" width="5.97" height="39.29"/><polygon class="cls-2" points="638.54 163.33 619.23 135.65 618.97 135.27 613.64 135.27 613.64 174.56 619.61 174.56 619.61 146.4 639.19 174.56 644.51 174.56 644.51 135.27 638.54 135.27 638.54 163.33"/><path class="cls-2" d="M688.61,220.42h9.68v2c0,2.79-.58,4.59-2,6.22a9.33,9.33,0,0,1-13,.53c-2.21-2.15-2.5-4.4-2.5-12.22s.29-10,2.5-12.18a8.85,8.85,0,0,1,6.19-2.43,8.52,8.52,0,0,1,8.71,7l.16.68h6l-.18-1c-1.28-7.26-7-12-14.65-12a15.16,15.16,0,0,0-10.68,4.14c-4,3.79-4,7.81-4,15.82s0,12,4,15.82a15.83,15.83,0,0,0,21.83-.44c2.54-2.59,3.63-5.67,3.63-10.31v-6.84H688.61Z" transform="translate(-11.5 -61.98)"/><polygon class="cls-3" points="546.24 6.2 600.4 6.2 600.4 18.07 559.57 18.07 559.57 46.48 592.82 46.48 592.82 58.42 559.57 58.42 559.57 87.36 600.32 87.36 600.32 99.23 546.24 99.23 546.24 6.2"/><polygon class="cls-3" points="139.36 6.2 193.52 6.2 193.52 18.07 152.7 18.07 152.7 46.48 185.94 46.48 185.94 58.42 152.7 58.42 152.7 87.36 193.44 87.36 193.44 99.23 139.36 99.23 139.36 6.2"/><polygon class="cls-3" points="240.73 99.08 253.11 99.08 253.11 33.87 315.1 105.07 315.1 6.2 302.6 6.2 302.6 71.74 240.73 0.28 240.73 99.08"/><rect class="cls-3" x="487.25" y="6.2" width="13.34" height="92.76"/><path class="cls-3" d="M682.69,122.31l-10.14-6.16Q663,110.33,659,104.7a21.72,21.72,0,0,1-4-13q0-11,7.63-17.87T682.43,67a37.56,37.56,0,0,1,21.41,6.55V88.67Q693.76,79,682.16,79a17.92,17.92,0,0,0-10.74,3,9.17,9.17,0,0,0-4.2,7.74,11.92,11.92,0,0,0,3.09,7.84q3.09,3.65,10,7.67l10.19,6q17,10.18,17,25.92,0,11.2-7.5,18.2t-19.51,7a41,41,0,0,1-25.14-8.49V137q10.8,13.69,25,13.69a15.71,15.71,0,0,0,10.44-3.49,10.93,10.93,0,0,0,4.17-8.74q0-8.5-12.27-16.14" transform="translate(-11.5 -61.98)"/><polygon class="cls-3" points="87.42 0 74.99 12.86 44.32 46.34 13.47 12.86 0.88 0 0.88 99.11 14.17 99.11 14.17 30.95 43.05 62.46 44.15 63.73 45.51 62.46 74.06 30.95 74.06 99.11 87.42 99.11 87.42 0"/><polygon class="cls-3" points="361.49 6.2 442.76 6.2 381.01 87.3 436.35 87.3 436.35 99.13 355.51 99.13 417.34 18.02 361.49 18.02 361.49 6.2"/></svg>