<svg id="Layer_1" data-name="Layer 1" xmlns="http://www.w3.org/2000/svg" viewBox="0 0 689.33 173.2"><defs><style>.cls-1{fill:#fff;}</style></defs><title>Menzies_Logo_Small_White</title><path class="cls-1" d="M38.24,215.71a9.37,9.37,0,0,0,4.54-8.12c0-6.55-4.86-10.79-12.38-10.79H14.83v38.91H30.89c7.71,0,12.49-4.28,12.49-11.16A9.79,9.79,0,0,0,38.24,215.71Zm-.78,8.74c0,3.68-2.67,6-7,6H20.75V218.54h9.76C34.87,218.54,37.47,220.75,37.47,224.45ZM20.75,213.24V202.09h9.32c2,0,6.8.54,6.8,5.55s-4.76,5.6-6.8,5.6Z" transform="translate(-14.83 -62.82)"/><path class="cls-1" d="M90.29,208c0-6.7-5-11.21-12.44-11.21H62v38.91h5.91v-16.5h8l8.88,16.5h6.88l-9.42-17.15A10.57,10.57,0,0,0,90.29,208Zm-5.91.05c0,5.33-4.83,5.91-6.91,5.91H67.93V202.09h9.54C79.55,202.09,84.38,202.68,84.38,208.06Z" transform="translate(-14.83 -62.82)"/><rect class="cls-1" x="93.71" y="133.97" width="5.91" height="38.91"/><path class="cls-1" d="M147.62,201.78a8.44,8.44,0,0,1,8.63,6.89l.16.68h5.9l-.18-1c-1.27-7.19-7-11.84-14.51-11.84a15,15,0,0,0-10.58,4.1c-3.94,3.76-3.94,7.74-3.94,15.67s0,11.91,3.94,15.66a15.68,15.68,0,0,0,21.62-.44c2.52-2.56,3.59-5.62,3.59-10.22v-6.77H146.74v5.25h9.59v1.94c0,2.76-.57,4.54-2,6.16a9.24,9.24,0,0,1-12.87.52C139.3,226.23,139,224,139,216.25s.29-9.93,2.48-12.06A8.76,8.76,0,0,1,147.62,201.78Z" transform="translate(-14.83 -62.82)"/><polygon class="cls-1" points="188.63 150.63 171.86 150.63 171.86 133.97 165.94 133.97 165.94 172.89 171.86 172.89 171.86 155.93 188.63 155.93 188.63 172.89 194.55 172.89 194.55 133.97 188.63 133.97 188.63 150.63"/><polygon class="cls-1" points="210.66 139.28 221.95 139.28 221.95 172.89 227.87 172.89 227.87 139.28 239.16 139.28 239.16 133.97 210.66 133.97 210.66 139.28"/><polygon class="cls-1" points="255.27 172.89 281.24 172.89 281.24 167.59 261.18 167.59 261.18 155.93 278.29 155.93 278.29 150.63 261.18 150.63 261.18 139.28 281.24 139.28 281.24 133.97 255.27 133.97 255.27 172.89"/><path class="cls-1" d="M341.84,208c0-6.7-5-11.21-12.44-11.21H313.56v38.91h5.91v-16.5h8l8.88,16.5h6.88l-9.42-17.15A10.56,10.56,0,0,0,341.84,208Zm-22.36-5.91H329c2.08,0,6.91.58,6.91,6S331.09,214,329,214h-9.54Z" transform="translate(-14.83 -62.82)"/><polygon class="cls-1" points="365.48 139.28 376.77 139.28 376.77 172.89 382.69 172.89 382.69 139.28 393.97 139.28 393.97 133.97 365.48 133.97 365.48 139.28"/><polygon class="cls-1" points="432.78 150.63 416 150.63 416 133.97 410.09 133.97 410.09 172.89 416 172.89 416 155.93 432.78 155.93 432.78 172.89 438.69 172.89 438.69 133.97 432.78 133.97 432.78 150.63"/><rect class="cls-1" x="458.81" y="133.97" width="5.91" height="38.91"/><polygon class="cls-1" points="509.5 161.77 490.38 134.35 490.12 133.97 484.84 133.97 484.84 172.89 490.75 172.89 490.75 145 510.14 172.89 515.42 172.89 515.42 133.97 509.5 133.97 509.5 161.77"/><polygon class="cls-1" points="565.76 133.97 558.37 133.97 541.45 153.82 541.45 133.97 535.53 133.97 535.53 172.89 541.45 172.89 541.45 161.96 548.66 153.71 560.2 172.89 567.18 172.89 552.67 149.29 565.76 133.97"/><rect class="cls-1" x="581.73" y="133.97" width="5.91" height="38.91"/><polygon class="cls-1" points="632.43 161.77 613.3 134.35 613.04 133.97 607.76 133.97 607.76 172.89 613.68 172.89 613.68 145 633.06 172.89 638.34 172.89 638.34 133.97 632.43 133.97 632.43 161.77"/><path class="cls-1" d="M685.46,219.74H695v1.94c0,2.76-.57,4.54-2,6.16a9.24,9.24,0,0,1-12.87.52c-2.18-2.13-2.48-4.36-2.48-12.11s.29-9.93,2.48-12.06a8.77,8.77,0,0,1,6.13-2.41,8.44,8.44,0,0,1,8.63,6.89l.16.68H701l-.18-1c-1.27-7.19-7-11.84-14.51-11.84a15,15,0,0,0-10.58,4.1c-3.95,3.76-3.95,7.74-3.95,15.67s0,11.91,3.94,15.66a15.68,15.68,0,0,0,21.62-.44c2.52-2.56,3.59-5.62,3.59-10.22v-6.77h-15.5Z" transform="translate(-14.83 -62.82)"/><polygon class="cls-1" points="541 6.14 594.65 6.14 594.65 17.9 554.21 17.9 554.21 46.03 587.14 46.03 587.14 57.86 554.21 57.86 554.21 86.52 594.57 86.52 594.57 98.28 541 98.28 541 6.14"/><polygon class="cls-1" points="138.03 6.14 191.67 6.14 191.67 17.9 151.24 17.9 151.24 46.03 184.16 46.03 184.16 57.86 151.24 57.86 151.24 86.52 191.59 86.52 191.59 98.28 138.03 98.28 138.03 6.14"/><polygon class="cls-1" points="238.42 98.13 250.69 98.13 250.69 33.54 312.08 104.06 312.08 6.14 299.7 6.14 299.7 71.05 238.42 0.27 238.42 98.13"/><rect class="cls-1" x="482.59" y="6.14" width="13.21" height="91.87"/><path class="cls-1" d="M679.6,122.57l-10-6.1q-9.45-5.76-13.44-11.35a21.51,21.51,0,0,1-4-12.85q0-10.9,7.56-17.7t19.65-6.8a37.2,37.2,0,0,1,21.2,6.49v15q-10-9.59-21.47-9.59a17.75,17.75,0,0,0-10.63,3,9.08,9.08,0,0,0-4.16,7.66,11.81,11.81,0,0,0,3.06,7.77q3.06,3.62,9.86,7.6l10.09,6q16.88,10.08,16.88,25.67,0,11.1-7.43,18t-19.32,6.94a40.59,40.59,0,0,1-24.9-8.4V137.11q10.7,13.55,24.77,13.56a15.56,15.56,0,0,0,10.34-3.46,10.83,10.83,0,0,0,4.13-8.66q0-8.42-12.15-16" transform="translate(-14.83 -62.82)"/><polygon class="cls-1" points="86.58 0 74.27 12.73 43.89 45.9 13.34 12.73 0.87 0 0.87 98.16 14.04 98.16 14.04 30.65 42.64 61.86 43.73 63.12 45.08 61.86 73.35 30.65 73.35 98.16 86.58 98.16 86.58 0"/><polygon class="cls-1" points="358.02 6.14 438.52 6.14 377.36 86.47 432.17 86.47 432.17 98.18 352.1 98.18 413.35 17.85 358.02 17.85 358.02 6.14"/></svg>