<svg id="Layer_1" data-name="Layer 1" xmlns="http://www.w3.org/2000/svg" viewBox="0 0 114 114"><defs><style>.cls-1{fill:#00a7e3;}.cls-2{fill:#59584e;stroke:#59584e;stroke-miterlimit:10;stroke-width:2px;}</style></defs><title>nfp-icon</title><circle class="cls-1" cx="57" cy="57" r="57"/><path class="cls-2" d="M221.22,369.89a9.7,9.7,0,0,1,3.6.86c4.28,1.63,8.56,3.24,12.81,4.93,1.13.45,2,.61,2.93-.43s2.52-1.36,3.9-1.74c6-1.68,12.06-3.44,18.2-4.75a18.11,18.11,0,0,1,10.42.66q8.89,3.37,17.8,6.7c1.23.46,1.58,1.06,1.05,2.36-1.73,4.26-3.41,8.53-5,12.85-.58,1.61-1.35,1.72-2.8,1.14-4.42-1.78-8.91-3.4-13.34-5.18a11.76,11.76,0,0,0-8-.32c-3.57,1.06-7.19,1.93-10.81,2.83a11.11,11.11,0,0,1-6.93-.46c-7.17-2.84-14.57-5.08-21.67-8.14a30.15,30.15,0,0,1-5.07-2.37,4.88,4.88,0,0,1,2.92-8.94Zm45.77.29a142.66,142.66,0,0,0-24.46,6.15c-1.91.64-1.52,2.38-1.21,3.86.34,1.64,1.57,1.7,2.91,1.46,2.51-.45,5-.87,7.53-1.34.78-.15,1.56-.22,1.74.7s-.66,1.14-1.39,1.27c-2.57.46-5.14,1-7.73,1.35-3.19.46-4.62-.62-5.14-3.86a2.14,2.14,0,0,0-1.5-2c-4.78-1.77-9.54-3.61-14.3-5.42a5.72,5.72,0,0,0-2.68-.48,2.84,2.84,0,0,0-2.49,1.92,2.62,2.62,0,0,0,.75,3,5.91,5.91,0,0,0,2.17,1.3l24.75,9.41a9,9,0,0,0,5.2.39,109.25,109.25,0,0,0,11.2-2.9,13.1,13.1,0,0,1,9.37.45c3.93,1.61,7.93,3,11.88,4.62,1.1.44,1.64.22,2.05-.91,1.19-3.25,2.39-6.5,3.76-9.68.58-1.36.17-1.79-1-2.24-4.59-1.71-9.14-3.55-13.74-5.24C272.17,371.13,269.73,370.08,267,370.18Z" transform="translate(-200 -308)"/><path class="cls-2" d="M264.62,341.12a18.3,18.3,0,0,1-6,13.28c-4,3.87-8.29,7.42-12.52,11a4.39,4.39,0,0,1-5.65.25c-5.08-4.45-10.71-8.29-15-13.63a19.4,19.4,0,0,1-3.29-6.2c-1.58-4.87.06-8.86,3.76-11.91a10,10,0,0,1,11.55-1.15,13.33,13.33,0,0,1,4.19,2.87c1.15,1.31,1.83,1,2.9-.07a13.7,13.7,0,0,1,7.75-3.92,9.22,9.22,0,0,1,8.11,2.87C262.81,336.81,264.83,339,264.62,341.12Zm-2.16,2.39c0-6.88-6.2-11.32-11.67-9.36a15.87,15.87,0,0,0-6.34,4.5c-.86.95-1.58,1.28-2.54.12a17.08,17.08,0,0,0-3.69-3.22c-4-2.69-7.6-2.61-11,.2-3.56,2.94-4.38,6.49-2.49,10.91a17.94,17.94,0,0,0,2.89,4.65c4.07,4.76,9.26,8.28,13.81,12.51a2.45,2.45,0,0,0,3.43,0c4.39-4,9.32-7.46,13.3-11.92C260.52,349.21,262.37,346.21,262.46,343.51Z" transform="translate(-200 -308)"/><path class="cls-2" d="M296.59,380.24c-.22.57-.48,1.31-.77,2l-4.47,11.47c-.29.75-.6,1.61-1.64,1.11-.88-.42-.54-1.16-.26-1.86q2.59-6.61,5.15-13.24c.25-.66.54-1.26,1.36-1.1S296.7,379.46,296.59,380.24Z" transform="translate(-200 -308)"/></svg>