<svg id="Layer_1" data-name="Layer 1" xmlns="http://www.w3.org/2000/svg" viewBox="0 0 382.68 382.68"><defs><style>.cls-1{fill:#13a7e0;}.cls-2{fill:#59584e;}.cls-3{opacity:0.5;}.cls-4{fill:#fff;}.cls-5{fill:#334754;}</style></defs><title>NEW ICONS</title><polygon class="cls-1" points="19.39 19.39 363.29 363.29 19.39 363.29 19.39 19.39"/><path class="cls-2" d="M191.34,113.42a5.19,5.19,0,0,1-5.19-5.19V96.14a5.19,5.19,0,1,1,10.37,0v12.09A5.18,5.18,0,0,1,191.34,113.42Z"/><g class="cls-3"><path class="cls-2" d="M269.69,298.39c0,11.28-38,19.33-83.54,19.33s-81.22-8.05-81.22-19.33S141.81,278,187.31,278,269.69,287.12,269.69,298.39Z"/></g><rect class="cls-4" x="155.05" y="139.34" width="72.59" height="155.54" rx="6.91"/><path class="cls-5" d="M220.72,298.34H162A10.38,10.38,0,0,1,151.59,288V146.26A10.38,10.38,0,0,1,162,135.89h58.76a10.38,10.38,0,0,1,10.37,10.37V288A10.38,10.38,0,0,1,220.72,298.34ZM162,142.8a3.46,3.46,0,0,0-3.46,3.46V288a3.46,3.46,0,0,0,3.46,3.46h58.76a3.46,3.46,0,0,0,3.45-3.46V146.26a3.46,3.46,0,0,0-3.45-3.46Z"/><rect class="cls-4" x="85.92" y="191.19" width="69.13" height="103.69" rx="6.91"/><path class="cls-2" d="M148.13,298.34H92.83A10.38,10.38,0,0,1,82.46,288V198.1a10.38,10.38,0,0,1,10.37-10.37h55.3A10.38,10.38,0,0,1,158.5,198.1V288A10.38,10.38,0,0,1,148.13,298.34ZM92.83,194.65a3.46,3.46,0,0,0-3.46,3.45V288a3.46,3.46,0,0,0,3.46,3.46h55.3a3.46,3.46,0,0,0,3.46-3.46V198.1a3.46,3.46,0,0,0-3.46-3.45Z"/><rect class="cls-4" x="227.63" y="191.19" width="69.13" height="103.69" rx="6.91"/><path class="cls-2" d="M289.85,298.34H234.54A10.39,10.39,0,0,1,224.17,288V198.1a10.39,10.39,0,0,1,10.37-10.37h55.31a10.38,10.38,0,0,1,10.37,10.37V288A10.38,10.38,0,0,1,289.85,298.34ZM234.54,194.65a3.46,3.46,0,0,0-3.45,3.45V288a3.46,3.46,0,0,0,3.45,3.46h55.31A3.46,3.46,0,0,0,293.3,288V198.1a3.46,3.46,0,0,0-3.45-3.45Z"/><rect class="cls-4" x="241.46" y="215.38" width="13.83" height="77.77"/><path class="cls-2" d="M255.28,296.61H241.46a3.46,3.46,0,0,1-3.46-3.46V215.38a3.46,3.46,0,0,1,3.46-3.45h13.82a3.46,3.46,0,0,1,3.46,3.45v77.77A3.46,3.46,0,0,1,255.28,296.61Zm-10.37-6.91h6.92V218.84h-6.92Z"/><rect class="cls-4" x="267.38" y="215.38" width="13.83" height="77.77"/><path class="cls-2" d="M281.21,296.61H267.38a3.46,3.46,0,0,1-3.46-3.46V215.38a3.46,3.46,0,0,1,3.46-3.45h13.83a3.46,3.46,0,0,1,3.45,3.45v77.77A3.46,3.46,0,0,1,281.21,296.61Zm-10.37-6.91h6.91V218.84h-6.91Z"/><rect class="cls-4" x="101.47" y="215.38" width="13.83" height="13.83"/><path class="cls-2" d="M115.3,232.67H101.47A3.46,3.46,0,0,1,98,229.21V215.38a3.46,3.46,0,0,1,3.46-3.45H115.3a3.45,3.45,0,0,1,3.45,3.45v13.83A3.45,3.45,0,0,1,115.3,232.67Zm-10.37-6.92h6.91v-6.91h-6.91Z"/><rect class="cls-4" x="127.39" y="215.38" width="13.83" height="13.83"/><path class="cls-2" d="M141.22,232.67H127.39a3.46,3.46,0,0,1-3.45-3.46V215.38a3.46,3.46,0,0,1,3.45-3.45h13.83a3.46,3.46,0,0,1,3.46,3.45v13.83A3.46,3.46,0,0,1,141.22,232.67Zm-10.37-6.92h6.91v-6.91h-6.91Z"/><rect class="cls-4" x="101.47" y="239.58" width="13.83" height="53.57"/><path class="cls-2" d="M115.3,296.61H101.47A3.46,3.46,0,0,1,98,293.15V239.58a3.46,3.46,0,0,1,3.46-3.46H115.3a3.45,3.45,0,0,1,3.45,3.46v53.57A3.45,3.45,0,0,1,115.3,296.61Zm-10.37-6.91h6.91V243h-6.91Z"/><rect class="cls-4" x="127.39" y="239.58" width="13.83" height="53.57"/><path class="cls-2" d="M141.22,296.61H127.39a3.46,3.46,0,0,1-3.45-3.46V239.58a3.46,3.46,0,0,1,3.45-3.46h13.83a3.46,3.46,0,0,1,3.46,3.46v53.57A3.46,3.46,0,0,1,141.22,296.61Zm-10.37-6.91h6.91V243h-6.91Z"/><rect class="cls-4" x="168.87" y="163.54" width="44.93" height="13.83"/><path class="cls-2" d="M213.81,180.82H168.87a3.45,3.45,0,0,1-3.45-3.46V163.54a3.45,3.45,0,0,1,3.45-3.46h44.94a3.46,3.46,0,0,1,3.45,3.46v13.82A3.46,3.46,0,0,1,213.81,180.82Zm-41.48-6.91h38V167h-38Z"/><rect class="cls-4" x="168.87" y="189.46" width="44.93" height="13.83"/><path class="cls-2" d="M213.81,206.74H168.87a3.44,3.44,0,0,1-3.45-3.45V189.46a3.45,3.45,0,0,1,3.45-3.46h44.94a3.46,3.46,0,0,1,3.45,3.46v13.83A3.45,3.45,0,0,1,213.81,206.74Zm-41.48-6.91h38v-6.91h-38Z"/><rect class="cls-4" x="168.87" y="215.38" width="44.93" height="13.83"/><path class="cls-2" d="M213.81,232.67H168.87a3.45,3.45,0,0,1-3.45-3.46V215.38a3.45,3.45,0,0,1,3.45-3.45h44.94a3.46,3.46,0,0,1,3.45,3.45v13.83A3.46,3.46,0,0,1,213.81,232.67Zm-41.48-6.92h38v-6.91h-38Z"/><rect class="cls-4" x="168.87" y="241.31" width="44.93" height="13.83"/><path class="cls-2" d="M213.81,258.59H168.87a3.45,3.45,0,0,1-3.45-3.46V241.31a3.45,3.45,0,0,1,3.45-3.46h44.94a3.46,3.46,0,0,1,3.45,3.46v13.82A3.46,3.46,0,0,1,213.81,258.59Zm-41.48-6.91h38v-6.92h-38Z"/><rect class="cls-4" x="168.87" y="267.23" width="44.93" height="13.83"/><path class="cls-2" d="M213.81,284.51H168.87a3.44,3.44,0,0,1-3.45-3.45V267.23a3.45,3.45,0,0,1,3.45-3.46h44.94a3.46,3.46,0,0,1,3.45,3.46v13.83A3.45,3.45,0,0,1,213.81,284.51Zm-41.48-6.91h38v-6.91h-38Z"/><rect class="cls-4" x="101.47" y="173.91" width="38.02" height="17.28"/><path class="cls-2" d="M139.49,194.65h-38A3.46,3.46,0,0,1,98,191.19V173.91a3.46,3.46,0,0,1,3.46-3.46h38a3.46,3.46,0,0,1,3.46,3.46v17.28A3.46,3.46,0,0,1,139.49,194.65Zm-34.56-6.92H136V177.36H104.93Z"/><rect class="cls-4" x="168.87" y="122.06" width="44.93" height="17.28"/><path class="cls-2" d="M213.81,142.8H168.87a3.45,3.45,0,0,1-3.45-3.46V122.06a3.45,3.45,0,0,1,3.45-3.46h44.94a3.46,3.46,0,0,1,3.45,3.46v17.28A3.46,3.46,0,0,1,213.81,142.8Zm-41.48-6.91h38V125.52h-38Z"/><rect class="cls-4" x="182.7" y="104.78" width="17.28" height="17.28"/><path class="cls-2" d="M200,125.52H182.7a3.46,3.46,0,0,1-3.46-3.46V104.78a3.46,3.46,0,0,1,3.46-3.46H200a3.46,3.46,0,0,1,3.46,3.46v17.28A3.46,3.46,0,0,1,200,125.52Zm-13.83-6.92h10.37V108.23H186.15Z"/><path class="cls-2" d="M289.85,298.34h-197a12.12,12.12,0,0,1-12.1-12.1V196.37a12.11,12.11,0,0,1,12.1-12.09h1.73V173.91a5.18,5.18,0,0,1,5.18-5.19h38a5.19,5.19,0,0,1,5.19,5.19v10.37h5.18V144.53a12.12,12.12,0,0,1,12.1-12.1H162v-12.1a5.18,5.18,0,0,1,5.18-5.18h8.64v-12.1A5.19,5.19,0,0,1,181,97.87h20.74a5.18,5.18,0,0,1,5.18,5.18v12.1h8.64a5.18,5.18,0,0,1,5.19,5.18v12.1h1.73a12.11,12.11,0,0,1,12.09,12.1v39.75h55.31a12.1,12.1,0,0,1,12.09,12.09v89.87A12.11,12.11,0,0,1,289.85,298.34Zm-197-103.69a1.75,1.75,0,0,0-1.73,1.72v89.87A1.75,1.75,0,0,0,92.83,288h197a1.76,1.76,0,0,0,1.73-1.73V196.37a1.75,1.75,0,0,0-1.73-1.72H229.36a5.2,5.2,0,0,1-5.19-5.19V144.53a1.75,1.75,0,0,0-1.72-1.73h-6.92a5.18,5.18,0,0,1-5.18-5.19V125.52h-8.64a5.19,5.19,0,0,1-5.19-5.19v-12.1H186.15v12.1a5.18,5.18,0,0,1-5.18,5.19h-8.64v12.09a5.19,5.19,0,0,1-5.19,5.19h-6.91a1.75,1.75,0,0,0-1.73,1.73v44.93a5.19,5.19,0,0,1-5.18,5.19H137.76a5.19,5.19,0,0,1-5.18-5.19V179.09H104.93v10.37a5.19,5.19,0,0,1-5.19,5.19Z"/></svg>