<svg id="Layer_1" data-name="Layer 1" xmlns="http://www.w3.org/2000/svg" xmlns:xlink="http://www.w3.org/1999/xlink" viewBox="0 0 1596 1596"><defs><style>.cls-1{fill:none;}.cls-2{fill:#469ec8;}.cls-3{opacity:0.5;}.cls-4,.cls-6{fill:#3d3a31;}.cls-10,.cls-4{opacity:0.65;}.cls-5{fill:#ffb912;}.cls-7{fill:#1f2938;opacity:0.2;}.cls-8{fill:#fff;}.cls-9{clip-path:url(#clip-path);}.cls-11{fill:#b4b2a7;}.cls-12{fill:#464241;}</style><clipPath id="clip-path"><path class="cls-1" d="M854.77,529.2c98.37,95.28,98.37,249.76,0,345s-257.85,95.26-356.22,0-98.38-249.76,0-345S756.41,433.92,854.77,529.2Z"/></clipPath></defs><polygon class="cls-2" points="83.9 86.71 1506.54 1509.32 83.9 1509.32 83.9 86.71"/><g class="cls-3"><path class="cls-4" d="M1244.09,1280.85c0,63-212.89,114.13-475.5,114.13s-475.5-51.1-475.5-114.13S506,1166.71,768.59,1166.71,1244.09,1217.82,1244.09,1280.85Z"/></g><path class="cls-5" d="M560.91,578.58c38.79-37.57,102-37.31,140.47.58l534.22,526.36a95.73,95.73,0,0,1-.6,137.22l-10,9.71c-38.8,37.57-102.55,37.84-141.68.58L539.87,735.6a93.8,93.8,0,0,1-.6-136.06Z"/><path class="cls-6" d="M1153.83,1309.83a132.41,132.41,0,0,1-91.51-36.13L518.89,756.27c-24.66-23.48-38.32-54.89-38.47-88.46s13.23-65.08,37.68-88.76l21.64-19c24.32-23.56,56.65-34.59,91.09-34.59h.56c34.65,0,67.09,11.45,91.33,35.33L1257,1086.16c50,49.29,49.67,128.68-.79,177.56l-10,9.46C1220.77,1297.76,1187.3,1309.82,1153.83,1309.83Zm-523-726.44c-18.46,0-33.57,5-53.52,17.6v-1l-19.27,20.48c-13.07,12.67-19,29.32-19,47.3s8,34.68,21.16,47.24L1104,1232.42c27.56,26.25,72.36,26,99.68-.44l10.09-9.72a67.13,67.13,0,0,0,.47-96.4L680,601.4c-13-12.77-30.31-18-48.88-18Z"/><polygon class="cls-7" points="1034.61 953.94 1100.36 1017.62 993.52 1121.1 927.77 1057.42 1034.61 953.94"/><path class="cls-8" d="M964.45,458c152.8,148,152.8,387.94,0,535.93s-400.53,148-553.32,0S258.33,606,411.13,458,811.66,310,964.45,458Z"/><path class="cls-6" d="M687.79,1133.73c-107.86,0-215.71-39.76-297.82-119.3C310.41,937.39,266.6,834.94,266.6,726S310.41,514.56,390,437.51,575.28,318,687.79,318s218.27,42.44,297.82,119.49S1109,617,1109,726s-43.82,211.42-123.37,288.46C903.5,1094,795.64,1133.73,687.79,1133.73Zm0-757.73c-96.52,0-187.26,36.4-255.5,102.5C291.4,615,291.4,837,432.29,973.45s370.11,136.45,511,0,140.88-358.49,0-494.95h0C875,412.4,784.3,376,687.79,376Z"/><path class="cls-8" d="M865.9,553.46c98.37,95.28,98.37,249.75,0,345s-257.85,95.27-356.22,0-98.38-249.75,0-345S767.54,458.18,865.9,553.46Z"/><g class="cls-9"><g class="cls-10"><polygon class="cls-11" points="422.09 707.99 699.77 451.32 752.94 500.47 445.72 784.45 422.09 707.99"/></g><g class="cls-10"><polygon class="cls-11" points="470.01 845.61 831.36 495.63 864.21 527.45 502.86 877.43 470.01 845.61"/></g></g><path class="cls-6" d="M695.76,989.27c-149.89,0-271.84-118.11-271.84-263.3s122-263.29,271.84-263.29S967.6,580.79,967.6,726c0,10.68-8.93,19.33-20,19.33S927.7,736.65,927.7,726c0-123.86-104-224.64-231.94-224.64S463.82,602.11,463.82,726,567.87,950.62,695.76,950.62c11,0,20,8.66,20,19.33S706.78,989.27,695.76,989.27Z"/><path class="cls-8" d="M726.29,803.68a28.65,28.65,0,0,1-28.65,28.65h0A28.65,28.65,0,0,1,669,803.68V727.27a28.66,28.66,0,0,1,28.65-28.66h0a28.65,28.65,0,0,1,28.65,28.66Z"/><path class="cls-6" d="M697.64,841.88a38.25,38.25,0,0,1-38.2-38.2V725.82a38.21,38.21,0,1,1,76.41,0v77.86A38.25,38.25,0,0,1,697.64,841.88Zm0-135.16a19.12,19.12,0,0,0-19.1,19.1v77.86a19.1,19.1,0,0,0,38.2,0V725.82A19.12,19.12,0,0,0,697.64,706.72Z"/><path class="cls-8" d="M812,660.38a116.17,116.17,0,0,0-231.8,0c-.19,0-.31,8-.31,8V800.49c79.6,0,92.33-66.86,92.33-66.86,10-27,4.61-44.23-7.47-55.21,22.65-7.5,46-20.71,64.83-43.53,9.54,9.53,19.72,19.68,30.54,28.43-29.44,6.52-57.21,24.23-40.14,70.31,0,0,12.73,66.86,92.32,66.86V668.37S812.14,660.4,812,660.38Z"/><path class="cls-6" d="M821.81,810h-9.56c-81.12,0-99.41-65-101.49-73.67-7.54-20.68-7.47-38.32.22-52.43,5.87-10.76,15.88-19,29.86-24.71-3.75-3.48-7.38-7-10.88-10.44a146.72,146.72,0,0,1-49.57,33.93c6.81,11.66,10,28.88,1,53.65C679.26,745.06,661,810,579.84,810h-9.55V668.37a70.27,70.27,0,0,1,.46-8.63h-.13c4.46-65.67,59.56-117.12,125.43-117.12s121,51.45,125.43,117.12h-.12a61.49,61.49,0,0,1,.45,8.49Zm-93-189.34,7.44,7.43c9,9,19.18,19.19,29.78,27.76l15.42,12.47-19.36,4.28c-17.53,3.88-29.1,10.76-34.37,20.45-5,9.18-4.63,21.7,1.12,37.23l.43,1.53c.45,2.26,11.45,53.87,73.39,58.73V668.37c0-1.52-.06-3.33-.1-4.71l-.18-2.63c-3.78-55.69-50.51-99.32-106.37-99.32S593.46,605.34,589.68,661l-.18,2.62c0,1.4-.11,3.25-.11,4.85V790.58c60.49-4.86,73-56.47,73.41-58.77l.41-1.49c7.53-20.31,5.91-35-4.93-44.83l-12.1-11,15.52-5.14c24.7-8.18,45-21.82,60.46-40.54Z"/><path class="cls-8" d="M729.53,619c-34.82,42.28-85.33,51.57-117.85,52.69v30.6a84.37,84.37,0,0,0,168.74,0v-41C761.81,651.19,744.84,634.27,729.53,619Z"/><path class="cls-6" d="M696.05,793a90.84,90.84,0,0,1-90.74-90.73v-30.6a6.38,6.38,0,0,1,6.15-6.37c33.65-1.15,80.59-10.82,113.16-50.37a6.32,6.32,0,0,1,4.61-2.31,6.47,6.47,0,0,1,4.8,1.86c14.77,14.76,31.5,31.49,49.41,41.16a6.37,6.37,0,0,1,3.35,5.61v41A90.84,90.84,0,0,1,696.05,793Zm-78-115.26v24.53a78,78,0,0,0,156,0V665c-16.2-9.5-30.91-23.47-44.18-36.66C696.65,664.86,652.14,675.61,618.05,677.73Z"/><circle class="cls-12" cx="653.07" cy="701.8" r="9.55"/><circle class="cls-12" cx="742.21" cy="701.8" r="9.55"/><path class="cls-5" d="M672.17,733.63c0,13.19,10.69,25.47,23.88,25.47h0c13.19,0,23.88-12.28,23.88-25.47Z"/><path class="cls-6" d="M567.11,889.64a9.46,9.46,0,0,1-3.4-.63,9.56,9.56,0,0,1-5.53-12.33c27.6-72.45,107.81-69.89,108.63-69.84a9.55,9.55,0,0,1-.8,19.09c-2.76-.09-67.34-1.86-90,57.56A9.55,9.55,0,0,1,567.11,889.64Z"/><path class="cls-6" d="M828.18,889.64a9.55,9.55,0,0,1-8.93-6.15c-22.75-59.73-87.7-57.62-88.36-57.59a9.55,9.55,0,1,1-.83-19.08c.78,0,79.44-2.6,107,69.86A9.55,9.55,0,0,1,831.57,889,9.41,9.41,0,0,1,828.18,889.64Z"/></svg>