<svg id="Layer_1" data-name="Layer 1" xmlns="http://www.w3.org/2000/svg" xmlns:xlink="http://www.w3.org/1999/xlink" viewBox="0 0 1596 1596"><defs><style>.cls-1{fill:none;}.cls-2{fill:#ffc012;}.cls-3{opacity:0.5;}.cls-4,.cls-6{fill:#3d3a31;}.cls-10,.cls-4{opacity:0.65;}.cls-5{fill:#ffb912;}.cls-7{fill:#1f2938;opacity:0.2;}.cls-8{fill:#fff;}.cls-9{clip-path:url(#clip-path);}.cls-11{fill:#b4b2a7;}.cls-12{fill:#464241;}</style><clipPath id="clip-path"><path class="cls-1" d="M858,527.06c98.44,95.34,98.44,249.93,0,345.28s-258,95.34-356.48,0-98.45-249.94,0-345.28S759.54,431.71,858,527.06Z"/></clipPath></defs><polygon class="cls-2" points="86.55 84.25 1510.2 1507.87 86.55 1507.87 86.55 84.25"/><g class="cls-3"><path class="cls-4" d="M1247.58,1279.25c0,63.07-213,114.21-475.85,114.21s-475.84-51.14-475.84-114.21S508.93,1165,771.73,1165,1247.58,1216.16,1247.58,1279.25Z"/></g><path class="cls-5" d="M563.9,576.47c38.83-37.6,102.08-37.34,140.57.59l534.61,526.73a95.79,95.79,0,0,1-.61,137.32l-10,9.71c-38.83,37.6-102.63,37.86-141.78.58L542.85,733.6a93.85,93.85,0,0,1-.6-136.15Z"/><path class="cls-6" d="M1157.25,1308.24a132.5,132.5,0,0,1-91.57-36.15L521.86,754.29c-24.68-23.5-38.35-54.93-38.5-88.52s13.24-65.13,37.71-88.83l21.65-19.06c24.33-23.56,56.69-34.61,91.15-34.61h.57c34.67,0,67.13,11.46,91.39,35.36l534.61,525.78c50.06,49.33,49.7,128.78-.79,177.69l-10,9.46C1224.23,1296.16,1190.74,1308.23,1157.25,1308.24Zm-523.37-727c-18.47,0-33.59,5-53.55,17.62v-1l-19.28,20.49c-13.09,12.69-19.06,29.34-19,47.33s8,34.71,21.18,47.27l544.12,517.74c27.58,26.27,72.41,26.06,99.75-.43l10.1-9.72a67.19,67.19,0,0,0,.47-96.48L683.1,599.31c-13-12.78-30.34-18-48.92-18Z"/><polygon class="cls-7" points="1037.94 952.1 1103.73 1015.83 996.82 1119.38 931.03 1055.66 1037.94 952.1"/><path class="cls-8" d="M967.73,455.81c152.91,148.1,152.91,388.22,0,536.32s-400.82,148.09-553.72,0-152.9-388.22,0-536.32S814.83,307.71,967.73,455.81Z"/><path class="cls-6" d="M690.87,1132c-107.93,0-215.86-39.79-298-119.37C313.23,935.53,269.38,833,269.38,724s43.85-211.56,123.46-288.66,185.45-119.58,298-119.58,218.43,42.47,298,119.58S1112.36,614.92,1112.36,724s-43.84,211.56-123.46,288.67C906.74,1092.22,798.8,1132,690.87,1132Zm0-758.27c-96.58,0-187.39,36.43-255.68,102.58-141,136.56-141,358.75,0,495.3s370.38,136.55,511.37,0,141-358.74,0-495.3h0C878.26,410.17,787.46,373.74,690.87,373.74Z"/><path class="cls-8" d="M869.11,551.33c98.44,95.35,98.44,249.94,0,345.28s-258,95.34-356.48,0-98.44-249.93,0-345.28S770.68,456,869.11,551.33Z"/><g class="cls-9"><g class="cls-10"><polygon class="cls-11" points="424.99 705.98 702.86 449.12 756.07 498.31 448.63 782.49 424.99 705.98"/></g><g class="cls-10"><polygon class="cls-11" points="472.94 843.69 834.55 493.46 867.42 525.3 505.81 875.53 472.94 843.69"/></g></g><path class="cls-6" d="M698.85,987.45c-150,0-272-118.19-272-263.48s122-263.48,272-263.48,272,118.19,272,263.48c0,10.68-8.94,19.34-20,19.34s-20-8.66-20-19.34c0-124-104.12-224.81-232.11-224.81S466.75,600,466.75,724s104.12,224.81,232.1,224.81c11,0,20,8.66,20,19.34S709.88,987.45,698.85,987.45Z"/><path class="cls-8" d="M727.51,803a28.66,28.66,0,0,1-28.66,28.66h0A28.66,28.66,0,0,1,670.2,803V726.59a28.65,28.65,0,0,1,28.65-28.65h0a28.66,28.66,0,0,1,28.66,28.65Z"/><path class="cls-6" d="M698.85,841.21A38.25,38.25,0,0,1,660.65,803V725.14a38.21,38.21,0,0,1,76.41,0V803A38.25,38.25,0,0,1,698.85,841.21Zm0-135.17a19.12,19.12,0,0,0-19.1,19.1V803a19.1,19.1,0,0,0,38.2,0V725.14A19.12,19.12,0,0,0,698.85,706Z"/><path class="cls-8" d="M813.16,659.71a116.17,116.17,0,0,0-231.8,0c-.19,0-.31,8-.31,8V799.82c79.6,0,92.33-66.86,92.33-66.86,10-27,4.62-44.23-7.47-55.21,22.66-7.51,46-20.71,64.83-43.54,9.54,9.53,19.72,19.69,30.54,28.43-29.44,6.52-57.21,24.23-40.14,70.32,0,0,12.73,66.86,92.33,66.86V667.69S813.35,659.72,813.16,659.71Z"/><path class="cls-6" d="M823,809.37h-9.55c-81.13,0-99.42-65-101.5-73.67-7.54-20.69-7.47-38.32.22-52.43,5.87-10.76,15.88-19,29.86-24.72-3.75-3.47-7.38-7-10.87-10.43a146.9,146.9,0,0,1-49.58,33.93c6.81,11.66,10,28.87.95,53.65-2.08,8.69-20.37,73.67-101.5,73.67H571.5V667.69a70.1,70.1,0,0,1,.46-8.62h-.13c4.46-65.68,59.56-117.12,125.43-117.12s121,51.44,125.43,117.12h-.12a61.41,61.41,0,0,1,.45,8.49ZM730.06,620l7.44,7.44c9,9,19.18,19.18,29.79,27.75l15.41,12.47L763.35,672c-17.54,3.88-29.1,10.76-34.38,20.44-5,9.18-4.62,21.71,1.13,37.23l.42,1.53c.45,2.27,11.45,53.88,73.4,58.73V667.69c0-1.51-.07-3.32-.11-4.71l-.18-2.63C799.85,604.66,753.12,561,697.26,561s-102.59,43.62-106.37,99.31l-.18,2.63c0,1.4-.1,3.25-.1,4.85V789.9c60.49-4.85,72.94-56.46,73.4-58.76l.41-1.5c7.53-20.31,5.91-35-4.93-44.83l-12.1-11,15.52-5.14c24.7-8.18,45-21.82,60.46-40.54Z"/><path class="cls-8" d="M730.74,618.29c-34.82,42.29-85.33,51.58-117.85,52.69v30.6a84.37,84.37,0,1,0,168.74,0v-41C763,650.51,746.05,633.6,730.74,618.29Z"/><path class="cls-6" d="M697.26,792.32a90.85,90.85,0,0,1-90.74-90.74V671a6.37,6.37,0,0,1,6.15-6.36c33.65-1.15,80.59-10.83,113.16-50.38a6.39,6.39,0,0,1,4.61-2.31,6.58,6.58,0,0,1,4.81,1.86c14.76,14.76,31.49,31.5,49.4,41.17a6.37,6.37,0,0,1,3.35,5.6v41A90.85,90.85,0,0,1,697.26,792.32Zm-78-115.27v24.53a78,78,0,1,0,156,0v-37.3c-16.2-9.49-30.91-23.47-44.18-36.65C697.86,664.18,653.35,674.93,619.26,677.05Z"/><circle class="cls-12" cx="654.28" cy="701.12" r="9.55"/><circle class="cls-12" cx="743.42" cy="701.12" r="9.55"/><path class="cls-5" d="M673.38,733c0,13.19,10.69,25.47,23.88,25.47h0c13.19,0,23.88-12.28,23.88-25.47Z"/><path class="cls-6" d="M568.32,889a9.68,9.68,0,0,1-3.4-.63A9.56,9.56,0,0,1,559.39,876C587,803.56,667.2,806.11,668,806.17a9.55,9.55,0,0,1-.8,19.08c-2.76-.08-67.34-1.86-90,57.56A9.55,9.55,0,0,1,568.32,889Z"/><path class="cls-6" d="M829.39,889a9.56,9.56,0,0,1-8.93-6.16c-22.75-59.72-87.7-57.62-88.36-57.58a9.55,9.55,0,1,1-.83-19.08c.79,0,79.44-2.6,107,69.86a9.57,9.57,0,0,1-8.92,13Z"/></svg>