<?xml version="1.0" encoding="utf-8"?>
<!-- Generator: Adobe Illustrator 25.4.1, SVG Export Plug-In . SVG Version: 6.00 Build 0)  -->
<svg version="1.1" id="Layer_1" xmlns="http://www.w3.org/2000/svg" xmlns:xlink="http://www.w3.org/1999/xlink" x="0px" y="0px"
	 viewBox="0 0 382.68 382.68" style="enable-background:new 0 0 382.68 382.68;" xml:space="preserve">
<style type="text/css">
	.st0{fill:#FCC306;}
	.st1{fill:#FFFFFF;}
	.st2{fill:#59584E;}
	.st3{opacity:0.5;fill:#59584E;}
	.st4{fill:#86C071;}
	.st5{opacity:0.2;fill:#59584E;}
</style>
<g>
	<polygon class="st0" points="19.39,19.39 363.29,363.29 19.39,363.29 	"/>
</g>
<g>
	<path class="st1" d="M302.7,159.65l-10.22-19.43c-0.98-1.85-3.49-3.41-5.58-3.41H96.38c-2.09,0-4.64,1.54-5.65,3.37l-10.75,19.45"
		/>
	<path class="st2" d="M287.47,142.52l10.18,19.8c1.02,1.94,3.01,3.05,5.06,3.05c0.9,0,1.81-0.22,2.66-0.67
		c2.79-1.47,3.86-4.93,2.39-7.73l-10.22-19.41c-1.96-3.72-6.43-6.46-10.63-6.46H96.38c-4.16,0-8.63,2.68-10.65,6.32l-10.75,19.47
		c-1.53,2.76-0.53,6.23,2.23,7.76c2.76,1.53,6.24,0.53,7.76-2.23l10.68-19.32c0.15-0.19,1.34-0.54,1.45-0.57H287.47z"/>
	<path class="st3" d="M281.76,295.17c0,12.42-40.63,22.49-90.74,22.49c-50.11,0-90.74-10.07-90.74-22.49
		c0-12.42,40.62-22.49,90.74-22.49C241.14,272.68,281.76,282.75,281.76,295.17z"/>
	<polygon class="st1" points="264.63,289.1 118.05,289.1 95.21,174.88 287.47,174.88 	"/>
	<rect x="100.92" y="186.3" class="st4" width="180.84" height="15.23"/>
	<polygon class="st0" points="302.7,161.55 302.7,188.2 291.28,188.2 291.28,182.49 93.3,182.49 93.3,188.2 79.98,188.2 
		79.98,161.55 	"/>
	<polygon class="st1" points="291.28,182.49 291.28,188.2 284.81,188.2 284.42,190.11 264.63,289.1 118.05,289.1 98.25,190.11 
		97.87,188.2 93.3,188.2 93.3,182.49 	"/>
	<path class="st1" d="M138.04,258.64L138.04,258.64c-4.71,0-8.57-3.85-8.57-8.57v-24.75c0-4.71,3.86-8.57,8.57-8.57l0,0
		c4.71,0,8.57,3.85,8.57,8.57v24.75C146.61,254.79,142.75,258.64,138.04,258.64z"/>
	<path class="st2" d="M138.04,262.45c-6.82,0-12.37-5.55-12.37-12.37v-24.75c0-6.82,5.55-12.37,12.37-12.37s12.37,5.55,12.37,12.37
		v24.75C150.42,256.9,144.86,262.45,138.04,262.45z M138.04,220.57c-2.62,0-4.76,2.13-4.76,4.76v24.75c0,2.62,2.14,4.76,4.76,4.76
		c2.62,0,4.76-2.13,4.76-4.76v-24.75C142.8,222.7,140.67,220.57,138.04,220.57z"/>
	<rect x="102.83" y="190.11" class="st5" width="178.94" height="15.23"/>
	<path class="st1" d="M174.21,258.64L174.21,258.64c-4.71,0-8.57-3.85-8.57-8.57v-24.75c0-4.71,3.86-8.57,8.57-8.57l0,0
		c4.71,0,8.57,3.85,8.57,8.57v24.75C182.78,254.79,178.92,258.64,174.21,258.64z"/>
	<path class="st2" d="M174.21,262.45c-6.82,0-12.37-5.55-12.37-12.37v-24.75c0-6.82,5.55-12.37,12.37-12.37
		c6.82,0,12.37,5.55,12.37,12.37v24.75C186.58,256.9,181.03,262.45,174.21,262.45z M174.21,220.57c-2.62,0-4.76,2.13-4.76,4.76
		v24.75c0,2.62,2.14,4.76,4.76,4.76s4.76-2.13,4.76-4.76v-24.75C178.97,222.7,176.83,220.57,174.21,220.57z"/>
	<path class="st1" d="M210.38,258.64L210.38,258.64c-4.71,0-8.57-3.85-8.57-8.57v-24.75c0-4.71,3.86-8.57,8.57-8.57l0,0
		c4.71,0,8.57,3.85,8.57,8.57v24.75C218.95,254.79,215.09,258.64,210.38,258.64z"/>
	<path class="st2" d="M210.38,262.45c-6.82,0-12.37-5.55-12.37-12.37v-24.75c0-6.82,5.55-12.37,12.37-12.37s12.37,5.55,12.37,12.37
		v24.75C222.75,256.9,217.2,262.45,210.38,262.45z M210.38,220.57c-2.62,0-4.76,2.13-4.76,4.76v24.75c0,2.62,2.14,4.76,4.76,4.76
		c2.62,0,4.76-2.13,4.76-4.76v-24.75C215.14,222.7,213,220.57,210.38,220.57z"/>
	<path class="st1" d="M246.55,258.64L246.55,258.64c-4.71,0-8.57-3.85-8.57-8.57v-24.75c0-4.71,3.86-8.57,8.57-8.57l0,0
		c4.71,0,8.57,3.85,8.57,8.57v24.75C255.11,254.79,251.26,258.64,246.55,258.64z"/>
	<path class="st2" d="M246.55,262.45c-6.82,0-12.37-5.55-12.37-12.37v-24.75c0-6.82,5.55-12.37,12.37-12.37
		c6.82,0,12.37,5.55,12.37,12.37v24.75C258.92,256.9,253.37,262.45,246.55,262.45z M246.55,220.57c-2.62,0-4.76,2.13-4.76,4.76
		v24.75c0,2.62,2.14,4.76,4.76,4.76c2.62,0,4.76-2.13,4.76-4.76v-24.75C251.31,222.7,249.17,220.57,246.55,220.57z"/>
	<path class="st2" d="M152.32,176.79c-0.67,0-1.35-0.12-2.02-0.37c-2.95-1.12-4.44-4.41-3.32-7.36l26.65-70.43
		c1.12-2.95,4.41-4.44,7.36-3.32c2.95,1.12,4.44,4.41,3.32,7.36l-26.65,70.43C156.8,175.38,154.62,176.79,152.32,176.79z"/>
	<path class="st2" d="M234.17,176.79c-2.31,0-4.48-1.41-5.34-3.69l-26.65-70.43c-1.12-2.95,0.37-6.25,3.32-7.36
		c2.95-1.12,6.25,0.37,7.36,3.32l26.65,70.43c1.12,2.95-0.37,6.25-3.32,7.36C235.53,176.67,234.85,176.79,234.17,176.79z"/>
	<rect x="93.3" y="182.49" class="st2" width="197.97" height="7.61"/>
	<rect x="76.17" y="153.94" class="st2" width="230.34" height="7.61"/>
	<path class="st2" d="M264.63,294.81H118.05c-2.72,0-5.07-1.92-5.6-4.59l-19.26-96.3H79.98c-3.15,0-5.71-2.56-5.71-5.71v-26.65
		c0-3.15,2.56-5.71,5.71-5.71c3.15,0,5.71,2.56,5.71,5.71v20.94h12.18c2.72,0,5.07,1.92,5.6,4.59l19.26,96.3h137.21l19.26-96.3
		c0.53-2.67,2.88-4.59,5.6-4.59h12.18v-20.94c0-3.15,2.56-5.71,5.71-5.71c3.15,0,5.71,2.56,5.71,5.71v26.65
		c0,3.15-2.56,5.71-5.71,5.71h-13.21l-19.26,96.3C269.7,292.89,267.35,294.81,264.63,294.81z"/>
</g>
</svg>
