<svg id="Layer_1" data-name="Layer 1" xmlns="http://www.w3.org/2000/svg" viewBox="0 0 114 114"><defs><style>.cls-1{fill:#fdc408;}.cls-2{fill:#525044;}.cls-3{fill:#f0f0f0;}</style></defs><title>retail-icon</title><circle class="cls-1" cx="57" cy="57" r="57"/><path class="cls-2" d="M256.91,332.9c9.44,0,18.88,0,28.33,0,1.42,0,1.88.46,2.16,1.74a75,75,0,0,0,2.48,10.21c2,5.4.7,10.87.87,16.29a6.62,6.62,0,0,1-4,6,2.13,2.13,0,0,0-1.32,2.26c0,8.27,0,16.54,0,24.81,0,2.76,0,2.76-2.84,2.76H231.21c-2.74,0-2.75,0-2.75-2.68,0-8.2,0-16.41,0-24.61a2.48,2.48,0,0,0-1.41-2.62A7.56,7.56,0,0,1,223,360c0-4,0-8.08,0-12.11,0-1.74,1.22-3.15,1.53-4.87.51-2.88,1.38-5.69,1.95-8.56.26-1.3.83-1.59,2.08-1.58C238,332.93,247.47,332.9,256.91,332.9ZM267,394.41c4.75,0,9.51,0,14.26,0,1,0,1.57-.11,1.56-1.34,0-7.88,0-15.76,0-23.64,0-.84-.18-1.3-1.15-1.38a6.27,6.27,0,0,1-4.35-2.37c-.72-.86-1-.7-1.76,0-3.41,3.35-7.73,3.36-11.08,0-.8-.8-1.25-.79-2-.08-3.74,3.44-7.49,3.44-11.17-.07-.64-.61-.87-.61-1.5,0a8.25,8.25,0,0,1-5.63,2.6,8.71,8.71,0,0,1-6.12-2.68c-.63-.59-.72-.42-1.11,0a6.57,6.57,0,0,1-4.3,2.49c-1.4.14-1.46.83-1.46,1.92,0,7.55.08,15.11,0,22.66,0,1.88.84,2,2.22,1.87s2.67.45,2.62-1.88c-.15-6.64,0-13.28-.08-19.93,0-1.38.24-2,1.79-1.92,4,.11,8.08.09,12.11,0,1.36,0,1.77.37,1.75,1.75-.07,6.77,0,13.55-.06,20.32,0,1.26.33,1.69,1.63,1.67C257.73,394.37,262.36,394.41,267,394.41Zm-10-48.1c9.64,0,19.28,0,28.91,0,1.2,0,1.79-.06,1.35-1.57-.77-2.62-1.32-5.3-1.9-8a1.43,1.43,0,0,0-1.67-1.36q-26.67.05-53.34,0c-1.09,0-1.44.4-1.66,1.38-.52,2.41-1.17,4.8-1.75,7.2s-.55,2.3,1.73,2.3Zm-8.14,37.59c0-3.05,0-6.11,0-9.16,0-1-.26-1.36-1.3-1.33-2.53.07-5.07.06-7.6,0-1,0-1.35.25-1.34,1.3q.07,9.26,0,18.51c0,.94.29,1.25,1.22,1.24,2.53,0,5.07-.06,7.6,0,1.1,0,1.45-.3,1.43-1.42C248.76,390,248.81,386.94,248.81,383.89Zm13.58-28.39c0-2.2-.05-4,0-5.85,0-1-.24-1.38-1.29-1.36-2.8.06-5.6,0-8.39,0-.88,0-1.27.19-1.26,1.19.06,3.64,0,7.29,0,10.93a5.32,5.32,0,0,0,5.23,5.21,4.92,4.92,0,0,0,5.36-3.72C262.78,359.69,262.2,357.39,262.39,355.5Zm12.89-.37c0-1.82,0-3.64,0-5.46,0-1-.18-1.41-1.26-1.38-2.6.07-5.2.06-7.79,0-1,0-1.19.4-1.18,1.27,0,3.7,0,7.4,0,11.11a4.61,4.61,0,0,0,1.77,3.94c1.66,1,3.58,1.61,5.63.36a5.33,5.33,0,0,0,2.77-4.78C275.31,358.51,275.28,356.82,275.28,355.14Zm-26.47.06c0-1.89,0-3.78,0-5.67,0-.75-.09-1.23-1-1.22-2.73,0-5.47,0-8.21,0-.78,0-1,.33-1,1.06,0,3.78-.07,7.56.06,11.33a5,5,0,0,0,4.9,4.94,5.16,5.16,0,0,0,5.24-5.19C248.85,358.71,248.8,357,248.81,355.19Zm29.16,0h0c0,1.82,0,3.64,0,5.46,0,1.55.5,3.19,1.71,4,1.51,1,3.32,1.65,5.29.63a5.2,5.2,0,0,0,3.15-4.73c.07-3.64,0-7.28,0-10.91,0-.91-.22-1.28-1.19-1.26-2.6,0-5.2.06-7.79,0-1.11,0-1.28.46-1.26,1.4C278,351.52,278,353.34,278,355.16Zm-42.06,0h0c0-1.89,0-3.78,0-5.66,0-.8-.18-1.19-1.08-1.18-2.67,0-5.34,0-8,0-.8,0-1.16.2-1.15,1.1,0,3.77,0,7.55,0,11.32,0,2.36,2.68,5.1,4.79,5,3-.19,5.23-2.11,5.37-5.08C236,358.8,235.91,357,235.91,355.15Z" transform="translate(-200 -308)"/><path class="cls-3" d="M256.95,346.31H228.62c-2.28,0-2.29,0-1.73-2.3s1.23-4.79,1.75-7.2c.21-1,.57-1.39,1.66-1.38q26.67.05,53.34,0a1.43,1.43,0,0,1,1.67,1.36c.58,2.67,1.13,5.35,1.9,8,.44,1.51-.15,1.57-1.35,1.57C276.22,346.29,266.59,346.31,256.95,346.31Z" transform="translate(-200 -308)"/><path class="cls-3" d="M248.81,383.89c0,3.05,0,6.11,0,9.16,0,1.11-.32,1.45-1.43,1.42-2.53-.07-5.07-.05-7.6,0-.93,0-1.22-.3-1.22-1.24q.06-9.26,0-18.51c0-1.05.35-1.32,1.34-1.3,2.53.06,5.07.06,7.6,0,1,0,1.32.32,1.3,1.33C248.77,377.79,248.81,380.84,248.81,383.89Z" transform="translate(-200 -308)"/><path class="cls-3" d="M262.39,355.5c-.19,1.88.39,4.19-.3,6.41a4.92,4.92,0,0,1-5.36,3.72,5.32,5.32,0,0,1-5.23-5.21c0-3.64,0-7.29,0-10.93,0-1,.38-1.2,1.26-1.19,2.8,0,5.6.05,8.39,0,1.05,0,1.33.36,1.29,1.36C262.34,351.48,262.39,353.3,262.39,355.5Z" transform="translate(-200 -308)"/><path class="cls-3" d="M275.28,355.14c0,1.69,0,3.38,0,5.07a5.33,5.33,0,0,1-2.77,4.78c-2.05,1.25-4,.65-5.63-.36a4.61,4.61,0,0,1-1.77-3.94c0-3.7,0-7.4,0-11.11,0-.88.19-1.3,1.18-1.27,2.6.05,5.2.06,7.79,0,1.08,0,1.3.41,1.26,1.38C275.24,351.5,275.28,353.32,275.28,355.14Z" transform="translate(-200 -308)"/><path class="cls-3" d="M248.81,355.19c0,1.76,0,3.52,0,5.28a5.16,5.16,0,0,1-5.24,5.19,5,5,0,0,1-4.9-4.94c-.13-3.77,0-7.55-.06-11.33,0-.73.2-1.07,1-1.06,2.74,0,5.47,0,8.21,0,.94,0,1,.47,1,1.22C248.79,351.41,248.81,353.3,248.81,355.19Z" transform="translate(-200 -308)"/><path class="cls-3" d="M278,355.16c0-1.82,0-3.64,0-5.46,0-.94.14-1.43,1.26-1.4,2.6.07,5.2.06,7.79,0,1,0,1.2.35,1.19,1.26,0,3.64,0,7.28,0,10.91a5.2,5.2,0,0,1-3.15,4.73c-2,1-3.78.33-5.29-.63-1.21-.77-1.68-2.42-1.71-4,0-1.82,0-3.64,0-5.46Z" transform="translate(-200 -308)"/><path class="cls-3" d="M235.91,355.15c0,1.82.07,3.65,0,5.47-.13,3-2.37,4.89-5.37,5.08-2.11.14-4.78-2.61-4.79-5,0-3.77,0-7.55,0-11.32,0-.89.35-1.1,1.15-1.1,2.67,0,5.34,0,8,0,.9,0,1.09.38,1.08,1.18,0,1.89,0,3.77,0,5.66Z" transform="translate(-200 -308)"/><path class="cls-2" d="M266.92,381.51c-3.64,0-7.28,0-10.92,0-1.29,0-1.86-.27-1.8-1.7.11-2.53.07-5.07,0-7.6,0-1,.14-1.53,1.35-1.52,7.47,0,14.95,0,22.42,0,.85,0,1.33.18,1.31,1.17,0,2.79-.05,5.59,0,8.38,0,1.14-.58,1.25-1.46,1.24C274.2,381.5,270.56,381.51,266.92,381.51Zm-.29-2.63h6.06c4,0,4,0,4-4,0-1.23-.36-1.52-1.54-1.51-4.75.07-9.51,0-14.26,0-4.09,0-4,0-3.94,4.14,0,1,.28,1.36,1.32,1.34C261,378.84,263.83,378.88,266.63,378.88Z" transform="translate(-200 -308)"/><path class="cls-3" d="M266.63,378.88c-2.8,0-5.6,0-8.4,0-1,0-1.29-.33-1.32-1.34-.11-4.15-.15-4.14,3.94-4.14,4.75,0,9.51,0,14.26,0,1.19,0,1.54.28,1.54,1.51,0,4,.06,4-4,4Z" transform="translate(-200 -308)"/></svg>