<svg id="Layer_1" data-name="Layer 1" xmlns="http://www.w3.org/2000/svg" xmlns:xlink="http://www.w3.org/1999/xlink" viewBox="0 0 382.68 382.68"><defs><style>.cls-1{fill:none;}.cls-2{fill:#fdc408;}.cls-3{opacity:0.5;}.cls-4{fill:#59584e;}.cls-5{fill:#fff;}.cls-6{fill:#334754;}.cls-7{clip-path:url(#clip-path);}.cls-8{fill:#bce2eb;}</style><clipPath id="clip-path"><rect class="cls-1" x="187.18" y="185.49" width="68.66" height="66.58"/></clipPath></defs><title>NEW ICONS</title><polygon class="cls-2" points="19.39 19.39 363.29 363.29 19.39 363.29 19.39 19.39"/><g class="cls-3"><path class="cls-4" d="M289.82,296.15c0,13.57-44.4,24.57-99.17,24.57s-99.17-11-99.17-24.57,44.39-24.58,99.17-24.58S289.82,282.57,289.82,296.15Z"/></g><rect class="cls-5" x="101.88" y="143.88" width="178.92" height="139.39" rx="8.32"/><path class="cls-6" d="M272.48,289.52H110.2A14.58,14.58,0,0,1,95.64,275V152.21a14.58,14.58,0,0,1,14.56-14.57H272.48A14.58,14.58,0,0,1,287,152.21V275A14.58,14.58,0,0,1,272.48,289.52ZM110.2,150.13a2.1,2.1,0,0,0-2.08,2.08V275A2.1,2.1,0,0,0,110.2,277H272.48a2.11,2.11,0,0,0,2.08-2.08V152.21a2.11,2.11,0,0,0-2.08-2.08Z"/><path class="cls-5" d="M290.67,158.42c1.44,4.35-1.13,8.35-5.71,8.35H97.72c-4.58,0-7-4-5.48-8.27l18.17-50.26c1.57-4.3,6.59-8,11.17-8H263.27c4.58,0,9.5,3.78,10.93,8.13Z"/><path class="cls-4" d="M260,260.39H183a4.16,4.16,0,0,1-4.16-4.16V185.49a4.16,4.16,0,0,1,4.16-4.16h77a4.17,4.17,0,0,1,4.17,4.16v70.74A4.17,4.17,0,0,1,260,260.39Zm-72.81-8.32h68.65V189.65H187.18Z"/><g class="cls-7"><rect class="cls-5" x="183.01" y="185.5" width="76.98" height="70.74"/><path class="cls-8" d="M259,188.6l-67.64,67.63h-5.79c-.87-2.76-1.45-7.53-.45-15.6l52-52Z"/><polygon class="cls-8" points="259.99 201.1 259.99 209.72 215.08 256.23 204.86 256.23 259.99 201.1"/></g><rect class="cls-5" x="122.68" y="181.33" width="41.61" height="93.62"/><path class="cls-4" d="M164.29,279.11H122.68a4.16,4.16,0,0,1-4.16-4.16V181.33a4.16,4.16,0,0,1,4.16-4.16h41.61a4.16,4.16,0,0,1,4.16,4.16V275A4.16,4.16,0,0,1,164.29,279.11Zm-37.45-8.32h33.29v-85.3H126.84Z"/><path class="cls-5" d="M89.4,162.61v12.48h.37a25.42,25.42,0,0,0,25.41,25c13.89,0,23.89-11.14,24.15-25h0c.25,13.83,12.85,25,26.74,25s25-11.85,25.27-25.68h0c.26,13.83,11.72,25.68,25.61,25.68s26.14-11.14,26.4-25h0c.26,13.83,10.6,25,24.49,25a25.44,25.44,0,0,0,25.42-25h0V162.61Z"/><path class="cls-4" d="M267.84,204.22a28.31,28.31,0,0,1-24.75-14.55A31.23,31.23,0,0,1,217,204.22a29.82,29.82,0,0,1-25.59-14.91,29.4,29.4,0,0,1-25.29,14.91,31.68,31.68,0,0,1-26.38-14.45,27.61,27.61,0,0,1-24.51,14.45A29.75,29.75,0,0,1,85.7,177a4.09,4.09,0,0,1-.47-1.91V162.61a4.17,4.17,0,0,1,4.17-4.16H293.28a4.16,4.16,0,0,1,4.16,4.16v12.48a3.64,3.64,0,0,1,0,.57A29.74,29.74,0,0,1,267.84,204.22Zm-24.49-33.29a4.16,4.16,0,0,1,4.16,4.08c.22,11.91,9,20.89,20.33,20.89A21.38,21.38,0,0,0,289.1,175c0-.12,0-.25,0-.37v-7.87H93.56v6.6a4.28,4.28,0,0,1,.37,1.64,21.37,21.37,0,0,0,21.25,20.89c11.18,0,19.77-9,20-20.89a4.16,4.16,0,0,1,8.32,0c.21,11.32,10.55,20.89,22.58,20.89,11.42,0,20.89-9.69,21.11-21.6a4.16,4.16,0,0,1,8.32,0c.22,11.71,10,21.6,21.45,21.6,11.85,0,22-9.57,22.24-20.89A4.16,4.16,0,0,1,243.35,170.93Z"/><path class="cls-4" d="M191.34,177.77a4.16,4.16,0,0,1-4.16-4.16V100.19a4.16,4.16,0,0,1,8.32,0v73.42A4.16,4.16,0,0,1,191.34,177.77Z"/><path class="cls-4" d="M243.35,179.7a4.16,4.16,0,0,1-4.16-4.16V160.88l-14.45-59.71a4.16,4.16,0,0,1,8.09-2l14.56,60.19a4,4,0,0,1,.12,1v15.16A4.16,4.16,0,0,1,243.35,179.7Z"/><path class="cls-4" d="M139.33,185.49a4.16,4.16,0,0,1-4.16-4.16v-21a4.18,4.18,0,0,1,.15-1.11L152,99.08a4.16,4.16,0,1,1,8,2.22l-16.49,59.64v20.39A4.16,4.16,0,0,1,139.33,185.49Z"/><rect class="cls-5" x="89.4" y="274.95" width="203.89" height="22.89"/><path class="cls-4" d="M293.28,302H89.4a4.17,4.17,0,0,1-4.17-4.16V275a4.17,4.17,0,0,1,4.17-4.16H293.28a4.16,4.16,0,0,1,4.16,4.16v22.89A4.16,4.16,0,0,1,293.28,302ZM93.56,293.68H289.12V279.11H93.56Z"/><path class="cls-4" d="M293.28,302H89.4a6.24,6.24,0,0,1-6.25-6.24V272.87a6.25,6.25,0,0,1,6.25-6.24h6.24V202c-7-6-11.93-16.66-12.11-26.82l-.37-12.41a6.05,6.05,0,0,1,.41-2.42l21-54.6a18.88,18.88,0,0,1,17-11.82H263.27a18.45,18.45,0,0,1,16.86,12.19l19,54.41a6.28,6.28,0,0,1,.35,2.06v12.48a5.85,5.85,0,0,1,0,.73c-.37,10.27-5.3,20.54-12.44,26.41v64.4h6.24a6.24,6.24,0,0,1,6.24,6.24v22.89A6.24,6.24,0,0,1,293.28,302ZM95.64,289.52H287V279.11H280.8a6.24,6.24,0,0,1-6.24-6.24V199a6.26,6.26,0,0,1,3.05-5.37c5.14-3.06,9.27-11.26,9.41-18.67,0-.15,0-.3,0-.44V163.67l-18.73-53.51a6.17,6.17,0,0,0-5-3.72H121.58a6.63,6.63,0,0,0-5.3,3.71L95.67,163.68,96,174.91c.13,7.41,4.15,15.58,9.15,18.67a6.23,6.23,0,0,1,3,5.31v74a6.24,6.24,0,0,1-6.24,6.24H95.64Z"/><circle class="cls-4" cx="151.81" cy="231.26" r="4.16"/></svg>