<svg id="Layer_1" data-name="Layer 1" xmlns="http://www.w3.org/2000/svg" viewBox="0 0 382.68 382.68"><defs><style>.cls-1{fill:#fdc408;}.cls-2,.cls-3,.cls-5{fill:#59584e;}.cls-2{opacity:0.5;}.cls-4{fill:#fff;}.cls-5{opacity:0.2;}.cls-6{fill:none;stroke:#59584e;stroke-linejoin:round;stroke-width:4.46px;}</style></defs><title>NEW ICONS</title><polygon class="cls-1" points="19.39 19.39 363.29 363.29 19.39 363.29 19.39 19.39"/><path class="cls-2" d="M287.33,303c0,13.09-42.83,23.7-95.66,23.7S96,316.11,96,303s42.83-23.71,95.66-23.71S287.33,289.93,287.33,303Z"/><path class="cls-3" d="M175,84.57l-89.3,89.31a23.46,23.46,0,0,0,0,33.2l89.3,89.3a23.47,23.47,0,0,0,33.2,0l89.31-89.3a23.49,23.49,0,0,0,0-33.2L208.17,84.57A23.49,23.49,0,0,0,175,84.57Zm113.56,98.25a10.83,10.83,0,0,1,0,15.32l-89.3,89.3a10.84,10.84,0,0,1-15.32,0l-89.3-89.3a10.84,10.84,0,0,1,0-15.32l89.3-89.3a10.84,10.84,0,0,1,15.32,0Z"/><rect class="cls-4" x="117.59" y="116.5" width="147.96" height="147.96" rx="10.83" transform="translate(-78.58 191.25) rotate(-45)"/><path class="cls-5" d="M288.53,198.14l-89.29,89.3a10.85,10.85,0,0,1-15.33,0l-89.3-89.3a10.8,10.8,0,0,1-3.1-8.84,10.69,10.69,0,0,0,1.63,2.07l90.66,81.74a10.89,10.89,0,0,0,15.37.18l88.6-79.68a10.59,10.59,0,0,0,3.09-7.32A10.86,10.86,0,0,1,288.53,198.14Z"/><path class="cls-3" d="M307.58,161.26l-16.31,16.32a4.46,4.46,0,0,1-6.31-6.31L301.27,155a4.46,4.46,0,0,1,6.31,6.31Z"/><path class="cls-3" d="M291.49,145.16l-16.32,16.32a4.46,4.46,0,1,1-6.31-6.31l16.32-16.32a4.46,4.46,0,1,1,6.31,6.31Z"/><path class="cls-3" d="M275.39,129.07l-16.32,16.31a4.46,4.46,0,0,1-6.31-6.31l16.32-16.31a4.46,4.46,0,1,1,6.31,6.31Z"/><path class="cls-3" d="M259.29,113,243,129.29a4.46,4.46,0,0,1-6.31-6.31L253,106.66a4.46,4.46,0,0,1,6.31,6.31Z"/><path class="cls-3" d="M243.19,96.87l-16.31,16.32a4.46,4.46,0,0,1-6.31-6.31l16.31-16.32a4.46,4.46,0,0,1,6.31,6.31Z"/><path class="cls-3" d="M227.1,80.77,210.78,97.09a4.46,4.46,0,0,1-6.31-6.31l16.32-16.32a4.46,4.46,0,0,1,6.31,6.31Z"/><path class="cls-3" d="M178.87,290l-16.31,16.32a4.46,4.46,0,0,1-6.31-6.31l16.31-16.32a4.46,4.46,0,0,1,6.31,6.31Z"/><path class="cls-3" d="M162.78,273.88l-16.32,16.31a4.46,4.46,0,0,1-6.31-6.31l16.32-16.31a4.46,4.46,0,0,1,6.31,6.31Z"/><path class="cls-3" d="M146.68,257.78l-16.32,16.31a4.46,4.46,0,0,1-6.31-6.3l16.32-16.32a4.46,4.46,0,0,1,6.31,6.31Z"/><path class="cls-3" d="M130.58,241.68,114.26,258a4.46,4.46,0,0,1-6.31-6.31l16.32-16.32a4.46,4.46,0,1,1,6.31,6.31Z"/><path class="cls-3" d="M114.48,225.58,98.17,241.9a4.46,4.46,0,0,1-6.31-6.31l16.31-16.32a4.46,4.46,0,0,1,6.31,6.31Z"/><path class="cls-3" d="M98.39,209.49,82.07,225.8a4.46,4.46,0,1,1-6.31-6.31l16.32-16.31a4.46,4.46,0,0,1,6.31,6.31Z"/><path class="cls-3" d="M92.08,177.78,75.76,161.46a4.46,4.46,0,1,1,6.31-6.31l16.32,16.32a4.46,4.46,0,0,1-6.31,6.31Z"/><path class="cls-3" d="M108.17,161.68,91.86,145.36a4.46,4.46,0,0,1,6.31-6.31l16.31,16.32a4.46,4.46,0,0,1-6.31,6.31Z"/><path class="cls-3" d="M124.27,145.58,108,129.27a4.46,4.46,0,0,1,6.31-6.31l16.32,16.31a4.46,4.46,0,1,1-6.31,6.31Z"/><path class="cls-3" d="M140.37,129.49l-16.32-16.32a4.46,4.46,0,0,1,6.31-6.31l16.32,16.32a4.46,4.46,0,0,1-6.31,6.31Z"/><path class="cls-3" d="M156.47,113.39,140.15,97.07a4.46,4.46,0,1,1,6.31-6.31l16.32,16.32a4.46,4.46,0,0,1-6.31,6.31Z"/><path class="cls-3" d="M172.56,97.29,156.25,81a4.46,4.46,0,1,1,6.31-6.3L178.87,91a4.46,4.46,0,0,1-6.31,6.31Z"/><path class="cls-3" d="M220.59,306.29,204.27,290a4.46,4.46,0,0,1,6.31-6.31L226.9,300a4.46,4.46,0,0,1-6.31,6.31Z"/><path class="cls-3" d="M236.68,290.19l-16.31-16.31a4.46,4.46,0,0,1,6.31-6.31L243,283.88a4.46,4.46,0,0,1-6.31,6.31Z"/><path class="cls-3" d="M252.78,274.09l-16.31-16.31a4.46,4.46,0,0,1,6.31-6.31l16.31,16.32a4.46,4.46,0,1,1-6.31,6.3Z"/><path class="cls-3" d="M268.88,258l-16.32-16.32a4.46,4.46,0,0,1,6.31-6.31l16.32,16.32a4.46,4.46,0,0,1-6.31,6.31Z"/><path class="cls-3" d="M285,241.9l-16.32-16.32a4.46,4.46,0,0,1,6.31-6.31l16.32,16.32A4.46,4.46,0,0,1,285,241.9Z"/><path class="cls-3" d="M301.07,225.8l-16.31-16.31a4.46,4.46,0,1,1,6.31-6.31l16.31,16.31a4.46,4.46,0,1,1-6.31,6.31Z"/><polyline class="cls-6" points="120 230.62 162.6 188.01 162.6 159.36"/><path class="cls-3" d="M171.83,159.82a9.23,9.23,0,1,0-9.23,9.23A9.23,9.23,0,0,0,171.83,159.82Z"/><polyline class="cls-6" points="212.54 281.83 183.68 252.97 183.68 231.75 171.97 220.04"/><path class="cls-3" d="M178.82,213.85a9.22,9.22,0,1,0,0,13A9.22,9.22,0,0,0,178.82,213.85Z"/><polyline class="cls-6" points="151.41 117.94 161 127.54 185.97 127.54 196.09 137.66 196.09 197.74"/><path class="cls-3" d="M186.87,197.28a9.23,9.23,0,1,0,9.22-9.23A9.22,9.22,0,0,0,186.87,197.28Z"/><polyline class="cls-6" points="246.13 248.24 224.8 226.91 224.8 114.61"/><line class="cls-6" x1="252.13" y1="139.71" x2="252.13" y2="193.98"/><circle class="cls-3" cx="252.13" cy="193.52" r="9.23"/><polyline class="cls-6" points="128.79 140.56 128.79 188.23 105.06 211.96"/></svg>