<svg id="Layer_1" data-name="Layer 1" xmlns="http://www.w3.org/2000/svg" viewBox="0 0 114 114"><defs><style>.cls-1{fill:#ffc500;}.cls-2{fill:#59584e;}</style></defs><title>tech-icon</title><circle class="cls-1" cx="57" cy="57" r="57"/><path class="cls-2" d="M282.4,379.59q0-27,0-54.09a1.83,1.83,0,0,0-1.33-1.75,2.18,2.18,0,0,0,0-.56c0-.16-.16-.4-.28-.42a2.24,2.24,0,0,1-1.53-1.25,1,1,0,0,0-.62-.38c-.94-.15-1.89-.24-2.83-.38a.61.61,0,0,1-.42-.22,10.8,10.8,0,0,1-.67-1.53.59.59,0,0,0-.68-.48c-1.84,0-3.68.08-5.51,0-1-.06-1.63.24-1.9,1.21-.14.49-.46.59-.94.59-9.41,0-18.82-.22-28.22.41-.16,0-.43,0-.45.06-.2.58-.76.39-1.14.56-.21.09-.48.08-.64.21-.49.4-.93.86-1.4,1.28-.31.27-.74.44-.66,1a.38.38,0,0,1-.18.31c-.62.31-.5.87-.48,1.38,0,.33,0,.59-.45.59,0,2.33,0,4.63,0,6.92a4.73,4.73,0,0,1-.11,2.07c-.29.52-1.09.78-1.69,1.11a.73.73,0,0,0-.41.76c0,1.41,0,2.83,0,4.24a5.11,5.11,0,0,0,.11,2.18c.29.54,1.12.79,1.74,1.14a.62.62,0,0,1,.36.62c0,1.12,0,1.12-1.08,1.39l-.16,0a1.26,1.26,0,0,0-1,1.26c0,1,0,2,0,3a12.45,12.45,0,0,0,.55,3.86c.11.33.27.5.64.46a9.4,9.4,0,0,1,1,0v.75q0,23.95,0,47.89c0,.11,0,.23,0,.34a7.63,7.63,0,0,0,1.37,2.65l.06,0a.45.45,0,0,1,.37.47,8.66,8.66,0,0,0,2.35,1.76l.29,0a.73.73,0,0,0,0,.11,9.56,9.56,0,0,0,2.66.82h0c.82.08,1.64.14,2.45.14,2.12,0,4.23-.21,6.35-.22q14.28,0,28.55,0a3.58,3.58,0,0,0,2.34-.79c.75-.59,1.48-1.19,2.21-1.8a4.87,4.87,0,0,0,.61-1c.11-.62.22-1.24.3-1.86a83.58,83.58,0,0,0,.61-11.57C282.56,388.48,282.4,384,282.4,379.59Zm-5.55,15.77v0a.87.87,0,0,1-.24.61,1.32,1.32,0,0,1-.89.42,1,1,0,0,1-.54.25c-1.91,0-3.81,0-5.72,0q-9.93,0-19.87,0-3.55,0-7.09.11a7,7,0,0,1-1.19-.07c-1.25.08-2.68-.15-3.18-.94l-.34-.13V395q0-31.9,0-63.79a2,2,0,0,1,0-.21.48.48,0,0,1,0-.3,2,2,0,0,1,.68-1h0a2.81,2.81,0,0,1,.72-.44.45.45,0,0,1,.13,0c.09,0,.19,0,.28-.05a.76.76,0,0,0,0-.09h.49l.22,0a.47.47,0,0,1,.23,0l11.28-.07c4.17,0,8.34-.1,12.5,0,3.72.07,7.44.33,11.15.51a.82.82,0,0,1,.84.55,6.07,6.07,0,0,0,.58.88,1.79,1.79,0,0,1,.19.46,1.2,1.2,0,0,1,0,.32q0,31.42,0,62.84A1.13,1.13,0,0,1,276.85,395.35Z" transform="translate(-200 -308)"/></svg>