<svg id="Layer_1" data-name="Layer 1" xmlns="http://www.w3.org/2000/svg" viewBox="0 0 382.68 382.68"><defs><style>.cls-1{fill:#13a7e0;}.cls-2,.cls-5{fill:#59584e;}.cls-2{opacity:0.5;}.cls-3{fill:#fff;}.cls-4{fill:#334754;}</style></defs><title>NEW ICONS</title><polygon class="cls-1" points="19.39 19.39 363.29 363.29 19.39 363.29 19.39 19.39"/><path class="cls-2" d="M284.5,298.36c0,10.52-39.92,19.06-89.16,19.06s-89.17-8.54-89.17-19.06,40-20.23,89.26-20.23S284.5,287.84,284.5,298.36Z"/><polygon class="cls-3" points="81.18 247.01 93.09 235.11 136.74 239.08 134.09 257.59 122.19 266.85 81.18 247.01"/><path class="cls-4" d="M122.19,270.59a3.73,3.73,0,0,1-1.63-.37l-41-19.84a3.77,3.77,0,0,1-2.06-2.75,3.72,3.72,0,0,1,1.05-3.26l11.9-11.91a3.81,3.81,0,0,1,3-1.08l43.65,4a3.75,3.75,0,0,1,3.36,4.26l-2.64,18.51a3.8,3.8,0,0,1-1.41,2.43l-11.9,9.26A3.76,3.76,0,0,1,122.19,270.59ZM87.55,245.94l34.18,16.53,8.87-6.9,1.88-13.13L94.5,239Z"/><polygon class="cls-3" points="149.15 313.11 161.06 301.21 157.09 257.56 138.57 260.2 129.31 272.11 149.15 313.11"/><path class="cls-4" d="M149.15,316.85a3.31,3.31,0,0,1-.62-.05,3.76,3.76,0,0,1-2.75-2.06l-19.84-41a3.76,3.76,0,0,1,.42-3.93l9.26-11.9A3.72,3.72,0,0,1,138,256.5l18.52-2.65a3.73,3.73,0,0,1,4.25,3.37l4,43.65a3.72,3.72,0,0,1-1.08,3l-11.9,11.91A3.77,3.77,0,0,1,149.15,316.85Zm-15.46-44.28,16.54,34.18,6.94-6.95-3.45-38-13.12,1.87Z"/><path class="cls-3" d="M143,151.52a7.48,7.48,0,0,1-10.58,0h0a7.48,7.48,0,0,1,0-10.58l15.87-15.88a7.48,7.48,0,0,1,10.58,0h0a7.48,7.48,0,0,1,0,10.59Z"/><path class="cls-4" d="M137.7,157.45a11.23,11.23,0,0,1-7.93-19.16l15.87-15.87a11.22,11.22,0,1,1,15.87,15.87l-15.87,15.87A11.16,11.16,0,0,1,137.7,157.45Zm15.87-30.84a3.68,3.68,0,0,0-2.64,1.1l-15.87,15.87a3.74,3.74,0,0,0,0,5.29,3.84,3.84,0,0,0,5.29,0L156.22,133a3.75,3.75,0,0,0-2.65-6.39Z"/><path class="cls-3" d="M182.27,151.52a7.48,7.48,0,0,1-10.58,0h0a7.48,7.48,0,0,1,0-10.58l15.88-15.88a7.48,7.48,0,0,1,10.58,0h0a7.5,7.5,0,0,1,0,10.59Z"/><path class="cls-4" d="M177,157.45a11.23,11.23,0,0,1-7.93-19.16l15.87-15.87a11.22,11.22,0,1,1,15.87,15.87l-15.87,15.87A11.16,11.16,0,0,1,177,157.45Zm15.88-30.84a3.72,3.72,0,0,0-2.65,1.1l-15.87,15.87a3.74,3.74,0,0,0,0,5.29,3.84,3.84,0,0,0,5.29,0L195.5,133a3.74,3.74,0,0,0,0-5.29A3.68,3.68,0,0,0,192.86,126.61Z"/><polygon class="cls-3" points="80.62 155.9 103.07 141.58 232.14 141.58 199.66 185 80.62 155.9"/><path class="cls-5" d="M199.66,188.74a3.79,3.79,0,0,1-.88-.11l-119-29.1a3.74,3.74,0,0,1-1.12-6.79l22.45-14.31a3.69,3.69,0,0,1,2-.59H232.14a3.74,3.74,0,0,1,3,6l-32.47,43.42A3.77,3.77,0,0,1,199.66,188.74ZM90,154.34l108.13,26.43,26.52-35.45H104.16Z"/><path class="cls-3" d="M250.26,247.56a7.48,7.48,0,0,0,0,10.58h0a7.48,7.48,0,0,0,10.58,0l15.87-15.87a7.48,7.48,0,0,0,0-10.58h0a7.48,7.48,0,0,0-10.58,0Z"/><path class="cls-4" d="M255.55,264.08a11.23,11.23,0,0,1-7.94-19.16L263.48,229a11.23,11.23,0,0,1,15.88,15.87l-15.88,15.88A11.12,11.12,0,0,1,255.55,264.08Zm15.87-30.84a3.75,3.75,0,0,0-2.65,1.09L252.9,250.21a3.74,3.74,0,0,0,0,5.29,3.84,3.84,0,0,0,5.29,0l15.88-15.88a3.74,3.74,0,0,0-2.65-6.38Z"/><path class="cls-3" d="M250.26,208.28a7.48,7.48,0,0,0,0,10.58h0a7.48,7.48,0,0,0,10.58,0L276.71,203a7.48,7.48,0,0,0,0-10.58h0a7.48,7.48,0,0,0-10.58,0Z"/><path class="cls-4" d="M255.55,224.79h0a11.23,11.23,0,0,1-7.94-19.16l15.87-15.87a11.23,11.23,0,0,1,15.88,15.87l-15.88,15.88A11.11,11.11,0,0,1,255.55,224.79ZM271.42,194a3.75,3.75,0,0,0-2.65,1.09L252.9,210.92a3.75,3.75,0,0,0-1.09,2.65,3.71,3.71,0,0,0,1.09,2.64,3.83,3.83,0,0,0,5.29,0l15.88-15.88a3.71,3.71,0,0,0,1.09-2.64,3.75,3.75,0,0,0-1.09-2.65A3.71,3.71,0,0,0,271.42,194Z"/><polygon class="cls-3" points="246.23 309.93 262.78 287.49 262.78 158.41 217.31 190.89 246.23 309.93"/><path class="cls-5" d="M245.88,313.67a4.37,4.37,0,0,1-.72-.06,3.76,3.76,0,0,1-2.92-2.79l-29.09-119a3.73,3.73,0,0,1,1.45-3.93l45.29-32.48a4.39,4.39,0,0,1,4.24-.28,4.1,4.1,0,0,1,2.39,3.32V287.49a4.24,4.24,0,0,1-1.06,2.19l-16.37,22.44A4.06,4.06,0,0,1,245.88,313.67ZM221.37,192.46l26.75,108.71L259,286.28V165.7Z"/><path class="cls-3" d="M297,125.48c.86-7.59,2.65-18.52-2.64-23.82S278.13,98.17,270.54,99c-9,1-20.15,12.21-26.37,18.43S138.64,230.92,123.71,245.85s-7.92,34.38-7.92,34.38,19.44,7,34.38-7.93S272.34,158.07,278.56,151.85,296,134.43,297,125.48Z"/><path class="cls-5" d="M126.74,285.61h0a39.13,39.13,0,0,1-12.22-1.86,3.71,3.71,0,0,1-2.25-2.25c-.32-.89-7.63-21.87,8.8-38.29,9-9,48.8-51.71,80.76-86,20.79-22.3,37.21-39.91,39.7-42.4,6.86-6.86,18.34-18.35,28.59-19.5l1.81-.21a89,89,0,0,1,10.44-.81c6.66,0,11.44,1.55,14.63,4.73,6.16,6.16,4.86,17.09,3.92,25.07l-.21,1.81c-1.16,10.25-12.64,21.73-19.5,28.59-2.49,2.49-20.11,18.91-42.41,39.69-34.29,32-77,71.75-86,80.77A36.18,36.18,0,0,1,126.74,285.61Zm-7.94-8.41a34.57,34.57,0,0,0,7.94.93,28.37,28.37,0,0,0,20.78-8.47c9.12-9.12,51.85-49,86.18-81,21.37-19.92,39.82-37.11,42.22-39.51,5.35-5.35,16.49-16.49,17.35-24.14l.22-1.85c.76-6.46,1.81-15.3-1.79-18.9-1.7-1.71-4.76-2.54-9.33-2.54a82.4,82.4,0,0,0-9.56.76l-1.85.21c-7.65.87-18.79,12-24.14,17.36-2.4,2.4-19.6,20.85-39.51,42.21-32,34.34-71.83,77.07-80.95,86.19C115.65,259.2,117.63,272.45,118.8,277.2Z"/><path class="cls-3" d="M142.35,250.08s-37.41,9.35-39.28,39.28C129.26,287.49,140.48,265,142.35,250.08Z"/><path class="cls-5" d="M103.07,293.1a3.74,3.74,0,0,1-3.74-4c2-32.29,40.48-42.27,42.11-42.67a3.73,3.73,0,0,1,4.62,4.09c-2.4,19.19-16.79,40.7-42.73,42.55Zm34.34-37.43c-9.19,3.59-26.36,12.42-30,29.37C125.53,281.71,134.24,267.18,137.41,255.67Z"/><path class="cls-3" d="M237.75,126.62s37.63-1.88,33.89,31.79C284.73,147.19,290,141.7,290,141.7s.18-33.79-35.37-31.92Z"/><path class="cls-5" d="M271.64,162.16a3.76,3.76,0,0,1-3.72-4.16c.88-8-.73-14.32-4.79-18.86-7.49-8.38-21.58-8.8-24.33-8.8h-.87a3.8,3.8,0,0,1-3.6-2.22,3.76,3.76,0,0,1,.77-4.16l16.84-16.83a3.67,3.67,0,0,1,2.45-1.09c1-.06,2-.08,3-.08,10.81,0,19.52,3.23,25.86,9.61,10.41,10.46,10.46,25.5,10.45,26.14a3.71,3.71,0,0,1-1,2.56c-.21.23-5.5,5.76-18.59,17A3.75,3.75,0,0,1,271.64,162.16Zm-25.4-38.75c6.81,1,16.12,3.65,22.47,10.74a27.37,27.37,0,0,1,6.75,16c5.66-5,9.08-8.31,10.69-9.9-.43-5.83-3.72-26.77-28.77-26.77h-1.19Z"/><path class="cls-5" d="M151,318.72a6.33,6.33,0,0,1-.86-.06,5.62,5.62,0,0,1-4.12-3L132,288.52a22,22,0,0,1-3.27-.68l-.09,0A51.56,51.56,0,0,1,105.34,295a5.61,5.61,0,0,1-6-5.94c.6-9.69,3.2-18.58,7.2-25.08L80.72,252.11A5.6,5.6,0,0,1,79.09,243L91,231.14a5.62,5.62,0,0,1,4.22-1.64l32.7,1.45c7-7.4,16.67-17.81,27.7-29.71l16.71-18-91.14-21.9a5.61,5.61,0,0,1-2-10l22.45-16.19a5.58,5.58,0,0,1,3.28-1.06h28.24l13-13a13.07,13.07,0,0,1,18.51,0c3.52,3.51,4.61,9.26,3.29,13h4.48l13-13a13.07,13.07,0,0,1,18.51,0c3.52,3.51,4.61,9.26,3.29,13h11.37C228.85,122.88,238,113.89,240,111.89c6.75-6.75,21.17-15.93,31.07-18.32A54,54,0,0,1,283.59,92c7.2,0,12.79,1.94,16.6,5.75,5.65,5.65,7,15.11,4.17,28.91-1.14,5.5-4.49,11.84-9.46,17.92a5.36,5.36,0,0,1-1,1.24c-3.36,3.94-6.87,7.45-9.46,10a14.06,14.06,0,0,1-1,1.43c-2.4,2.53-7.53,7.57-13.14,13.58v14.32c0-.35,2.1-.54,3.39-.54a12.61,12.61,0,0,1,9.08,3.84A13.12,13.12,0,0,1,283,207l-12.74,13v4.47c0-.36,2.1-.54,3.39-.54a12.63,12.63,0,0,1,9.08,3.83,13.12,13.12,0,0,1,.27,18.52l-12.74,13v28.25a6,6,0,0,1-1.42,3.28l-16.36,22.45a5.77,5.77,0,0,1-5.72,2.22,5.67,5.67,0,0,1-4.42-4.17L219.45,217.7c-21.92,20.46-42.24,39.54-53.87,50.6l2.94,32.4a5.65,5.65,0,0,1-1.62,4.48L155,317.08A5.61,5.61,0,0,1,151,318.72ZM135.34,277.2a5.61,5.61,0,0,1,5,3l12.16,23.49,4.62-4.62-2.95-32.48a5.58,5.58,0,0,1,1.71-4.57c12.36-11.79,37.06-35,62.92-59.1a5.61,5.61,0,0,1,9.27,2.78l22.62,91L259,285.67V256.92a5.32,5.32,0,0,1,1.28-4l14.47-14.65a1.87,1.87,0,0,0-.09-2.64,1.93,1.93,0,0,0-1.36-.55,1.91,1.91,0,0,0-1.35.55l-4.08,4.06a5.06,5.06,0,0,1-5.76,1.22,5.31,5.31,0,0,1-3.11-5.19V217.63a5.28,5.28,0,0,1,1.29-4L274.79,199a1.88,1.88,0,0,0-.09-2.65,1.94,1.94,0,0,0-1.36-.54,1.91,1.91,0,0,0-1.35.55l-4.07,4.06a5.07,5.07,0,0,1-5.77,1.21,5.29,5.29,0,0,1-3.11-5.18V168.39a5.34,5.34,0,0,1,1.42-4.1c7-6.5,12.07-12.08,14.6-14.77.74-.78,1.19-1.34,1.49-1.64,2.55-2.55,6-6,9.15-9.79a1.43,1.43,0,0,1,.11-.15s0,0,0-.05c3.94-4.71,6.75-9.78,7.53-13.54,2.62-12.7.43-17.18-1.11-18.72-2-2-5.84-2.45-8.67-2.45a43.52,43.52,0,0,0-9.87,1.3c-7.73,1.87-20.2,9.78-25.77,15.35-2.07,2.08-12,12.19-22.78,23.71a5.62,5.62,0,0,1-4.1,1.78H196a5.61,5.61,0,0,1-4-9.58l4.06-4.06A1.87,1.87,0,0,0,193.4,129l-14.64,14.65a5.62,5.62,0,0,1-4,1.64H156.67a5.61,5.61,0,0,1-4-9.58l4.06-4.06a1.87,1.87,0,0,0-2.65-2.65l-14.64,14.65a5.63,5.63,0,0,1-4,1.64H106.75l-11.06,8,88.6,21.28a5.61,5.61,0,0,1,2.8,9.28c-8,8.58-15.9,17.09-23.24,25-12,13-22.39,24.15-29.57,31.67a5.56,5.56,0,0,1-4.31,1.73l-32.79-1.45-4.45,4.45,24.5,11.21a5.62,5.62,0,0,1,3.21,6c0,.2,0,.36,0,.48a5.57,5.57,0,0,1-1.65,3.44c-3.31,3.26-6,9.32-7.33,16.36a34.87,34.87,0,0,0,12.65-5.4,5.67,5.67,0,0,1,3.68-1.07,19.59,19.59,0,0,1,3.92.74,4.83,4.83,0,0,0,2.56.3A5.22,5.22,0,0,1,135.34,277.2Z"/></svg>