<svg id="Layer_1" data-name="Layer 1" xmlns="http://www.w3.org/2000/svg" viewBox="0 0 114 114"><defs><style>.cls-1{fill:#00a7e3;}.cls-2{fill:#59584e;}</style></defs><title>transport-icon</title><circle class="cls-1" cx="57" cy="57" r="57"/><path class="cls-2" d="M245.66,321.6c3.38.66,5.69,2.91,8,5.26q14.41,14.77,28.95,29.41a7.43,7.43,0,0,0,3.85,1.5c4,.7,8.1,1,12.09,1.86,2.71.57,5.33,1.93,5.46,5.19s-2.46,4.8-4.94,5.43a105.84,105.84,0,0,1-13.29,2.16,5.18,5.18,0,0,0-3.42,1.55c-10.09,10.35-20.25,20.62-30.31,31-2.89,3-6.27,3.89-10.49,3.2l19.54-36.56c-3.18-.24-6.06-.49-8.94-.67-5.54-.35-11.09-.63-16.63-1a3.75,3.75,0,0,0-3.3,1.21c-2.46,2.55-5.11,4.91-7.57,7.46a4.68,4.68,0,0,1-4,1.61c-1.79-.14-3.6-.11-5.4-.15v-.42l10.54-15.27L215,349.91c2.32,0,3.9.11,5.46,0a5,5,0,0,1,4.39,1.76c2.49,2.61,5.11,5.1,7.76,7.56a3.29,3.29,0,0,0,2.13.87c5.75-.26,11.5-.62,17.25-1,3-.19,5.9-.45,9.1-.7l-19.49-36.28,3.63-.51Z" transform="translate(-200 -308)"/></svg>